<?xml version="1.0" encoding="UTF-8"?>
<svg width="32" height="32" version="1.1" viewBox="0 0 32 32" xmlns="http://www.w3.org/2000/svg" xmlns:cc="http://creativecommons.org/ns#" xmlns:dc="http://purl.org/dc/elements/1.1/" xmlns:rdf="http://www.w3.org/1999/02/22-rdf-syntax-ns#">
 <metadata>
  <rdf:RDF>
   <cc:Work rdf:about="">
    <dc:format>image/svg+xml</dc:format>
    <dc:type rdf:resource="http://purl.org/dc/dcmitype/StillImage"/>
    <dc:title/>
   </cc:Work>
  </rdf:RDF>
 </metadata>
 <path d="m0 16v-16h32v32h-32zm20 12.75c0-0.4125-1.8-0.75-4-0.75s-4 0.3375-4 0.75 1.8 0.75 4 0.75 4-0.3375 4-0.75zm-12-2.1334c0-1.6077 3.0329-2.5893 8-2.5893s8 0.98166 8 2.5893c0 0.76085 0.9 1.3834 2 1.3834 1.8889 0 2-0.66667 2-12v-12h-24v12c0 11.333 0.11111 12 2 12 1.1 0 2-0.62252 2-1.3834zm2.6349-8.6892c-4.0497-3.1855-3.2132-6.5744 2.5481-10.324 2.2029-1.4335 3.0975-1.5333 5-0.55782 2.9591 1.5173 5.7662 4.9719 5.7948 7.1315 0.03123 2.3558-4.7187 5.8226-7.9778 5.8226-1.5017 0-3.916-0.93266-5.3651-2.0726zm8.8049-4.3157c0.88836-0.13038 1.6028-0.54636 1.5877-0.92439-0.01512-0.37803-0.02749-1.3266-0.02749-2.1079 0-1.9019-5.3644-2.99-7.9413-1.6108-2.0317 1.0874-2.89 4.0314-1.1753 4.0314 0.48585 0 1.1415 0.98723 1.4571 2.1938 0.552 2.1108 0.64767 2.1269 2.5289 0.42439 1.0754-0.9732 2.6821-1.8761 3.5704-2.0065zm2.9057 13.138c-0.25494-0.4125-3.1104-0.75-6.3455-0.75s-6.0906 0.3375-6.3455 0.75 2.6005 0.75 6.3455 0.75 6.6004-0.3375 6.3455-0.75z"/>
</svg>
