<?xml version="1.0" encoding="UTF-8" standalone="no"?>
<svg
   xmlns:dc="http://purl.org/dc/elements/1.1/"
   xmlns:cc="http://creativecommons.org/ns#"
   xmlns:rdf="http://www.w3.org/1999/02/22-rdf-syntax-ns#"
   xmlns:svg="http://www.w3.org/2000/svg"
   xmlns="http://www.w3.org/2000/svg"
   xmlns:xlink="http://www.w3.org/1999/xlink"
   xmlns:sodipodi="http://sodipodi.sourceforge.net/DTD/sodipodi-0.dtd"
   xmlns:inkscape="http://www.inkscape.org/namespaces/inkscape"
   inkscape:version="1.0 (4035a4fb49, 2020-05-01)"
   sodipodi:docname="crafter.svg"
   viewBox="0 0 16 16"
   height="16"
   width="16"
   id="svg1632"
   version="1.1">
  <metadata
     id="metadata1638">
    <rdf:RDF>
      <cc:Work
         rdf:about="">
        <dc:format>image/svg+xml</dc:format>
        <dc:type
           rdf:resource="http://purl.org/dc/dcmitype/StillImage" />
        <dc:title></dc:title>
      </cc:Work>
    </rdf:RDF>
  </metadata>
  <defs
     id="defs1636" />
  <sodipodi:namedview
     inkscape:current-layer="g1640"
     inkscape:window-maximized="0"
     inkscape:window-y="0"
     inkscape:window-x="2319"
     inkscape:cy="8"
     inkscape:cx="8"
     inkscape:zoom="36.125"
     showgrid="false"
     id="namedview1634"
     inkscape:window-height="1048"
     inkscape:window-width="958"
     inkscape:pageshadow="2"
     inkscape:pageopacity="0"
     guidetolerance="10"
     gridtolerance="10"
     objecttolerance="10"
     borderopacity="1"
     bordercolor="#666666"
     pagecolor="#ffffff" />
  <g
     id="g1640"
     inkscape:label="Image"
     inkscape:groupmode="layer">
    <image
       sodipodi:absref="C:\Users\oscar\Desktop\#Oscar\Programmation\website\projects\assembly\images\crafter.png"
       xlink:href="crafter.png"
       width="16"
       height="16"
       preserveAspectRatio="none"
       id="image1642" />
    <g
       id="g3714">
      <path
         id="path4226"
         d="M 15.25,15.25 16,15 v 1 h -1"
         style="fill:#585858;fill-opacity:1" />
      <path
         id="path4224"
         d="m 14,15 0.75,-0.25 0.5,0.5 L 15,16 h -1"
         style="fill:#585858;fill-opacity:1" />
      <path
         id="path4222"
         d="m 13,15 h 1 v 1 h -1"
         style="fill:#585858;fill-opacity:1" />
      <path
         id="path4220"
         d="m 11.75,15.25 0.5,-0.5 L 13,15 v 1 h -1"
         style="fill:#585858;fill-opacity:1" />
      <path
         id="path4218"
         d="M 11,15 11.75,15.25 12,16 h -1"
         style="fill:#585858;fill-opacity:1" />
      <path
         id="path4216"
         d="m 9.75,15.25 0.5,-0.5 L 11,15 v 1 h -1"
         style="fill:#585858;fill-opacity:1" />
      <path
         id="path4214"
         d="M 9,15 9.75,15.25 10,16 H 9"
         style="fill:#c3c3c3;fill-opacity:1" />
      <path
         id="path4212"
         d="m 8,15 h 1 v 1 H 8"
         style="fill:#c3c3c3;fill-opacity:1" />
      <path
         id="path4210"
         d="m 7,15 h 1 v 1 H 7"
         style="fill:#c3c3c3;fill-opacity:1" />
      <path
         id="path4208"
         d="M 6.25,15.25 7,15 v 1 H 6"
         style="fill:#c3c3c3;fill-opacity:1" />
      <path
         id="path4206"
         d="m 5,15 0.75,-0.25 0.5,0.5 L 6,16 H 5"
         style="fill:#585858;fill-opacity:1" />
      <path
         id="path4204"
         d="M 4.25,15.25 5,15 v 1 H 4"
         style="fill:#585858;fill-opacity:1" />
      <path
         id="path4202"
         d="m 3,15 0.75,-0.25 0.5,0.5 L 4,16 H 3"
         style="fill:#585858;fill-opacity:1" />
      <path
         id="path4200"
         d="m 2,15 h 1 v 1 H 2"
         style="fill:#585858;fill-opacity:1" />
      <path
         id="path4198"
         d="M 0.75,15.25 1.25,14.75 2,15 v 1 H 1"
         style="fill:#585858;fill-opacity:1" />
      <path
         id="path4196"
         d="M 0,15 0.75,15.25 1,16 H 0"
         style="fill:#585858;fill-opacity:1" />
      <path
         id="path4194"
         d="m 15,14 h 1 v 1 l -0.75,0.25 -0.5,-0.5"
         style="fill:#585858;fill-opacity:1" />
      <path
         id="path4192"
         d="m 14,14 h 1 L 14.75,14.75 14,15"
         style="fill:#000000;fill-opacity:0" />
      <path
         id="path4190"
         d="m 13,14 h 1 v 1 h -1"
         style="fill:#000000;fill-opacity:0" />
      <path
         id="path4188"
         d="m 12,14 h 1 v 1 l -0.75,-0.25"
         style="fill:#000000;fill-opacity:0" />
      <path
         id="path4186"
         d="M 11.25,14.25 12,14 l 0.25,0.75 -0.5,0.5 L 11,15"
         style="fill:#585858;fill-opacity:1" />
      <path
         id="path4184"
         d="m 10,14 0.75,-0.25 0.5,0.5 L 11,15 10.25,14.75"
         style="fill:#828282;fill-opacity:1" />
      <path
         id="path4182"
         d="m 9,14 h 1 l 0.25,0.75 -0.5,0.5 L 9,15"
         style="fill:#828282;fill-opacity:1" />
      <path
         id="path4180"
         d="m 8,14 h 1 v 1 H 8"
         style="fill:#828282;fill-opacity:1" />
      <path
         id="path4178"
         d="m 7,14 h 1 v 1 H 7"
         style="fill:#828282;fill-opacity:1" />
      <path
         id="path4176"
         d="m 6,14 h 1 v 1 l -0.75,0.25 -0.5,-0.5"
         style="fill:#828282;fill-opacity:1" />
      <path
         id="path4174"
         d="M 4.75,14.25 5.25,13.75 6,14 5.75,14.75 5,15"
         style="fill:#828282;fill-opacity:1" />
      <path
         id="path4172"
         d="M 4,14 4.75,14.25 5,15 4.25,15.25 3.75,14.75"
         style="fill:#585858;fill-opacity:1" />
      <path
         id="path4170"
         d="M 3,14 H 4 L 3.75,14.75 3,15"
         style="fill:#000000;fill-opacity:0" />
      <path
         id="path4168"
         d="m 2,14 h 1 v 1 H 2"
         style="fill:#000000;fill-opacity:0" />
      <path
         id="path4166"
         d="m 1,14 h 1 v 1 L 1.25,14.75"
         style="fill:#000000;fill-opacity:0" />
      <path
         id="path4164"
         d="m 0,14 h 1 l 0.25,0.75 -0.5,0.5 L 0,15"
         style="fill:#585858;fill-opacity:1" />
      <path
         id="path4162"
         d="m 15,13 h 1 v 1 h -1"
         style="fill:#585858;fill-opacity:1" />
      <path
         id="path4160"
         d="m 14,13 h 1 v 1 h -1"
         style="fill:#000000;fill-opacity:0" />
      <path
         id="path4158"
         d="m 13,13 h 1 v 1 h -1"
         style="fill:#000000;fill-opacity:0" />
      <path
         id="path4156"
         d="m 12,13 h 1 v 1 h -1"
         style="fill:#000000;fill-opacity:0" />
      <path
         id="path4154"
         d="m 10.75,13.25 0.5,-0.5 L 12,13 v 1 l -0.75,0.25 -0.5,-0.5"
         style="fill:#585858;fill-opacity:1" />
      <path
         id="path4152"
         d="m 10,13 0.75,0.25 v 0.5 L 10,14"
         style="fill:#c3c3c3;fill-opacity:1" />
      <path
         id="path4150"
         d="m 9,13 h 1 v 1 H 9"
         style="fill:#c3c3c3;fill-opacity:1" />
      <path
         id="path4148"
         d="m 8,13 h 1 v 1 H 8"
         style="fill:#c3c3c3;fill-opacity:1" />
      <path
         id="path4146"
         d="m 7,13 h 1 v 1 H 7"
         style="fill:#c3c3c3;fill-opacity:1" />
      <path
         id="path4144"
         d="m 6,13 h 1 v 1 H 6"
         style="fill:#c3c3c3;fill-opacity:1" />
      <path
         id="path4142"
         d="M 5.25,13.25 6,13 v 1 L 5.25,13.75"
         style="fill:#c3c3c3;fill-opacity:1" />
      <path
         id="path4140"
         d="m 4,13 0.75,-0.25 0.5,0.5 v 0.5 L 4.75,14.25 4,14"
         style="fill:#585858;fill-opacity:1" />
      <path
         id="path4138"
         d="m 3,13 h 1 v 1 H 3"
         style="fill:#000000;fill-opacity:0" />
      <path
         id="path4136"
         d="m 2,13 h 1 v 1 H 2"
         style="fill:#000000;fill-opacity:0" />
      <path
         id="path4134"
         d="m 1,13 h 1 v 1 H 1"
         style="fill:#000000;fill-opacity:0" />
      <path
         id="path4132"
         d="m 0,13 h 1 v 1 H 0"
         style="fill:#585858;fill-opacity:1" />
      <path
         id="path4130"
         d="m 15,12 h 1 v 1 h -1"
         style="fill:#585858;fill-opacity:1" />
      <path
         id="path4128"
         d="m 14,12 h 1 v 1 h -1"
         style="fill:#000000;fill-opacity:0" />
      <path
         id="path4126"
         d="m 13,12 h 1 v 1 h -1"
         style="fill:#000000;fill-opacity:0" />
      <path
         id="path4124"
         d="m 11.75,12.25 0.5,-0.5 L 13,12 v 1 h -1"
         style="fill:#000000;fill-opacity:0" />
      <path
         id="path4122"
         d="M 11,12 11.75,12.25 12,13 11.25,12.75"
         style="fill:#585858;fill-opacity:1" />
      <path
         id="path4120"
         d="m 10,12 h 1 l 0.25,0.75 -0.5,0.5 L 10,13"
         style="fill:#585858;fill-opacity:1" />
      <path
         id="path4118"
         d="m 9,12 h 1 v 1 H 9"
         style="fill:#585858;fill-opacity:1" />
      <path
         id="path4116"
         d="m 8,12 h 1 v 1 H 8"
         style="fill:#585858;fill-opacity:1" />
      <path
         id="path4114"
         d="m 7,12 h 1 v 1 H 7"
         style="fill:#585858;fill-opacity:1" />
      <path
         id="path4112"
         d="m 6,12 h 1 v 1 H 6"
         style="fill:#585858;fill-opacity:1" />
      <path
         id="path4110"
         d="m 5,12 h 1 v 1 l -0.75,0.25 -0.5,-0.5"
         style="fill:#585858;fill-opacity:1" />
      <path
         id="path4108"
         d="M 4.25,12.25 5,12 4.75,12.75 4,13"
         style="fill:#585858;fill-opacity:1" />
      <path
         id="path4106"
         d="m 3,12 0.75,-0.25 0.5,0.5 L 4,13 H 3"
         style="fill:#000000;fill-opacity:0" />
      <path
         id="path4104"
         d="m 2,12 h 1 v 1 H 2"
         style="fill:#000000;fill-opacity:0" />
      <path
         id="path4102"
         d="m 1,12 h 1 v 1 H 1"
         style="fill:#000000;fill-opacity:0" />
      <path
         id="path4100"
         d="m 0,12 h 1 v 1 H 0"
         style="fill:#585858;fill-opacity:1" />
      <path
         id="path4098"
         d="m 15,11 h 1 v 1 h -1"
         style="fill:#585858;fill-opacity:1" />
      <path
         id="path4096"
         d="m 14,11 h 1 v 1 h -1"
         style="fill:#000000;fill-opacity:0" />
      <path
         id="path4094"
         d="m 13,11 h 1 v 1 h -1"
         style="fill:#000000;fill-opacity:0" />
      <path
         id="path4092"
         d="m 12,11 h 1 v 1 l -0.75,-0.25"
         style="fill:#000000;fill-opacity:0" />
      <path
         id="path4090"
         d="m 11,11 h 1 l 0.25,0.75 -0.5,0.5 L 11,12"
         style="fill:#000000;fill-opacity:0" />
      <path
         id="path4088"
         d="m 10,11 h 1 v 1 h -1"
         style="fill:#000000;fill-opacity:0" />
      <path
         id="path4086"
         d="m 9,11 h 1 v 1 H 9"
         style="fill:#000000;fill-opacity:0" />
      <path
         id="path4084"
         d="m 8,11 h 1 v 1 H 8"
         style="fill:#000000;fill-opacity:0" />
      <path
         id="path4082"
         d="m 7,11 h 1 v 1 H 7"
         style="fill:#000000;fill-opacity:0" />
      <path
         id="path4080"
         d="m 6,11 h 1 v 1 H 6"
         style="fill:#000000;fill-opacity:0" />
      <path
         id="path4078"
         d="m 5,11 h 1 v 1 H 5"
         style="fill:#000000;fill-opacity:0" />
      <path
         id="path4076"
         d="m 4,11 h 1 v 1 l -0.75,0.25 -0.5,-0.5"
         style="fill:#000000;fill-opacity:0" />
      <path
         id="path4074"
         d="M 3,11 H 4 L 3.75,11.75 3,12"
         style="fill:#000000;fill-opacity:0" />
      <path
         id="path4072"
         d="m 2,11 h 1 v 1 H 2"
         style="fill:#000000;fill-opacity:0" />
      <path
         id="path4070"
         d="m 1,11 h 1 v 1 H 1"
         style="fill:#000000;fill-opacity:0" />
      <path
         id="path4068"
         d="m 0,11 h 1 v 1 H 0"
         style="fill:#585858;fill-opacity:1" />
      <path
         id="path4066"
         d="m 15,10 h 1 v 1 h -1"
         style="fill:#585858;fill-opacity:1" />
      <path
         id="path4064"
         d="m 14,10 h 1 v 1 h -1"
         style="fill:#000000;fill-opacity:0" />
      <path
         id="path4062"
         d="m 13,10 h 1 v 1 h -1"
         style="fill:#000000;fill-opacity:0" />
      <path
         id="path4060"
         d="m 12,10 h 1 v 1 h -1"
         style="fill:#000000;fill-opacity:0" />
      <path
         id="path4058"
         d="m 11,10 h 1 v 1 h -1"
         style="fill:#000000;fill-opacity:0" />
      <path
         id="path4056"
         d="m 10,10 h 1 v 1 h -1"
         style="fill:#000000;fill-opacity:0" />
      <path
         id="path4054"
         d="m 9,10 h 1 v 1 H 9"
         style="fill:#000000;fill-opacity:0" />
      <path
         id="path4052"
         d="m 8,10 h 1 v 1 H 8"
         style="fill:#000000;fill-opacity:1" />
      <path
         id="path4050"
         d="m 7,10 h 1 v 1 H 7"
         style="fill:#000000;fill-opacity:1" />
      <path
         id="path4048"
         d="m 6,10 h 1 v 1 H 6"
         style="fill:#000000;fill-opacity:0" />
      <path
         id="path4046"
         d="m 5,10 h 1 v 1 H 5"
         style="fill:#000000;fill-opacity:0" />
      <path
         id="path4044"
         d="m 4,10 h 1 v 1 H 4"
         style="fill:#000000;fill-opacity:0" />
      <path
         id="path4042"
         d="m 3,10 h 1 v 1 H 3"
         style="fill:#000000;fill-opacity:0" />
      <path
         id="path4040"
         d="m 2,10 h 1 v 1 H 2"
         style="fill:#000000;fill-opacity:0" />
      <path
         id="path4038"
         d="m 1,10 h 1 v 1 H 1"
         style="fill:#000000;fill-opacity:0" />
      <path
         id="path4036"
         d="m 0,10 h 1 v 1 H 0"
         style="fill:#585858;fill-opacity:1" />
      <path
         id="path4034"
         d="m 15,9 h 1 v 1 h -1"
         style="fill:#585858;fill-opacity:1" />
      <path
         id="path4032"
         d="m 14,9 h 1 v 1 h -1"
         style="fill:#000000;fill-opacity:0" />
      <path
         id="path4030"
         d="m 13,9 h 1 v 1 h -1"
         style="fill:#000000;fill-opacity:0" />
      <path
         id="path4028"
         d="m 12,9 h 1 v 1 h -1"
         style="fill:#000000;fill-opacity:0" />
      <path
         id="path4026"
         d="m 11,9 h 1 v 1 h -1"
         style="fill:#000000;fill-opacity:0" />
      <path
         id="path4024"
         d="m 10,9 h 1 v 1 h -1"
         style="fill:#000000;fill-opacity:0" />
      <path
         id="path4022"
         d="m 9,9 h 1 v 1 H 9"
         style="fill:#000000;fill-opacity:0" />
      <path
         id="path4020"
         d="m 8,9 h 1 v 1 H 8"
         style="fill:#000000;fill-opacity:1" />
      <path
         id="path4018"
         d="m 7,9 h 1 v 1 H 7"
         style="fill:#000000;fill-opacity:1" />
      <path
         id="path4016"
         d="m 6,9 h 1 v 1 H 6"
         style="fill:#000000;fill-opacity:0" />
      <path
         id="path4014"
         d="m 5,9 h 1 v 1 H 5"
         style="fill:#000000;fill-opacity:0" />
      <path
         id="path4012"
         d="m 4,9 h 1 v 1 H 4"
         style="fill:#000000;fill-opacity:0" />
      <path
         id="path4010"
         d="m 3,9 h 1 v 1 H 3"
         style="fill:#000000;fill-opacity:0" />
      <path
         id="path4008"
         d="m 2,9 h 1 v 1 H 2"
         style="fill:#000000;fill-opacity:0" />
      <path
         id="path4006"
         d="m 1,9 h 1 v 1 H 1"
         style="fill:#000000;fill-opacity:0" />
      <path
         id="path4004"
         d="m 0,9 h 1 v 1 H 0"
         style="fill:#585858;fill-opacity:1" />
      <path
         id="path4002"
         d="m 15,8 h 1 v 1 h -1"
         style="fill:#585858;fill-opacity:1" />
      <path
         id="path4000"
         d="m 14,8 h 1 v 1 h -1"
         style="fill:#000000;fill-opacity:0" />
      <path
         id="path3998"
         d="m 13,8 h 1 v 1 h -1"
         style="fill:#000000;fill-opacity:0" />
      <path
         id="path3996"
         d="m 12,8 h 1 v 1 h -1"
         style="fill:#000000;fill-opacity:0" />
      <path
         id="path3994"
         d="m 11,8 h 1 v 1 h -1"
         style="fill:#000000;fill-opacity:0" />
      <path
         id="path3992"
         d="m 10,8 h 1 v 1 h -1"
         style="fill:#000000;fill-opacity:0" />
      <path
         id="path3990"
         d="m 9,8 h 1 V 9 H 9"
         style="fill:#000000;fill-opacity:0" />
      <path
         id="path3988"
         d="M 8,8 H 9 V 9 H 8"
         style="fill:#000000;fill-opacity:1" />
      <path
         id="path3986"
         d="M 7,8 H 8 V 9 H 7"
         style="fill:#000000;fill-opacity:1" />
      <path
         id="path3984"
         d="M 6,8 H 7 V 9 H 6"
         style="fill:#000000;fill-opacity:0" />
      <path
         id="path3982"
         d="M 5,8 H 6 V 9 H 5"
         style="fill:#000000;fill-opacity:0" />
      <path
         id="path3980"
         d="M 4,8 H 5 V 9 H 4"
         style="fill:#000000;fill-opacity:0" />
      <path
         id="path3978"
         d="M 3,8 H 4 V 9 H 3"
         style="fill:#000000;fill-opacity:0" />
      <path
         id="path3976"
         d="M 2,8 H 3 V 9 H 2"
         style="fill:#000000;fill-opacity:0" />
      <path
         id="path3974"
         d="M 1,8 H 2 V 9 H 1"
         style="fill:#000000;fill-opacity:0" />
      <path
         id="path3972"
         d="M 0,8 H 1 V 9 H 0"
         style="fill:#585858;fill-opacity:1" />
      <path
         id="path3970"
         d="m 15,7 h 1 v 1 h -1"
         style="fill:#585858;fill-opacity:1" />
      <path
         id="path3968"
         d="m 14,7 h 1 v 1 h -1"
         style="fill:#000000;fill-opacity:0" />
      <path
         id="path3966"
         d="m 13,7 h 1 v 1 h -1"
         style="fill:#000000;fill-opacity:0" />
      <path
         id="path3964"
         d="m 12,7 h 1 v 1 h -1"
         style="fill:#000000;fill-opacity:0" />
      <path
         id="path3962"
         d="m 11,7 h 1 v 1 h -1"
         style="fill:#000000;fill-opacity:0" />
      <path
         id="path3960"
         d="m 10,7 h 1 v 1 h -1"
         style="fill:#000000;fill-opacity:0" />
      <path
         id="path3958"
         d="m 9,7 h 1 V 8 H 9"
         style="fill:#000000;fill-opacity:0" />
      <path
         id="path3956"
         d="M 8,7 H 9 V 8 H 8"
         style="fill:#000000;fill-opacity:1" />
      <path
         id="path3954"
         d="M 7,7 H 8 V 8 H 7"
         style="fill:#000000;fill-opacity:1" />
      <path
         id="path3952"
         d="M 6,7 H 7 V 8 H 6"
         style="fill:#000000;fill-opacity:0" />
      <path
         id="path3950"
         d="M 5,7 H 6 V 8 H 5"
         style="fill:#000000;fill-opacity:0" />
      <path
         id="path3948"
         d="M 4,7 H 5 V 8 H 4"
         style="fill:#000000;fill-opacity:0" />
      <path
         id="path3946"
         d="M 3,7 H 4 V 8 H 3"
         style="fill:#000000;fill-opacity:0" />
      <path
         id="path3944"
         d="M 2,7 H 3 V 8 H 2"
         style="fill:#000000;fill-opacity:0" />
      <path
         id="path3942"
         d="M 1,7 H 2 V 8 H 1"
         style="fill:#000000;fill-opacity:0" />
      <path
         id="path3940"
         d="M 0,7 H 1 V 8 H 0"
         style="fill:#585858;fill-opacity:1" />
      <path
         id="path3938"
         d="m 15,6 h 1 v 1 h -1"
         style="fill:#585858;fill-opacity:1" />
      <path
         id="path3936"
         d="m 14,6 h 1 v 1 h -1"
         style="fill:#000000;fill-opacity:0" />
      <path
         id="path3934"
         d="m 13,6 h 1 v 1 h -1"
         style="fill:#000000;fill-opacity:0" />
      <path
         id="path3932"
         d="m 12,6 h 1 v 1 h -1"
         style="fill:#000000;fill-opacity:0" />
      <path
         id="path3930"
         d="m 11,6 h 1 v 1 h -1"
         style="fill:#000000;fill-opacity:0" />
      <path
         id="path3928"
         d="m 10,6 h 1 v 1 h -1"
         style="fill:#000000;fill-opacity:0" />
      <path
         id="path3926"
         d="m 9,6 h 1 V 7 H 9"
         style="fill:#000000;fill-opacity:0" />
      <path
         id="path3924"
         d="M 8,6 H 9 V 7 H 8"
         style="fill:#000000;fill-opacity:1" />
      <path
         id="path3922"
         d="M 7,6 H 8 V 7 H 7"
         style="fill:#000000;fill-opacity:1" />
      <path
         id="path3920"
         d="M 6,6 H 7 V 7 H 6"
         style="fill:#000000;fill-opacity:0" />
      <path
         id="path3918"
         d="M 5,6 H 6 V 7 H 5"
         style="fill:#000000;fill-opacity:0" />
      <path
         id="path3916"
         d="M 4,6 H 5 V 7 H 4"
         style="fill:#000000;fill-opacity:0" />
      <path
         id="path3914"
         d="M 3,6 H 4 V 7 H 3"
         style="fill:#000000;fill-opacity:0" />
      <path
         id="path3912"
         d="M 2,6 H 3 V 7 H 2"
         style="fill:#000000;fill-opacity:0" />
      <path
         id="path3910"
         d="M 1,6 H 2 V 7 H 1"
         style="fill:#000000;fill-opacity:0" />
      <path
         id="path3908"
         d="M 0,6 H 1 V 7 H 0"
         style="fill:#585858;fill-opacity:1" />
      <path
         id="path3906"
         d="m 15,5 h 1 v 1 h -1"
         style="fill:#585858;fill-opacity:1" />
      <path
         id="path3904"
         d="m 14,5 h 1 v 1 h -1"
         style="fill:#000000;fill-opacity:0" />
      <path
         id="path3902"
         d="m 13,5 h 1 v 1 h -1"
         style="fill:#000000;fill-opacity:0" />
      <path
         id="path3900"
         d="m 12,5 h 1 v 1 h -1"
         style="fill:#000000;fill-opacity:0" />
      <path
         id="path3898"
         d="m 11,5 h 1 v 1 h -1"
         style="fill:#000000;fill-opacity:0" />
      <path
         id="path3896"
         d="m 10,5 h 1 v 1 h -1"
         style="fill:#000000;fill-opacity:0" />
      <path
         id="path3894"
         d="m 9,5 h 1 V 6 H 9"
         style="fill:#000000;fill-opacity:0" />
      <path
         id="path3892"
         d="M 8,5 H 9 V 6 H 8"
         style="fill:#000000;fill-opacity:1" />
      <path
         id="path3890"
         d="M 7,5 H 8 V 6 H 7"
         style="fill:#000000;fill-opacity:1" />
      <path
         id="path3888"
         d="M 6,5 H 7 V 6 H 6"
         style="fill:#000000;fill-opacity:0" />
      <path
         id="path3886"
         d="M 5,5 H 6 V 6 H 5"
         style="fill:#000000;fill-opacity:0" />
      <path
         id="path3884"
         d="M 4,5 H 5 V 6 H 4"
         style="fill:#000000;fill-opacity:0" />
      <path
         id="path3882"
         d="M 3,5 H 4 V 6 H 3"
         style="fill:#000000;fill-opacity:0" />
      <path
         id="path3880"
         d="M 2,5 H 3 V 6 H 2"
         style="fill:#000000;fill-opacity:0" />
      <path
         id="path3878"
         d="M 1,5 H 2 V 6 H 1"
         style="fill:#000000;fill-opacity:0" />
      <path
         id="path3876"
         d="M 0,5 H 1 V 6 H 0"
         style="fill:#585858;fill-opacity:1" />
      <path
         id="path3874"
         d="m 15,4 h 1 v 1 h -1"
         style="fill:#585858;fill-opacity:1" />
      <path
         id="path3872"
         d="m 14,4 h 1 v 1 h -1"
         style="fill:#000000;fill-opacity:0" />
      <path
         id="path3870"
         d="m 13,4 h 1 v 1 h -1"
         style="fill:#000000;fill-opacity:0" />
      <path
         id="path3868"
         d="m 12,4 h 1 v 1 h -1"
         style="fill:#000000;fill-opacity:0" />
      <path
         id="path3866"
         d="m 11,4 h 1 v 1 h -1"
         style="fill:#000000;fill-opacity:0" />
      <path
         id="path3864"
         d="m 10,4 h 1 v 1 h -1"
         style="fill:#000000;fill-opacity:1" />
      <path
         id="path3862"
         d="m 9,4 h 1 V 5 H 9"
         style="fill:#000000;fill-opacity:1" />
      <path
         id="path3860"
         d="M 8,4 H 9 V 5 H 8"
         style="fill:#000000;fill-opacity:1" />
      <path
         id="path3858"
         d="M 7,4 H 8 V 5 H 7"
         style="fill:#000000;fill-opacity:1" />
      <path
         id="path3856"
         d="M 6,4 H 7 V 5 H 6"
         style="fill:#000000;fill-opacity:1" />
      <path
         id="path3854"
         d="M 5,4 H 6 V 5 H 5"
         style="fill:#000000;fill-opacity:1" />
      <path
         id="path3852"
         d="M 4,4 H 5 V 5 H 4"
         style="fill:#000000;fill-opacity:0" />
      <path
         id="path3850"
         d="M 3,4 H 4 V 5 H 3"
         style="fill:#000000;fill-opacity:0" />
      <path
         id="path3848"
         d="M 2,4 H 3 V 5 H 2"
         style="fill:#000000;fill-opacity:0" />
      <path
         id="path3846"
         d="M 1,4 H 2 V 5 H 1"
         style="fill:#000000;fill-opacity:0" />
      <path
         id="path3844"
         d="M 0,4 H 1 V 5 H 0"
         style="fill:#585858;fill-opacity:1" />
      <path
         id="path3842"
         d="m 15,3 h 1 v 1 h -1"
         style="fill:#585858;fill-opacity:1" />
      <path
         id="path3840"
         d="m 14,3 h 1 v 1 h -1"
         style="fill:#000000;fill-opacity:0" />
      <path
         id="path3838"
         d="m 13,3 h 1 v 1 h -1"
         style="fill:#000000;fill-opacity:0" />
      <path
         id="path3836"
         d="m 12,3 h 1 v 1 h -1"
         style="fill:#000000;fill-opacity:0" />
      <path
         id="path3834"
         d="m 11,3 h 1 v 1 h -1"
         style="fill:#000000;fill-opacity:0" />
      <path
         id="path3832"
         d="m 10,3 h 1 v 1 h -1"
         style="fill:#000000;fill-opacity:1" />
      <path
         id="path3830"
         d="m 9,3 h 1 V 4 H 9"
         style="fill:#000000;fill-opacity:1" />
      <path
         id="path3828"
         d="M 8,3 H 9 V 4 H 8"
         style="fill:#000000;fill-opacity:1" />
      <path
         id="path3826"
         d="M 7,3 H 8 V 4 H 7"
         style="fill:#000000;fill-opacity:1" />
      <path
         id="path3824"
         d="M 6,3 H 7 V 4 H 6"
         style="fill:#000000;fill-opacity:1" />
      <path
         id="path3822"
         d="M 5,3 H 6 V 4 H 5"
         style="fill:#000000;fill-opacity:1" />
      <path
         id="path3820"
         d="M 4,3 H 5 V 4 H 4"
         style="fill:#000000;fill-opacity:0" />
      <path
         id="path3818"
         d="M 3,3 H 4 V 4 H 3"
         style="fill:#000000;fill-opacity:0" />
      <path
         id="path3816"
         d="M 2,3 H 3 V 4 H 2"
         style="fill:#000000;fill-opacity:0" />
      <path
         id="path3814"
         d="M 1,3 H 2 V 4 H 1"
         style="fill:#000000;fill-opacity:0" />
      <path
         id="path3812"
         d="M 0,3 H 1 V 4 H 0"
         style="fill:#585858;fill-opacity:1" />
      <path
         id="path3810"
         d="m 15,2 h 1 v 1 h -1"
         style="fill:#585858;fill-opacity:1" />
      <path
         id="path3808"
         d="m 14,2 h 1 v 1 h -1"
         style="fill:#000000;fill-opacity:0" />
      <path
         id="path3806"
         d="m 13,2 h 1 v 1 h -1"
         style="fill:#000000;fill-opacity:0" />
      <path
         id="path3804"
         d="m 12,2 h 1 v 1 h -1"
         style="fill:#000000;fill-opacity:0" />
      <path
         id="path3802"
         d="m 11,2 h 1 v 1 h -1"
         style="fill:#000000;fill-opacity:0" />
      <path
         id="path3800"
         d="m 10,2 h 1 v 1 h -1"
         style="fill:#000000;fill-opacity:0" />
      <path
         id="path3798"
         d="m 9,2 h 1 V 3 H 9"
         style="fill:#000000;fill-opacity:0" />
      <path
         id="path3796"
         d="M 8,2 H 9 V 3 H 8"
         style="fill:#000000;fill-opacity:1" />
      <path
         id="path3794"
         d="M 7,2 H 8 V 3 H 7"
         style="fill:#000000;fill-opacity:1" />
      <path
         id="path3792"
         d="M 6,2 H 7 V 3 H 6"
         style="fill:#000000;fill-opacity:1" />
      <path
         id="path3790"
         d="M 5,2 H 6 V 3 H 5"
         style="fill:#000000;fill-opacity:1" />
      <path
         id="path3788"
         d="M 4,2 H 5 V 3 H 4"
         style="fill:#000000;fill-opacity:0" />
      <path
         id="path3786"
         d="M 3,2 H 4 V 3 H 3"
         style="fill:#000000;fill-opacity:0" />
      <path
         id="path3784"
         d="M 2,2 H 3 V 3 H 2"
         style="fill:#000000;fill-opacity:0" />
      <path
         id="path3782"
         d="M 1,2 H 2 V 3 H 1"
         style="fill:#000000;fill-opacity:0" />
      <path
         id="path3780"
         d="M 0,2 H 1 V 3 H 0"
         style="fill:#585858;fill-opacity:1" />
      <path
         id="path3778"
         d="M 14.75,1.25 15.25,0.75 16,1 v 1 h -1"
         style="fill:#585858;fill-opacity:1" />
      <path
         id="path3776"
         d="M 14,1 14.75,1.25 15,2 h -1"
         style="fill:#000000;fill-opacity:0" />
      <path
         id="path3774"
         d="m 13,1 h 1 v 1 h -1"
         style="fill:#000000;fill-opacity:0" />
      <path
         id="path3772"
         d="m 12,1 h 1 v 1 h -1"
         style="fill:#000000;fill-opacity:0" />
      <path
         id="path3770"
         d="m 11,1 h 1 v 1 h -1"
         style="fill:#000000;fill-opacity:0" />
      <path
         id="path3768"
         d="m 10,1 h 1 v 1 h -1"
         style="fill:#000000;fill-opacity:0" />
      <path
         id="path3766"
         d="m 9,1 h 1 V 2 H 9"
         style="fill:#000000;fill-opacity:0" />
      <path
         id="path3764"
         d="M 8,1 H 9 V 2 H 8"
         style="fill:#000000;fill-opacity:0" />
      <path
         id="path3762"
         d="M 7,1 H 8 V 2 H 7"
         style="fill:#000000;fill-opacity:0" />
      <path
         id="path3760"
         d="M 6,1 H 7 V 2 H 6"
         style="fill:#000000;fill-opacity:0" />
      <path
         id="path3758"
         d="M 5,1 H 6 V 2 H 5"
         style="fill:#000000;fill-opacity:0" />
      <path
         id="path3756"
         d="M 4,1 H 5 V 2 H 4"
         style="fill:#000000;fill-opacity:0" />
      <path
         id="path3754"
         d="M 3,1 H 4 V 2 H 3"
         style="fill:#000000;fill-opacity:0" />
      <path
         id="path3752"
         d="M 2,1 H 3 V 2 H 2"
         style="fill:#000000;fill-opacity:0" />
      <path
         id="path3750"
         d="M 1.25,1.25 2,1 V 2 H 1"
         style="fill:#000000;fill-opacity:0" />
      <path
         id="path3748"
         d="M 0,1 0.75,0.75 1.25,1.25 1,2 H 0"
         style="fill:#585858;fill-opacity:1" />
      <path
         id="path3746"
         d="m 15,0 h 1 V 1 L 15.25,0.75"
         style="fill:#585858;fill-opacity:1" />
      <path
         id="path3744"
         d="m 14,0 h 1 l 0.25,0.75 -0.5,0.5 L 14,1"
         style="fill:#585858;fill-opacity:1" />
      <path
         id="path3742"
         d="m 13,0 h 1 v 1 h -1"
         style="fill:#585858;fill-opacity:1" />
      <path
         id="path3740"
         d="m 12,0 h 1 v 1 h -1"
         style="fill:#585858;fill-opacity:1" />
      <path
         id="path3738"
         d="m 11,0 h 1 v 1 h -1"
         style="fill:#585858;fill-opacity:1" />
      <path
         id="path3736"
         d="m 10,0 h 1 v 1 h -1"
         style="fill:#585858;fill-opacity:1" />
      <path
         id="path3734"
         d="m 9,0 h 1 V 1 H 9"
         style="fill:#585858;fill-opacity:1" />
      <path
         id="path3732"
         d="M 8,0 H 9 V 1 H 8"
         style="fill:#585858;fill-opacity:1" />
      <path
         id="path3730"
         d="M 7,0 H 8 V 1 H 7"
         style="fill:#585858;fill-opacity:1" />
      <path
         id="path3728"
         d="M 6,0 H 7 V 1 H 6"
         style="fill:#585858;fill-opacity:1" />
      <path
         id="path3726"
         d="M 5,0 H 6 V 1 H 5"
         style="fill:#585858;fill-opacity:1" />
      <path
         id="path3724"
         d="M 4,0 H 5 V 1 H 4"
         style="fill:#585858;fill-opacity:1" />
      <path
         id="path3722"
         d="M 3,0 H 4 V 1 H 3"
         style="fill:#585858;fill-opacity:1" />
      <path
         id="path3720"
         d="M 2,0 H 3 V 1 H 2"
         style="fill:#585858;fill-opacity:1" />
      <path
         id="path3718"
         d="M 1,0 H 2 V 1 L 1.25,1.25 0.75,0.75"
         style="fill:#585858;fill-opacity:1" />
      <path
         id="path3716"
         d="M 0,0 H 1 L 0.75,0.75 0,1"
         style="fill:#585858;fill-opacity:1" />
    </g>
  </g>
</svg>
