<?xml version="1.0" encoding="UTF-8"?>
<svg width="16" height="16" version="1.1" viewBox="0 0 16 16" xmlns="http://www.w3.org/2000/svg" xmlns:cc="http://creativecommons.org/ns#" xmlns:dc="http://purl.org/dc/elements/1.1/" xmlns:rdf="http://www.w3.org/1999/02/22-rdf-syntax-ns#">
 <metadata>
  <rdf:RDF>
   <cc:Work rdf:about="">
    <dc:format>image/svg+xml</dc:format>
    <dc:type rdf:resource="http://purl.org/dc/dcmitype/StillImage"/>
    <dc:title/>
   </cc:Work>
  </rdf:RDF>
 </metadata>
 <path d="m0 8v-8h16v16h-16zm15 0v-7h-14v14h14zm-8 4.5795v-1.5167l-1.4779 1.2686-1.8693 0.01586 0.030215-2.1962 1.2046-1.0218-1.6244 0.2575-0.7632-1.3867 0.72405-1.2301 1.6636 0.1009-1.3221-1.335 0.087228-1.883 1.9222-0.048081 1.2958 1.2829-0.061757-1.781 1.191-0.60661 1.191 0.6849-0.061757 1.7027 1.4916-1.2829 1.7264 0.048081 0.16552 1.6481-1.4004 1.5699 1.7027-0.14005 0.6849 1.2693-0.6849 1.191-1.7027-0.06176 1.2046 1.609 0.03021 1.609-1.8302 0.06244-1.517-1.3469v1.595l-0.50892 0.3814-0.41278 0.27403-0.53023-0.27403zm2-4.5795v-1h-2v2h2z"/>
</svg>
