<?xml version="1.0" encoding="UTF-8"?>
<svg width="16" height="16" version="1.1" viewBox="0 0 16 16" xmlns="http://www.w3.org/2000/svg" xmlns:cc="http://creativecommons.org/ns#" xmlns:dc="http://purl.org/dc/elements/1.1/" xmlns:rdf="http://www.w3.org/1999/02/22-rdf-syntax-ns#">
 <metadata>
  <rdf:RDF>
   <cc:Work rdf:about="">
    <dc:format>image/svg+xml</dc:format>
    <dc:type rdf:resource="http://purl.org/dc/dcmitype/StillImage"/>
    <dc:title/>
   </cc:Work>
  </rdf:RDF>
 </metadata>
 <g>
  <g>
   <path d="m15.25 15.25 0.75-0.25v1h-1"/>
   <path d="m14 15 0.75-0.25 0.5 0.5-0.25 0.75h-1"/>
   <path d="m13 15h1v1h-1"/>
   <path d="m12 15h1v1h-1"/>
   <path d="m10.75 15.25 0.5-0.5 0.75 0.25v1h-1"/>
   <path d="m10 15 0.75 0.25 0.25 0.75h-1"/>
  </g>
  <g fill="#585858">
   <path d="m9 15h1v1h-1"/>
   <path d="m8 15h1v1h-1"/>
   <path d="m7 15h1v1h-1"/>
   <path d="m6 15h1v1h-1"/>
  </g>
  <g>
   <path d="M 5.25,15.25 6,15 v 1 H 5"/>
   <path d="m4 15 0.75-0.25 0.5 0.5-0.25 0.75h-1"/>
   <path d="m3 15h1v1h-1"/>
   <path d="m2 15h1v1h-1"/>
   <path d="m0.75 15.25 0.5-0.5 0.75 0.25v1h-1"/>
   <path d="M 0,15 0.75,15.25 1,16 H 0"/>
   <path d="m15 14h1v1l-0.75 0.25-0.5-0.5"/>
  </g>
  <g fill="#fff">
   <path d="m14 14h1l-0.25 0.75-0.75 0.25"/>
   <path d="m13 14h1v1h-1"/>
   <path d="m12 14h1v1h-1"/>
   <path d="m11 14h1v1l-0.75-0.25"/>
  </g>
  <path d="m9.75 14.25 0.5-0.5 0.75 0.25 0.25 0.75-0.5 0.5-0.75-0.25"/>
  <g fill="#c3c3c3">
   <path d="M 9,14 9.75,14.25 10,15 H 9"/>
   <path d="m8 14h1v1h-1"/>
   <path d="m7 14h1v1h-1"/>
   <path d="M 6.25,14.25 7,14 v 1 H 6"/>
  </g>
  <path d="m5 14 0.75-0.25 0.5 0.5-0.25 0.75-0.75 0.25-0.5-0.5"/>
  <g fill="#fff">
   <path d="m4 14h1l-0.25 0.75-0.75 0.25"/>
   <path d="m3 14h1v1h-1"/>
   <path d="m2 14h1v1h-1"/>
   <path d="m1 14h1v1l-0.75-0.25"/>
  </g>
  <path d="m0 14h1l0.25 0.75-0.5 0.5-0.75-0.25"/>
  <path d="m15 13h1v1h-1"/>
  <g fill="#fff">
   <path d="m14 13h1v1h-1"/>
   <path d="m13 13h1v1h-1"/>
   <path d="m12 13h1v1h-1"/>
   <path d="m10.75 13.25 0.5-0.5 0.75 0.25v1h-1"/>
  </g>
  <g>
   <path d="m10 13 0.75 0.25 0.25 0.75-0.75-0.25"/>
   <path d="m9 13h1l0.25 0.75-0.5 0.5-0.75-0.25"/>
   <path d="m8 13h1v1h-1"/>
   <path d="m7 13h1v1h-1"/>
   <path d="m6 13h1v1l-0.75 0.25-0.5-0.5"/>
   <path d="M 5.25,13.25 6,13 5.75,13.75 5,14"/>
  </g>
  <g fill="#fff">
   <path d="m4 13 0.75-0.25 0.5 0.5-0.25 0.75h-1"/>
   <path d="m3 13h1v1h-1"/>
   <path d="m2 13h1v1h-1"/>
   <path d="m1 13h1v1h-1"/>
  </g>
  <path d="m0 13h1v1h-1"/>
  <path d="m15 12h1v1h-1"/>
  <g fill="#fff">
   <path d="m14 12h1v1h-1"/>
   <path d="m13 12h1v1h-1"/>
   <path d="m12 12h1v1h-1"/>
   <path d="m11 12h1v1l-0.75-0.25"/>
   <path d="m10 12h1l0.25 0.75-0.5 0.5-0.75-0.25"/>
   <path d="m9.25 12.25 0.75-0.25v1h-1"/>
   <path d="m8 12 0.75-0.25 0.5 0.5-0.25 0.75h-1"/>
   <path d="m6.75 12.25 0.5-0.5 0.75 0.25v1h-1"/>
   <path d="M 6,12 6.75,12.25 7,13 H 6"/>
   <path d="m5 12h1v1l-0.75 0.25-0.5-0.5"/>
   <path d="m4 12h1l-0.25 0.75-0.75 0.25"/>
   <path d="m3 12h1v1h-1"/>
   <path d="m2 12h1v1h-1"/>
   <path d="m1 12h1v1h-1"/>
  </g>
  <path d="m0 12h1v1h-1"/>
  <path d="m15 11h1v1h-1"/>
  <g fill="#fff">
   <path d="m14 11h1v1h-1"/>
   <path d="m13 11h1v1h-1"/>
   <path d="m12.25 11.25 0.75-0.25v1h-1"/>
   <path d="m11 11 0.75-0.25 0.5 0.5-0.25 0.75h-1"/>
   <path d="m9.75 11.25 0.5-0.5 0.75 0.25v1h-1"/>
   <path d="m9 11 0.75 0.25 0.25 0.75-0.75 0.25-0.5-0.5"/>
  </g>
  <path d="m8 11h1l-0.25 0.75-0.75 0.25"/>
  <path d="m7 11h1v1l-0.75-0.25"/>
  <g fill="#fff">
   <path d="M 6.25,11.25 7,11 7.25,11.75 6.75,12.25 6,12"/>
   <path d="m5 11 0.75-0.25 0.5 0.5-0.25 0.75h-1"/>
   <path d="m3.75 11.25 0.5-0.5 0.75 0.25v1h-1"/>
   <path d="M 3,11 3.75,11.25 4,12 H 3"/>
   <path d="m2 11h1v1h-1"/>
   <path d="m1 11h1v1h-1"/>
  </g>
  <path d="m0 11h1v1h-1"/>
  <path d="m15 10h1v1h-1"/>
  <g fill="#fff">
   <path d="m14 10h1v1h-1"/>
   <path d="m13 10h1v1h-1"/>
   <path d="m12 10h1v1l-0.75 0.25-0.5-0.5"/>
  </g>
  <path d="m11 10h1l-0.25 0.75-0.75 0.25"/>
  <path d="m9.75 10.25 0.5-0.5 0.75 0.25v1l-0.75-0.25"/>
  <path d="m9.25 10.25h0.5l0.5 0.5-0.5 0.5-0.75-0.25" fill="#fff"/>
  <path d="m8 10 0.75-0.25 0.5 0.5-0.25 0.75h-1"/>
  <path d="m6.75 10.25 0.5-0.5 0.75 0.25v1h-1"/>
  <path d="m6.25 10.25h0.5l0.25 0.75-0.75 0.25-0.5-0.5" fill="#fff"/>
  <path d="m5 10 0.75-0.25 0.5 0.5-0.5 0.5-0.75 0.25"/>
  <path d="m4 10h1v1l-0.75-0.25"/>
  <g fill="#fff">
   <path d="m3 10h1l0.25 0.75-0.5 0.5-0.75-0.25"/>
   <path d="m2 10h1v1h-1"/>
   <path d="m1 10h1v1h-1"/>
  </g>
  <path d="m0 10h1v1h-1"/>
  <path d="m15 9h1v1h-1"/>
  <g fill="#fff">
   <path d="m14 9h1v1h-1"/>
   <path d="m13 9h1v1h-1"/>
   <path d="m11.75 9.25 0.5-0.5 0.75 0.25v1h-1"/>
  </g>
  <g>
   <path d="m10.75 9.25 0.5-0.5 0.5 0.5 0.25 0.75h-1"/>
   <path d="M 10,9 10.75,9.25 11,10 10.25,9.75"/>
   <path d="m9 9h1l0.25 0.75-0.5 0.5h-0.5l-0.5-0.5"/>
   <path d="M 8,9 H 9 L 8.75,9.75 8,10"/>
   <path d="m7 9h1v1l-0.75-0.25"/>
   <path d="m6 9h1l0.25 0.75-0.5 0.5h-0.5l-0.5-0.5"/>
   <path d="M 5.25,9.25 6,9 5.75,9.75 5,10"/>
   <path d="m4.25 9.25 0.5-0.5 0.5 0.5-0.25 0.75h-1"/>
  </g>
  <g fill="#fff">
   <path d="M 3,9 3.75,8.75 4.25,9.25 4,10 H 3"/>
   <path d="m2 9h1v1h-1"/>
   <path d="m1 9h1v1h-1"/>
  </g>
  <path d="m0 9h1v1h-1"/>
  <path d="m15 8h1v1h-1"/>
  <g fill="#fff">
   <path d="m14 8h1v1h-1"/>
   <path d="m13.25 8.25 0.75-0.25v1h-1"/>
   <path d="m12 8 0.75-0.25 0.5 0.5-0.25 0.75-0.75-0.25"/>
   <path d="m11.25 8.25 0.75-0.25 0.25 0.75-0.5 0.5-0.5-0.5"/>
  </g>
  <g>
   <path d="m10 8 0.75-0.25 0.5 0.5v0.5l-0.5 0.5-0.75-0.25"/>
   <path d="M 9.25,8.25 10,8 V 9 H 9"/>
   <path d="M 8,8 8.75,7.75 9.25,8.25 9,9 H 8"/>
   <path d="m6.75 8.25 0.5-0.5 0.75 0.25v1h-1"/>
   <path d="M 6,8 6.75,8.25 7,9 H 6"/>
   <path d="m4.75 8.25 0.5-0.5 0.75 0.25v1l-0.75 0.25-0.5-0.5"/>
  </g>
  <g fill="#fff">
   <path d="m4 8 0.75 0.25v0.5l-0.5 0.5-0.5-0.5"/>
   <path d="M 2.75,8.25 3.25,7.75 4,8 3.75,8.75 3,9"/>
   <path d="M 2,8 2.75,8.25 3,9 H 2"/>
   <path d="m1 8h1v1h-1"/>
  </g>
  <path d="m0 8h1v1h-1"/>
  <path d="m15 7h1v1h-1"/>
  <path d="m14 7h1v1h-1" fill="#fff"/>
  <path d="m13 7h1v1l-0.75 0.25-0.5-0.5" fill="#fff"/>
  <g>
   <path d="m12 7h1l-0.25 0.75-0.75 0.25"/>
   <path d="m11 7h1v1l-0.75 0.25-0.5-0.5"/>
   <path d="m10 7h1l-0.25 0.75-0.75 0.25"/>
   <path d="m9 7h1v1l-0.75 0.25-0.5-0.5"/>
  </g>
  <path d="M 8,7 H 9 L 8.75,7.75 8,8" fill="#fff"/>
  <path d="m7 7h1v1l-0.75-0.25" fill="#fff"/>
  <g>
   <path d="m6 7h1l0.25 0.75-0.5 0.5-0.75-0.25"/>
   <path d="m5 7h1v1l-0.75-0.25"/>
   <path d="m4 7h1l0.25 0.75-0.5 0.5-0.75-0.25"/>
   <path d="m3 7h1v1l-0.75-0.25"/>
  </g>
  <path d="m2 7h1l0.25 0.75-0.5 0.5-0.75-0.25" fill="#fff"/>
  <path d="m1 7h1v1h-1" fill="#fff"/>
  <path d="m0 7h1v1h-1"/>
  <path d="m15 6h1v1h-1"/>
  <path d="m14 6h1v1h-1" fill="#fff"/>
  <path d="m12.75 6.25 0.5-0.5 0.75 0.25v1h-1" fill="#fff"/>
  <g>
   <path d="M 12,6 12.75,6.25 13,7 h -1"/>
   <path d="m10.75 6.25 0.5-0.5 0.75 0.25v1h-1"/>
   <path d="M 10,6 10.75,6.25 11,7 h -1"/>
   <path d="m8.75 6.25 0.5-0.5 0.75 0.25v1h-1"/>
  </g>
  <path d="M 8,6 8.75,6.25 9,7 H 8" fill="#fff"/>
  <path d="M 7.25,6.25 8,6 V 7 H 7" fill="#fff"/>
  <g>
   <path d="M 6,6 6.75,5.75 7.25,6.25 7,7 H 6"/>
   <path d="M 5.25,6.25 6,6 V 7 H 5"/>
   <path d="M 4,6 4.75,5.75 5.25,6.25 5,7 H 4"/>
   <path d="M 3.25,6.25 4,6 V 7 H 3"/>
  </g>
  <path d="M 2,6 2.75,5.75 3.25,6.25 3,7 H 2" fill="#fff"/>
  <path d="m1 6h1v1h-1" fill="#fff"/>
  <path d="m0 6h1v1h-1"/>
  <path d="m15 5h1v1h-1"/>
  <g fill="#fff">
   <path d="m14 5h1v1h-1"/>
   <path d="m13 5h1v1l-0.75-0.25"/>
   <path d="M 12.25,5.25 13,5 13.25,5.75 12.75,6.25 12,6"/>
   <path d="m11.25 5.25 0.5-0.5 0.5 0.5-0.25 0.75-0.75-0.25"/>
  </g>
  <g>
   <path d="m10 5 0.75-0.25 0.5 0.5v0.5l-0.5 0.5-0.75-0.25"/>
   <path d="m9 5h1v1l-0.75-0.25"/>
   <path d="m8 5h1l0.25 0.75-0.5 0.5-0.75-0.25"/>
   <path d="m7 5h1v1l-0.75 0.25-0.5-0.5"/>
   <path d="M 6,5 H 7 L 6.75,5.75 6,6"/>
   <path d="m4.75 5.25 0.5-0.5 0.75 0.25v1l-0.75 0.25-0.5-0.5"/>
  </g>
  <g fill="#fff">
   <path d="m 3.75,5.25 0.5,-0.5 0.5,0.5 v 0.5 L 4,6"/>
   <path d="M 3,5 3.75,5.25 4,6 3.25,6.25 2.75,5.75"/>
   <path d="M 2,5 H 3 L 2.75,5.75 2,6"/>
   <path d="m1 5h1v1h-1"/>
  </g>
  <path d="m0 5h1v1h-1"/>
  <path d="m15 4h1v1h-1"/>
  <g fill="#fff">
   <path d="m14 4h1v1h-1"/>
   <path d="m13 4h1v1h-1"/>
   <path d="m12 4h1v1l-0.75 0.25-0.5-0.5"/>
  </g>
  <g>
   <path d="m11 4h1l-0.25 0.75-0.5 0.5-0.5-0.5"/>
   <path d="M 10.25,4.25 11,4 10.75,4.75 10,5"/>
   <path d="m8.75 4.25 0.5-0.5h0.5l0.5 0.5-0.25 0.75h-1"/>
   <path d="M 8,4 8.75,4.25 9,5 H 8"/>
   <path d="M 7.25,4.25 8,4 V 5 H 7"/>
   <path d="m5.75 4.25 0.5-0.5h0.5l0.5 0.5-0.25 0.75h-1"/>
   <path d="M 5,4 5.75,4.25 6,5 5.25,4.75"/>
   <path d="m4 4h1l0.25 0.75-0.5 0.5-0.5-0.5"/>
  </g>
  <g fill="#fff">
   <path d="m3 4h1l0.25 0.75-0.5 0.5-0.75-0.25"/>
   <path d="m2 4h1v1h-1"/>
   <path d="m1 4h1v1h-1"/>
  </g>
  <path d="m0 4h1v1h-1"/>
  <path d="m15 3h1v1h-1"/>
  <g fill="#fff">
   <path d="m14 3h1v1h-1"/>
   <path d="m13 3h1v1h-1"/>
   <path d="m11.75 3.25 0.5-0.5 0.75 0.25v1h-1"/>
  </g>
  <path d="M 11,3 11.75,3.25 12,4 h -1"/>
  <path d="m10.25 3.25 0.75-0.25v1l-0.75 0.25-0.5-0.5"/>
  <path d="m9 3 0.75-0.25 0.5 0.5-0.5 0.5h-0.5" fill="#fff"/>
  <path d="m8 3h1l0.25 0.75-0.5 0.5-0.75-0.25"/>
  <path d="m7 3h1v1l-0.75 0.25-0.5-0.5"/>
  <path d="M 5.75,3.25 6.25,2.75 7,3 6.75,3.75 h -0.5" fill="#fff"/>
  <path d="m 5,3 0.75,0.25 0.5,0.5 -0.5,0.5 L 5,4"/>
  <path d="M 4.25,3.25 5,3 V 4 H 4"/>
  <g fill="#fff">
   <path d="M 3,3 3.75,2.75 4.25,3.25 4,4 H 3"/>
   <path d="m2 3h1v1h-1"/>
   <path d="m1 3h1v1h-1"/>
  </g>
  <path d="m0 3h1v1h-1"/>
  <path d="m15 2h1v1h-1"/>
  <g fill="#fff">
   <path d="m14 2h1v1h-1"/>
   <path d="m13 2h1v1h-1"/>
   <path d="m12 2h1v1l-0.75-0.25"/>
   <path d="m11 2h1l0.25 0.75-0.5 0.5-0.75-0.25"/>
   <path d="m10 2h1v1l-0.75 0.25-0.5-0.5"/>
   <path d="M 8.75,2.25 9.25,1.75 10,2 9.75,2.75 9,3"/>
  </g>
  <path d="M 8,2 8.75,2.25 9,3 H 8"/>
  <path d="M 7.25,2.25 8,2 V 3 H 7"/>
  <g fill="#fff">
   <path d="M 6,2 6.75,1.75 7.25,2.25 7,3 6.25,2.75"/>
   <path d="m5 2h1l0.25 0.75-0.5 0.5-0.75-0.25"/>
   <path d="m4 2h1v1l-0.75 0.25-0.5-0.5"/>
   <path d="M 3,2 H 4 L 3.75,2.75 3,3"/>
   <path d="m2 2h1v1h-1"/>
   <path d="m1 2h1v1h-1"/>
  </g>
  <path d="m0 2h1v1h-1"/>
  <path d="m14.75 1.25 0.5-0.5 0.75 0.25v1h-1"/>
  <g fill="#fff">
   <path d="M 14,1 14.75,1.25 15,2 h -1"/>
   <path d="m13 1h1v1h-1"/>
   <path d="m12 1h1v1h-1"/>
   <path d="m11 1h1v1h-1"/>
   <path d="m10 1h1v1h-1"/>
   <path d="m9 1h1v1l-0.75-0.25"/>
   <path d="m8 1h1l0.25 0.75-0.5 0.5-0.75-0.25"/>
   <path d="m7 1h1v1l-0.75 0.25-0.5-0.5"/>
   <path d="M 6,1 H 7 L 6.75,1.75 6,2"/>
   <path d="m5 1h1v1h-1"/>
   <path d="m4 1h1v1h-1"/>
   <path d="m3 1h1v1h-1"/>
   <path d="m2 1h1v1h-1"/>
   <path d="M 1.25,1.25 2,1 V 2 H 1"/>
  </g>
  <g>
   <path d="M 0,1 0.75,0.75 1.25,1.25 1,2 H 0"/>
   <path d="m15 0h1v1l-0.75-0.25"/>
   <path d="m14 0h1l0.25 0.75-0.5 0.5-0.75-0.25"/>
   <path d="m13 0h1v1h-1"/>
   <path d="m12 0h1v1h-1"/>
   <path d="m11 0h1v1h-1"/>
   <path d="m10 0h1v1h-1"/>
   <path d="m9 0h1v1h-1"/>
   <path d="m8 0h1v1h-1"/>
   <path d="m7 0h1v1h-1"/>
   <path d="m6 0h1v1h-1"/>
   <path d="m5 0h1v1h-1"/>
   <path d="m4 0h1v1h-1"/>
   <path d="m3 0h1v1h-1"/>
   <path d="m2 0h1v1h-1"/>
   <path d="m1 0h1v1l-0.75 0.25-0.5-0.5"/>
   <path d="M 0,0 H 1 L 0.75,0.75 0,1"/>
  </g>
 </g>
</svg>
