<?xml version="1.0" encoding="UTF-8"?>
<svg width="16" height="16" version="1.1" viewBox="0 0 16 16" xmlns="http://www.w3.org/2000/svg" xmlns:cc="http://creativecommons.org/ns#" xmlns:dc="http://purl.org/dc/elements/1.1/" xmlns:rdf="http://www.w3.org/1999/02/22-rdf-syntax-ns#">
 <metadata>
  <rdf:RDF>
   <cc:Work rdf:about="">
    <dc:format>image/svg+xml</dc:format>
    <dc:type rdf:resource="http://purl.org/dc/dcmitype/StillImage"/>
    <dc:title/>
   </cc:Work>
  </rdf:RDF>
 </metadata>
 <path d="m0 15.212c0-0.45719 1.3779-2.1538 3.062-3.7703 1.6841-1.6165 3.062-3.2258 3.062-3.5762 0-0.35042-1.4433-2.1161-3.2073-3.9238-4.3401-4.4475-2.7883-5.5273 1.6916-1.177l3.557 3.454 3.557-3.454c4.639-4.5047 6.0278-3.1134 1.5315 1.5343l-3.4476 3.5637 3.4476 3.5637c4.4963 4.6477 3.1076 6.0391-1.5315 1.5343l-3.557-3.454-3.3657 3.2683c-3.3678 3.2703-4.7995 3.9973-4.7995 2.437zm9.1859-7.3493c0-0.56241-0.4593-1.0226-1.0207-1.0226-0.56136 0-1.0207 0.46015-1.0207 1.0226s0.4593 1.0226 1.0207 1.0226c0.56136 0 1.0207-0.46015 1.0207-1.0226z" stroke-width="1.0216"/>
</svg>
