<?xml version="1.0" encoding="UTF-8"?>
<svg width="16" height="16" version="1.1" viewBox="0 0 16 16" xmlns="http://www.w3.org/2000/svg" xmlns:cc="http://creativecommons.org/ns#" xmlns:dc="http://purl.org/dc/elements/1.1/" xmlns:rdf="http://www.w3.org/1999/02/22-rdf-syntax-ns#">
 <metadata>
  <rdf:RDF>
   <cc:Work rdf:about="">
    <dc:format>image/svg+xml</dc:format>
    <dc:type rdf:resource="http://purl.org/dc/dcmitype/StillImage"/>
    <dc:title/>
   </cc:Work>
  </rdf:RDF>
 </metadata>
 <g fill-opacity="0">
  <path d="m15 15h1v1h-1"/>
  <path d="m14 15h1v1h-1"/>
  <path d="m13 15h1v1h-1"/>
  <path d="m12 15h1v1h-1"/>
  <path d="m11 15h1v1h-1"/>
  <path d="m10 15h1v1h-1"/>
  <path d="m9 15h1v1h-1"/>
  <path d="m8 15h1v1h-1"/>
  <path d="m7 15h1v1h-1"/>
  <path d="m6 15h1v1h-1"/>
  <path d="m5 15h1v1h-1"/>
  <path d="m4 15h1v1h-1"/>
  <path d="m3 15h1v1h-1"/>
  <path d="m2 15h1v1h-1"/>
  <path d="m1 15h1v1h-1"/>
  <path d="m0 15h1v1h-1"/>
  <path d="m15 14h1v1h-1"/>
  <path d="m13.75 14.25 0.5-0.5 0.75 0.25v1h-1"/>
  <path d="m13 14 0.75 0.25 0.25 0.75h-1"/>
  <path d="m12 14h1v1h-1"/>
  <path d="m11.25 14.25 0.75-0.25v1h-1"/>
  <path d="m10 14 0.75-0.25 0.5 0.5-0.25 0.75h-1"/>
  <path d="m9 14h1v1h-1"/>
  <path d="m8 14h1v1h-1"/>
  <path d="m7 14h1v1h-1"/>
  <path d="m6 14h1v1h-1"/>
  <path d="m5 14h1v1h-1"/>
  <path d="m3.75 14.25 0.5-0.5 0.75 0.25v1h-1"/>
  <path d="M 3,14 3.75,14.25 4,15 H 3"/>
  <path d="M 2.25,14.25 3,14 v 1 H 2"/>
  <path d="m1 14 0.75-0.25 0.5 0.5-0.25 0.75h-1"/>
  <path d="m0 14h1v1h-1"/>
 </g>
 <path d="m15 13h1v1h-1" fill="#c3c3c3"/>
 <path d="m14 13h1v1l-0.75-0.25" fill="#c3c3c3"/>
 <g fill-opacity="0">
  <path d="m13 13h1l0.25 0.75-0.5 0.5-0.75-0.25"/>
  <path d="m12.25 13.25 0.75-0.25v1h-1"/>
  <path d="m11.25 13.25 0.5-0.5 0.5 0.5-0.25 0.75-0.75 0.25-0.5-0.5"/>
 </g>
 <g fill="#c3c3c3">
  <path d="m10 13 0.75-0.25 0.5 0.5-0.5 0.5-0.75 0.25"/>
  <path d="m9 13h1v1h-1"/>
  <path d="m8 13h1v1h-1"/>
  <path d="m7 13h1v1h-1"/>
  <path d="m6 13h1v1h-1"/>
  <path d="m5 13h1v1h-1"/>
  <path d="m3.75 13.25 0.5-0.5 0.75 0.25v1l-0.75-0.25"/>
 </g>
 <path d="m2.75 13.25 0.5-0.5 1 1-0.5 0.5-0.75-0.25" fill-opacity="0"/>
 <path d="m2 13 0.75 0.25 0.25 0.75-0.75 0.25-0.5-0.5" fill-opacity="0"/>
 <g fill="#c3c3c3">
  <path d="m1 13h1l-0.25 0.75-0.75 0.25"/>
  <path d="m0 13h1v1h-1"/>
  <path d="m15 12h1v1h-1"/>
  <path d="m14 12h1v1h-1"/>
 </g>
 <path d="m13.25 12.25 0.75-0.25v1h-1" fill-opacity="0"/>
 <path d="m12.25 12.25 0.5-0.5 0.5 0.5-0.25 0.75-0.75 0.25-0.5-0.5" fill-opacity="0"/>
 <g fill="#c3c3c3">
  <path d="m11 12 0.75-0.25 0.5 0.5-1 1-0.5-0.5"/>
  <path d="m10 12h1l-0.25 0.75-0.75 0.25"/>
  <path d="m9 12h1v1h-1"/>
  <path d="m8 12h1v1h-1"/>
  <path d="m7 12h1v1h-1"/>
  <path d="m6 12h1v1h-1"/>
  <path d="m5 12h1v1h-1"/>
  <path d="m4 12h1v1l-0.75-0.25"/>
  <path d="m3 12h1l0.25 0.75-0.5 0.5-0.5-0.5"/>
 </g>
 <path d="m2 12h1l0.25 0.75-0.5 0.5-0.75-0.25" fill-opacity="0"/>
 <g fill="#c3c3c3">
  <path d="m1 12h1v1h-1"/>
  <path d="m0 12h1v1h-1"/>
  <path d="m15 11h1v1h-1"/>
  <path d="m13.75 11.25 0.5-0.5 0.75 0.25v1h-1"/>
 </g>
 <path d="m13.25 11.25h0.5l0.25 0.75-0.75 0.25-0.5-0.5" fill-opacity="0"/>
 <g fill="#c3c3c3">
  <path d="m12 11 0.75-0.25 0.5 0.5-1 1-0.5-0.5"/>
  <path d="m11 11h1l-0.25 0.75-0.75 0.25"/>
  <path d="m10 11h1v1h-1"/>
  <path d="m9 11h1v1h-1"/>
  <path d="m8 11h1v1h-1"/>
  <path d="m7 11h1v1h-1"/>
  <path d="m6 11h1v1h-1"/>
  <path d="m5 11h1v1h-1"/>
  <path d="m4 11h1v1h-1"/>
  <path d="m2.75 11.25 0.5-0.5 0.75 0.25v1h-1"/>
 </g>
 <path d="m2.25 11.25h0.5l0.25 0.75h-1" fill-opacity="0"/>
 <g fill="#c3c3c3">
  <path d="m1 11 0.75-0.25 0.5 0.5-0.25 0.75h-1"/>
  <path d="m0 11h1v1h-1"/>
  <path d="m15 10h1v1h-1"/>
  <path d="m14 10h1v1l-0.75-0.25"/>
  <path d="m13 10h1l0.25 0.75-0.5 0.5h-0.5l-0.5-0.5"/>
  <path d="m12 10h1l-0.25 0.75-0.75 0.25"/>
  <path d="m11 10h1v1h-1"/>
  <path d="m10 10h1v1h-1"/>
  <path d="m9 10h1v1h-1"/>
  <path d="m8 10h1v1h-1"/>
  <path d="m7 10h1v1h-1"/>
  <path d="m6 10h1v1h-1"/>
  <path d="m5 10h1v1h-1"/>
  <path d="m4 10h1v1h-1"/>
  <path d="m3 10h1v1l-0.75-0.25"/>
  <path d="m2 10h1l0.25 0.75-0.5 0.5h-0.5l-0.5-0.5"/>
  <path d="m1 10h1l-0.25 0.75-0.75 0.25"/>
  <path d="m0 10h1v1h-1"/>
  <path d="m15 9h1v1h-1"/>
  <path d="m14.25 9.25 0.75-0.25v1h-1"/>
  <path d="m12.75 9.25 0.5-0.5h0.5l0.5 0.5-0.25 0.75h-1"/>
  <path d="m12 9 0.75 0.25 0.25 0.75h-1"/>
  <path d="m11 9h1v1h-1"/>
  <path d="m10 9h1v1h-1"/>
  <path d="m9 9h1v1h-1"/>
  <path d="m8 9h1v1h-1"/>
  <path d="m7 9h1v1h-1"/>
  <path d="m6 9h1v1h-1"/>
  <path d="m5 9h1v1h-1"/>
  <path d="m4 9h1v1h-1"/>
  <path d="M 3.25,9.25 4,9 v 1 H 3"/>
  <path d="m1.75 9.25 0.5-0.5h0.5l0.5 0.5-0.25 0.75h-1"/>
  <path d="M 1,9 1.75,9.25 2,10 H 1"/>
  <path d="m0 9h1v1h-1"/>
  <path d="m15 8h1v1h-1"/>
  <path d="m14 8h1v1l-0.75 0.25-0.5-0.5"/>
 </g>
 <path d="m13 8h1l-0.25 0.75h-0.5" fill-opacity="0"/>
 <g fill="#c3c3c3">
  <path d="m12 8h1l0.25 0.75-0.5 0.5-0.75-0.25"/>
  <path d="m11 8h1v1h-1"/>
  <path d="m10 8h1v1h-1"/>
  <path d="m9 8h1v1h-1"/>
  <path d="m8 8h1v1h-1"/>
  <path d="m7 8h1v1h-1"/>
  <path d="m6 8h1v1h-1"/>
  <path d="m5 8h1v1h-1"/>
  <path d="M 4.25,8.25 5,8 V 9 H 4"/>
  <path d="m3.25 8.25 0.5-0.5 0.5 0.5-0.25 0.75-0.75 0.25-0.5-0.5"/>
 </g>
 <path d="m2 8 0.75-0.25 0.5 0.5-0.5 0.5h-0.5" fill-opacity="0"/>
 <g fill="#c3c3c3">
  <path d="m1 8h1l0.25 0.75-0.5 0.5-0.75-0.25"/>
  <path d="m0 8h1v1h-1"/>
  <path d="m15 7h1v1h-1"/>
  <path d="m14 7h1v1h-1"/>
 </g>
 <path d="m12.75 7.25 0.5-0.5 0.75 0.25v1h-1" fill-opacity="0"/>
 <g fill="#c3c3c3">
  <path d="m11.75 7.25 0.5-0.5 0.5 0.5 0.25 0.75h-1"/>
  <path d="M 11,7 11.75,7.25 12,8 h -1"/>
  <path d="m10 7h1v1h-1"/>
  <path d="m9 7h1v1h-1"/>
  <path d="m8 7h1v1h-1"/>
  <path d="m7 7h1v1h-1"/>
  <path d="m6 7h1v1h-1"/>
  <path d="M 5.25,7.25 6,7 V 8 H 5"/>
  <path d="m4.25 7.25 0.5-0.5 0.5 0.5-0.25 0.75-0.75 0.25-0.5-0.5"/>
 </g>
 <path d="m3 7 0.75-0.25 0.5 0.5-1 1-0.5-0.5" fill-opacity="0"/>
 <path d="M 2,7 H 3 L 2.75,7.75 2,8" fill-opacity="0"/>
 <g fill="#c3c3c3">
  <path d="m1 7h1v1h-1"/>
  <path d="m0 7h1v1h-1"/>
  <path d="m15 6h1v1h-1"/>
  <path d="m14.25 6.25 0.75-0.25v1h-1"/>
 </g>
 <path d="m13 6 0.75-0.25 0.5 0.5-0.25 0.75-0.75-0.25" fill-opacity="0"/>
 <path d="m11.75 6.25 0.5-0.5 0.75 0.25 0.25 0.75-0.5 0.5-0.5-0.5" fill-opacity="0"/>
 <g fill="#c3c3c3">
  <path d="m 11,6 0.75,0.25 0.5,0.5 -0.5,0.5 L 11,7"/>
  <path d="m10 6h1v1h-1"/>
  <path d="m9 6h1v1h-1"/>
  <path d="m8 6h1v1h-1"/>
  <path d="m7 6h1v1h-1"/>
  <path d="m6 6h1v1h-1"/>
  <path d="m5.25 6.25 0.75-0.25v1l-0.75 0.25-0.5-0.5"/>
 </g>
 <g fill-opacity="0">
  <path d="m4 6 0.75-0.25 0.5 0.5-1 1-0.5-0.5"/>
  <path d="M 3,6 H 4 L 3.75,6.75 3,7"/>
  <path d="m1.75 6.25 0.5-0.5 0.75 0.25v1h-1"/>
 </g>
 <path d="M 1,6 1.75,6.25 2,7 H 1" fill="#c3c3c3"/>
 <path d="m0 6h1v1h-1" fill="#c3c3c3"/>
 <g fill-opacity="0">
  <path d="m15 5h1v1h-1"/>
  <path d="m14 5h1v1l-0.75 0.25-0.5-0.5"/>
  <path d="m13 5h1l-0.25 0.75-0.75 0.25"/>
  <path d="m12.25 5.25 0.75-0.25v1l-0.75-0.25"/>
  <path d="m11 5 0.75-0.25 0.5 0.5v0.5l-0.5 0.5-0.75-0.25"/>
  <path d="m10 5h1v1h-1"/>
  <path d="m9 5h1v1h-1"/>
  <path d="m8 5h1v1h-1"/>
  <path d="m7 5h1v1h-1"/>
  <path d="m5.75 5.25 0.5-0.5 0.75 0.25v1h-1"/>
  <path d="M 5,5 5.75,5.25 6,6 5.25,6.25 4.75,5.75"/>
  <path d="M 4,5 H 5 L 4.75,5.75 4,6"/>
  <path d="m3 5h1v1h-1"/>
  <path d="m2 5h1v1l-0.75-0.25"/>
  <path d="m1 5h1l0.25 0.75-0.5 0.5-0.75-0.25"/>
  <path d="m0 5h1v1h-1"/>
  <path d="m15 4h1v1h-1"/>
  <path d="m14 4h1v1h-1"/>
  <path d="m13 4h1v1h-1"/>
  <path d="m12 4h1v1l-0.75 0.25-0.5-0.5"/>
 </g>
 <g fill="#c3c3c3">
  <path d="m11 4h1l-0.25 0.75-0.75 0.25"/>
  <path d="m10 4h1v1h-1"/>
  <path d="m9 4h1v1h-1"/>
  <path d="m8 4h1v1h-1"/>
  <path d="m7 4h1v1h-1"/>
  <path d="m6 4h1v1l-0.75-0.25"/>
 </g>
 <g fill-opacity="0">
  <path d="m5 4h1l0.25 0.75-0.5 0.5-0.75-0.25"/>
  <path d="m4 4h1v1h-1"/>
  <path d="m3 4h1v1h-1"/>
  <path d="m2 4h1v1h-1"/>
  <path d="m1 4h1v1h-1"/>
  <path d="m0 4h1v1h-1"/>
  <path d="m15 3h1v1h-1"/>
  <path d="m14 3h1v1h-1"/>
  <path d="m13 3h1v1h-1"/>
  <path d="m12 3h1v1h-1"/>
 </g>
 <g fill="#c3c3c3">
  <path d="m11 3h1v1h-1"/>
  <path d="m10 3h1v1h-1"/>
  <path d="m9 3h1v1h-1"/>
  <path d="m8 3h1v1h-1"/>
  <path d="m7 3h1v1h-1"/>
  <path d="m6 3h1v1h-1"/>
 </g>
 <g fill-opacity="0">
  <path d="m5 3h1v1h-1"/>
  <path d="m4 3h1v1h-1"/>
  <path d="m3 3h1v1h-1"/>
  <path d="m2 3h1v1h-1"/>
  <path d="m1 3h1v1h-1"/>
  <path d="m0 3h1v1h-1"/>
  <path d="m15 2h1v1h-1"/>
  <path d="m14 2h1v1h-1"/>
  <path d="m13 2h1v1h-1"/>
  <path d="m11.75 2.25 0.5-0.5 0.75 0.25v1h-1"/>
 </g>
 <g fill="#c3c3c3">
  <path d="M 11,2 11.75,2.25 12,3 h -1"/>
  <path d="m10 2h1v1h-1"/>
  <path d="m9 2h1v1h-1"/>
  <path d="m8 2h1v1h-1"/>
  <path d="m7 2h1v1h-1"/>
  <path d="M 6.25,2.25 7,2 V 3 H 6"/>
 </g>
 <g fill-opacity="0">
  <path d="M 5,2 5.75,1.75 6.25,2.25 6,3 H 5"/>
  <path d="m4 2h1v1h-1"/>
  <path d="m3 2h1v1h-1"/>
  <path d="m2 2h1v1h-1"/>
  <path d="m1 2h1v1h-1"/>
  <path d="m0 2h1v1h-1"/>
  <path d="m15 1h1v1h-1"/>
  <path d="m14 1h1v1h-1"/>
  <path d="m13 1h1v1h-1"/>
  <path d="m12 1h1v1l-0.75-0.25"/>
  <path d="m11 1h1l0.25 0.75-0.5 0.5-0.75-0.25"/>
  <path d="m10 1h1v1h-1"/>
  <path d="m9 1h1v1h-1"/>
  <path d="m8 1h1v1h-1"/>
  <path d="m7 1h1v1h-1"/>
  <path d="m6 1h1v1l-0.75 0.25-0.5-0.5"/>
  <path d="M 5,1 H 6 L 5.75,1.75 5,2"/>
  <path d="m4 1h1v1h-1"/>
  <path d="m3 1h1v1h-1"/>
  <path d="m2 1h1v1h-1"/>
  <path d="m1 1h1v1h-1"/>
  <path d="m0 1h1v1h-1"/>
  <path d="m15 0h1v1h-1"/>
  <path d="m14 0h1v1h-1"/>
  <path d="m13 0h1v1h-1"/>
  <path d="m12 0h1v1h-1"/>
  <path d="m11 0h1v1h-1"/>
  <path d="m10 0h1v1h-1"/>
  <path d="m9 0h1v1h-1"/>
  <path d="m8 0h1v1h-1"/>
  <path d="m7 0h1v1h-1"/>
  <path d="m6 0h1v1h-1"/>
  <path d="m5 0h1v1h-1"/>
  <path d="m4 0h1v1h-1"/>
  <path d="m3 0h1v1h-1"/>
  <path d="m2 0h1v1h-1"/>
  <path d="m1 0h1v1h-1"/>
  <path d="m0 0h1v1h-1"/>
 </g>
</svg>
