<?xml version="1.0" encoding="UTF-8" standalone="no"?>
<svg
   xmlns:dc="http://purl.org/dc/elements/1.1/"
   xmlns:cc="http://creativecommons.org/ns#"
   xmlns:rdf="http://www.w3.org/1999/02/22-rdf-syntax-ns#"
   xmlns:svg="http://www.w3.org/2000/svg"
   xmlns="http://www.w3.org/2000/svg"
   xmlns:sodipodi="http://sodipodi.sourceforge.net/DTD/sodipodi-0.dtd"
   xmlns:inkscape="http://www.inkscape.org/namespaces/inkscape"
   inkscape:version="1.0 (4035a4fb49, 2020-05-01)"
   sodipodi:docname="furnace.svg"
   viewBox="0 0 32 32"
   height="32"
   width="32"
   id="svg847"
   version="1.1">
  <metadata
     id="metadata853">
    <rdf:RDF>
      <cc:Work
         rdf:about="">
        <dc:format>image/svg+xml</dc:format>
        <dc:type
           rdf:resource="http://purl.org/dc/dcmitype/StillImage" />
      </cc:Work>
    </rdf:RDF>
  </metadata>
  <defs
     id="defs851" />
  <sodipodi:namedview
     inkscape:current-layer="g855"
     inkscape:window-maximized="1"
     inkscape:window-y="439"
     inkscape:window-x="-8"
     inkscape:cy="16"
     inkscape:cx="16"
     inkscape:zoom="18.0625"
     showgrid="false"
     id="namedview849"
     inkscape:window-height="745"
     inkscape:window-width="1366"
     inkscape:pageshadow="2"
     inkscape:pageopacity="0"
     guidetolerance="10"
     gridtolerance="10"
     objecttolerance="10"
     borderopacity="1"
     bordercolor="#666666"
     pagecolor="#ffffff" />
  <g
     id="g855"
     inkscape:label="Image"
     inkscape:groupmode="layer">
    <g
       id="g3474">
      <path
         id="path3490"
         d="M 11.103828,30.327948 11.125,29.875 11.0625,29.8125 11,29.75 l 0.296188,0.09942 q 0.296188,0.09942 0.375,0.125 L 11.75,30 H 11.375 11 11.5 q 0.5,0 1,0 0.5,0 1,0 0.5,0 1,0 0.5,0 1,0 0.5,0 1,0 0.5,0 1,0 0.5,0 1,0 0.5,0 1,0 0.5,0 1,0 H 21 20.625 20.25 l 0.211156,-0.05701 q 0.211155,-0.05701 0.375,-0.125 L 21,29.75 l -0.0625,0.0625 -0.0625,0.0625 0.04359,0.548029 q 0.04359,0.548028 0.0625,1.0625 L 21,32 H 20.5 20 19.5 19 18.5 18 17.5 17 16.5 16 15.5 15 14.5 14 13.5 13 12.5 12 11.5 11 l 0.04133,-0.609552 q 0.04133,-0.609552 0.0625,-1.0625"
         style="fill:#585858;fill-opacity:1" />
      <path
         id="path3488"
         d="m 11.451596,28.819226 q 0.05174,-0.423603 0.447311,-0.485983 0.39557,-0.06238 0.794474,-0.102798 0.398903,-0.04042 0.789033,-0.08852 0.390129,-0.0481 0.922618,-0.06712 0.532489,-0.01902 1.022948,-0.03256 0.490459,-0.01354 1.03124,-0.02789 Q 17,28 17.5,28 q 0.5,0 1.049453,0.07645 0.549454,0.07645 1.067042,0.200209 0.517588,0.123754 0.859657,0.233756 0.342068,0.110002 0.322344,0.355346 -0.01973,0.245344 -0.05122,0.626597 -0.03149,0.381252 -0.38179,0.403371 -0.350295,0.02212 -0.835084,0.03188 -0.484788,0.0098 -0.991003,0.0282 -0.506214,0.01843 -1.002327,0.01958 -0.496112,0.0011 -1.016592,0.01288 Q 16,30 15.5,30 q -0.5,0 -1,0 -0.5,0 -0.971006,-0.01827 -0.471005,-0.01827 -0.954309,-0.07343 -0.483305,-0.05516 -0.891097,0.0012 -0.407792,0.05633 -0.345763,-0.305159 0.06203,-0.361484 0.113771,-0.785086"
         style="fill:#c3c3c3;fill-opacity:1" />
      <path
         id="path3486"
         d="m 11.2147,10.693951 q 0.221856,-0.201989 0.503578,-0.44797 L 12,10 l -0.04687,0.546875 -0.04687,0.546875 0.07813,0.04687 0.07813,0.04687 -0.07233,-0.01335 Q 11.91786,11.16079 11.58394,11.08039 L 11.25,11 H 11.625 12 l -0.201777,0.240368 q -0.201777,0.240367 -0.45566,0.548398 -0.253884,0.308031 -0.43001,0.628086 -0.176126,0.320056 -0.284539,0.607307 -0.108413,0.287252 -0.247009,0.714419 -0.138596,0.427168 -0.08435,0.848301 0.05425,0.421132 0.225726,0.658608 0.171476,0.237476 0.405698,0.433516 0.234222,0.196039 0.546335,0.410622 0.312113,0.214584 0.598468,0.388962 0.286355,0.174379 0.663009,0.398368 0.376653,0.223989 0.706396,0.362247 0.329743,0.138259 0.703158,0.219196 0.373415,0.08094 0.721851,0.169599 0.348435,0.08866 0.777699,0.130779 0.429264,0.04212 0.865797,0.02506 0.436533,-0.01706 0.924928,-0.192411 0.488396,-0.175356 0.665849,-0.238785 0.177454,-0.06343 0.518523,-0.220921 0.341069,-0.157493 0.757809,-0.361786 0.41674,-0.204293 0.687496,-0.327057 0.270757,-0.122765 0.630488,-0.29977 0.359731,-0.177005 0.708712,-0.474712 0.348981,-0.297706 0.377861,-0.569746 0.02888,-0.27204 -0.06109,-0.633354 -0.08997,-0.361315 -0.18892,-0.768935 -0.09895,-0.407621 -0.178087,-0.695601 -0.07913,-0.28798 -0.240775,-0.648209 -0.161642,-0.360229 -0.28734,-0.598823 -0.125698,-0.238594 -0.623436,-0.372845 -0.497737,-0.13425 -0.850278,-0.257566 L 19,11 h 0.375 0.375 l -0.221833,0.08067 q -0.221834,0.08067 -0.375,0.125 L 19,11.25 19.0625,11.1875 19.125,11.125 19.357643,10.824648 q 0.232642,-0.300351 0.484375,-0.609375 L 20.09375,9.90625 20.046875,9.828125 20,9.75 20.215956,9.914614 q 0.215955,0.164614 0.28125,0.21875 L 20.5625,10.1875 20.28125,10.09375 20,10 l 0.276803,0.257881 q 0.276803,0.257882 0.538234,0.491129 0.261431,0.233247 0.567038,0.558748 0.305606,0.325501 0.424621,0.527785 0.119014,0.202285 0.267836,0.472295 0.148822,0.270011 0.281705,0.725967 0.132883,0.455956 0.246219,0.847198 0.113337,0.391241 0.06623,0.617172 -0.04711,0.22593 -0.169928,0.541142 -0.122816,0.315213 -0.277197,0.749442 -0.154382,0.434228 -0.346357,0.582756 -0.191974,0.148528 -0.499582,0.385928 -0.307608,0.237399 -0.691797,0.419507 -0.38419,0.182108 -0.662277,0.310207 -0.278086,0.1281 -0.637037,0.293365 -0.358952,0.165266 -0.780757,0.358179 -0.421806,0.192913 -0.564198,0.246984 -0.142392,0.05407 -0.568333,0.09676 -0.425941,0.04269 -0.907561,0.06691 -0.48162,0.02422 -1.089114,0.0028 -0.607494,-0.02145 -0.754401,-0.05572 -0.14691,-0.03432 -0.595507,-0.165323 Q 13.676042,18.200106 13.361129,18.07149 13.046216,17.942873 12.749592,17.804605 12.452967,17.666337 12.073141,17.492641 11.693316,17.318945 11.24365,17.069126 10.793985,16.819308 10.597032,16.653277 10.400079,16.487247 10.215714,16.318089 10.03135,16.14893 9.7993694,15.847894 9.5673887,15.546857 9.3877853,15.198052 9.208182,14.849246 9.2868664,14.395688 q 0.078684,-0.453559 0.1271897,-0.69356 0.048505,-0.240001 0.1763874,-0.507471 0.1278821,-0.26747 0.2674871,-0.687155 0.139605,-0.419685 0.3645014,-0.699679 0.224897,-0.279994 0.497654,-0.595939 0.272757,-0.315944 0.494614,-0.517933 M 12.09375,9.96875 12,10 11.71875,10.09375 11.4375,10.1875 11.625,10.125 Q 11.8125,10.0625 12,10 l 0.1875,-0.0625 -0.09375,0.03125"
         style="fill:#ec1c24;fill-opacity:1" />
      <path
         id="path3484"
         d="m 19.293825,9.0387928 q 0.11367,-0.1540498 0.275814,-0.3171407 0.162145,-0.1630909 0.220958,0.1159284 0.05881,0.2790193 0.134108,0.7207194 L 20,10 V 9.625 9.25 l 0.04935,0.2397935 q 0.04935,0.2397934 0.09375,0.40625 L 20.1875,10.0625 20.140625,9.984375 20.09375,9.90625 19.876389,10.188486 q -0.217361,0.282235 -0.484375,0.609375 L 19.125,11.125 19.1875,11.0625 19.25,11 19.23153,11.05159 q -0.01846,0.05159 -0.125,0.375 L 19,11.75 V 11.375 11 l 0.146752,0.340968 q 0.146752,0.340968 0.290838,0.865284 0.144085,0.524315 0.121898,0.754211 -0.02219,0.229896 -0.09356,0.41212 -0.07137,0.182224 -0.28985,0.448058 -0.21848,0.265833 -0.354381,0.422338 -0.1359,0.156504 -0.295137,0.239288 -0.159236,0.08278 -0.109708,-0.0957 0.04953,-0.178484 0.105533,-0.327212 0.056,-0.148728 0.05737,-0.645148 0.0014,-0.49642 -0.02587,-0.794523 -0.02723,-0.298103 -0.05302,-0.661656 -0.02579,-0.363554 -0.03247,-0.767543 -0.0067,-0.403989 0.0349,-0.556173 0.04159,-0.152184 0.147101,-0.512701 0.105512,-0.3605175 0.317633,-0.6446429 0.212121,-0.2841255 0.325791,-0.4381753"
         style="fill:#88001b;fill-opacity:1" />
      <path
         id="path3482"
         d="M 13.258738,8.9100562 Q 13.5477,8.724662 13.606821,8.7490215 q 0.05912,0.02436 0.03505,0.112392 -0.02407,0.088033 -0.06863,0.3310038 -0.04455,0.2429712 -0.115816,0.6007931 -0.07126,0.3578216 -0.07899,0.6551176 -0.0077,0.297296 -0.03047,0.781021 -0.02274,0.483724 0.0371,0.826538 0.05984,0.342814 0.122036,0.761746 0.06219,0.418931 -0.03218,0.601693 -0.09437,0.182762 -0.243668,0.344337 -0.149295,0.161574 -0.3595,0.367614 -0.210206,0.20604 -0.284131,0.266484 -0.07393,0.06044 -0.05312,-0.02924 0.02081,-0.08969 0.04266,-0.475702 0.02186,-0.386013 -0.0072,-0.514139 -0.02904,-0.128127 -0.112453,-0.612583 -0.08342,-0.484457 -0.164221,-0.732681 -0.0808,-0.248224 -0.187057,-0.640818 L 12,11 l 0.09375,0.28125 0.09375,0.28125 -0.119503,-0.156701 q -0.119503,-0.156701 -0.21875,-0.28125 L 11.75,11 l 0.07813,0.04687 0.07813,0.04687 0.04687,-0.546875 L 12,10 12.252493,9.738073 q 0.252493,-0.261927 0.484888,-0.4522748 0.232394,-0.1903477 0.521357,-0.375742 M 12.28125,9.90625 12,10 11.90625,10.03125 11.8125,10.0625 12,10 q 0.1875,-0.0625 0.375,-0.125 l 0.1875,-0.0625 -0.28125,0.09375"
         style="fill:#88001b;fill-opacity:1" />
      <path
         id="path3480"
         d="m 16.076739,7.7855731 q 0.124546,-0.1448751 0.320324,0.035289 0.195778,0.1801641 0.30398,0.4069452 0.108201,0.2267812 -0.04055,0.4827075 -0.148753,0.2559263 -0.222875,0.3798925 -0.07412,0.1239662 -0.233304,0.4465334 -0.159183,0.3225673 -0.03651,0.6652983 0.12267,0.34273 0.267146,0.795634 0.144477,0.452904 0.149163,0.592529 0.0047,0.139624 0.0212,0.629728 0.01651,0.490104 -0.08809,0.943489 -0.104604,0.453385 -0.233503,0.861982 -0.128898,0.408597 -0.233506,0.61904 -0.104608,0.210442 -0.253783,0.463627 -0.149174,0.253186 -0.580759,0.412416 -0.431585,0.15923 -0.587642,0.126614 -0.156056,-0.03262 -0.119821,-0.137641 0.03624,-0.105024 0.126886,-0.377634 0.09065,-0.27261 0.219989,-0.65186 0.129337,-0.37925 0.333779,-0.761763 0.204442,-0.382513 0.225528,-0.56835 0.02109,-0.185837 0.03061,-0.568394 0.0095,-0.382557 -0.130426,-0.584626 -0.139949,-0.202069 -0.182209,-0.641749 -0.04226,-0.43968 -0.01792,-0.921432 0.02434,-0.4817516 0.05455,-1.012726 0.03021,-0.5309744 0.166471,-0.7531777 0.136263,-0.2222034 0.376496,-0.4798502 0.240232,-0.2576468 0.364778,-0.402522"
         style="fill:#88001b;fill-opacity:1" />
      <path
         id="path3478"
         d="M 2.4749939,2.5729698 Q 2.4983558,2.4718429 2.7139786,2.4441912 2.9296014,2.4165395 3.5187555,2.3070105 4.1079096,2.1974815 4.637608,2.1526574 5.1673063,2.1078333 5.6406026,2.0746521 6.1138989,2.0414708 6.4513764,2.0314798 6.7888539,2.0214888 7.3944269,2.0107444 8,2 8.5,2 q 0.5,0 1,0 0.5,0 1,0 0.5,0 1,0 0.5,0 1,0 0.5,0 1,0 0.5,0 1,0 0.5,0 1,0 0.5,0 1,0 0.5,0 1,0 0.5,0 1,0 0.5,0 1,0 0.5,0 1,0 0.5,0 1,0 0.5,0 1,0 0.5,0 1,0 0.5,0 1,0 0.5,0 1,0 0.5,0 1,0 0.5,0 1.003378,0.070797 0.503378,0.070797 1.008408,0.1419988 0.50503,0.071202 0.66872,0.1099182 0.163689,0.038717 0.294234,0.4594161 0.130545,0.4206995 0.172477,0.748804 0.04193,0.3281045 0.126208,0.9383088 0.08428,0.6102042 0.115287,1.0247314 0.03101,0.4145272 0.03753,0.9570452 0.0065,0.542518 0.04014,1.0457492 Q 30,8 30,8.5 q 0,0.5 0,1 0,0.5 0,1 0,0.5 0,1 0,0.5 0,1 0,0.5 0,1 0,0.5 0,1 0,0.5 0,1 0,0.5 0,1 0,0.5 0,1 0,0.5 0,1 0,0.5 0,1 0,0.5 0,1 0,0.5 0,1 0,0.5 0,1 0,0.5 0,1 0,0.5 0,1 0,0.5 0,1 0,0.5 -0.0069,0.969308 -0.0069,0.469308 -0.0243,0.981786 -0.01742,0.512478 -0.08658,0.983734 -0.06916,0.471255 -0.156096,0.816307 -0.08694,0.345052 -0.394872,0.411 -0.307934,0.06595 -0.68341,0.0821 -0.375477,0.01615 -1.058693,0.08677 -0.683216,0.07062 -1.126789,0.09678 -0.443574,0.02616 -0.909807,-0.03456 -0.466233,-0.06072 -0.935747,-0.139973 -0.469514,-0.07925 -0.635653,-0.21462 -0.166139,-0.135368 -0.400618,-0.366247 -0.234479,-0.230878 -0.374943,-0.727752 -0.140463,-0.496874 -0.265992,-0.92373 -0.125528,-0.426857 -0.226542,-0.804079 -0.101015,-0.377222 -0.385359,-0.411803 -0.284345,-0.03458 -0.845573,-0.0876 -0.561228,-0.05302 -0.942766,-0.07925 -0.381539,-0.02623 -0.952668,-0.04378 -0.571129,-0.01755 -1.133429,-0.03789 -0.562299,-0.02034 -1.007797,-0.03841 Q 17,26 16.5,26 q -0.5,0 -1,0 -0.5,0 -1,0 -0.5,0 -1,0 -0.5,0 -1.04755,0.0071 -0.547549,0.0071 -1.035874,0.07568 -0.488325,0.06855 -0.87995,0.156177 -0.391625,0.08763 -0.536082,0.218541 -0.1444578,0.130911 -0.3784414,0.536244 -0.2339835,0.405334 -0.3975398,0.795696 -0.1635563,0.390362 -0.3950316,0.84637 -0.2314752,0.456007 -0.3229602,0.581551 -0.091485,0.125544 -0.3760853,0.22878 -0.2846004,0.103237 -0.8146802,0.208876 -0.5300798,0.10564 -0.9934576,0.164057 -0.4633777,0.05842 -0.8435754,0.09414 -0.3801977,0.03572 -0.8709544,0.01969 -0.4907567,-0.01603 -0.9542661,-0.0555 -0.4635094,-0.03947 -0.878893,-0.112863 -0.4153837,-0.07339 -0.4558932,-0.348705 -0.04051,-0.275311 -0.089732,-0.896439 -0.049223,-0.621128 -0.0822,-1.14931 -0.032977,-0.528182 -0.050621,-0.96193 -0.017643,-0.433748 -0.037864,-0.862592 -0.02022,-0.428844 -0.039285,-0.987217 Q 2,24 2,23.5 2,23 2,22.5 2,22 2,21.5 2,21 2,20.5 2,20 2,19.5 2,19 2,18.5 2,18 2,17.5 2,17 2,16.5 2,16 2,15.5 2,15 2,14.5 2,14 2,13.5 2,13 2,12.5 2,12 2,11.5 2,11 2,10.5 2,10 2,9.5 2,9 2,8.5 2,8 2,7.5 2,7 2.0033399,6.5512883 2.0066797,6.1025765 2.0487667,5.5867508 2.0908536,5.070925 2.1257973,4.6415639 2.160741,4.2122028 2.3061865,3.4431497 2.451632,2.6740967 2.4749939,2.5729698 M 16.510836,18.734079 q 0.380495,0.0033 0.776576,-0.116926 0.396081,-0.120266 0.727059,-0.245321 0.330979,-0.125056 0.593156,-0.248648 0.262177,-0.123592 0.764682,-0.335335 0.502504,-0.211743 0.660937,-0.292022 0.158433,-0.08028 0.511025,-0.261906 0.352592,-0.181628 0.584166,-0.349373 0.231575,-0.167745 0.656675,-0.500476 0.425099,-0.332732 0.550544,-0.54327 0.125444,-0.210538 0.224914,-0.513748 0.09947,-0.303211 0.154864,-0.802406 0.0554,-0.499196 -0.03038,-0.745297 -0.08578,-0.246101 -0.211789,-0.580815 -0.126013,-0.334713 -0.369469,-0.840651 -0.243455,-0.505938 -0.35263,-0.658773 -0.109174,-0.152834 -0.384289,-0.507324 -0.275114,-0.35449 -0.469052,-0.626368 -0.193937,-0.271878 -0.35177,-0.518916 Q 20.388222,9.7994667 20.215896,9.3766213 20.043569,8.9537759 19.965133,8.7154035 19.886696,8.477031 19.736269,8.6352027 19.585841,8.7933744 19.413413,8.9747593 19.240986,9.1561441 19.040845,9.398751 q -0.20014,0.2426069 -0.34896,0.5850818 -0.14882,0.3424752 -0.136854,0.7006532 0.01197,0.358179 0.02762,0.752865 0.01565,0.394687 0.06093,0.625527 0.04527,0.23084 -0.0075,0.58421 -0.05273,0.35337 -0.08203,0.747791 -0.02931,0.394421 -0.04784,0.65619 -0.01854,0.261769 0.07215,0.415208 0.09068,0.153439 0.231689,0.04808 0.141006,-0.105358 0.26453,-0.231246 0.123524,-0.125889 0.222444,-0.310387 0.09892,-0.184498 0.161405,-0.509468 0.06248,-0.324971 0.06539,-0.678085 0.0029,-0.353115 -0.05795,-0.769137 -0.06086,-0.416023 -0.03055,-0.659137 0.0303,-0.243115 0.23793,-0.175241 0.207629,0.06787 0.482156,0.322998 0.274528,0.255125 0.50059,0.55793 0.226062,0.302804 0.399954,0.547378 0.173893,0.244573 0.220655,0.338036 0.04676,0.09346 0.07978,0.524442 0.03302,0.430978 0.07619,1.049539 0.04317,0.618561 0.03654,0.939858 -0.0066,0.321296 -0.224207,0.417811 -0.217578,0.09652 -0.577391,0.267407 -0.359813,0.170892 -0.668477,0.317957 -0.308664,0.147065 -0.75956,0.377541 -0.450896,0.230476 -0.761116,0.339106 -0.310221,0.108631 -0.742001,0.284154 -0.431779,0.175524 -0.694889,0.204221 -0.26311,0.0287 -0.696455,0.01053 -0.433346,-0.01817 -0.907211,-3.8e-4 -0.473864,0.01779 -0.776778,-0.07779 -0.302913,-0.09558 -0.62207,-0.223022 -0.319157,-0.12744 -0.752793,-0.311365 -0.433635,-0.183926 -0.734735,-0.326016 -0.301099,-0.14209 -0.561679,-0.264788 -0.260581,-0.122698 -0.620692,-0.340718 -0.36011,-0.218021 -0.56958,-0.442036 -0.209469,-0.224016 -0.267193,-0.491104 -0.05772,-0.267089 -0.165475,-0.680044 -0.107752,-0.412956 -0.08153,-0.838664 0.02622,-0.425708 0.176933,-0.709714 0.150712,-0.284005 0.377661,-0.603223 0.226949,-0.319218 0.484567,-0.563453 0.257619,-0.244236 0.516385,-0.225971 0.258766,0.01826 0.377859,0.153785 0.119093,0.135519 0.177103,0.261685 0.05801,0.126165 0.114614,0.598057 0.0566,0.471893 0.03341,0.851783 -0.0232,0.379891 -0.100882,0.66815 -0.07768,0.288259 0.0085,0.382355 0.08622,0.0941 0.29949,-0.0712 0.213267,-0.165292 0.296127,-0.271601 0.08286,-0.10631 0.231347,-0.342271 0.148488,-0.235962 0.31703,-0.570365 0.168543,-0.334402 0.05643,-0.618135 -0.112108,-0.283732 -0.189513,-0.703158 -0.0774,-0.419425 -0.0583,-0.790458 0.0191,-0.371032 0.07875,-0.562429 0.05964,-0.191397 0.113908,-0.494448 0.05426,-0.3030503 0.0476,-0.5021703 -0.0067,-0.1991199 -0.04294,-0.5423463 -0.03627,-0.3432264 -0.231422,-0.3448973 -0.19515,-0.00167 -0.279004,0.1652463 -0.08385,0.1669172 -0.37647,0.4615753 -0.292617,0.2946581 -0.538455,0.4519886 -0.245838,0.1573306 -0.560709,0.4472107 -0.314871,0.28988 -0.534143,0.502052 -0.219272,0.212173 -0.363256,0.418941 -0.143985,0.206769 -0.333436,0.506449 -0.189451,0.29968 -0.367183,0.688517 -0.1777324,0.388836 -0.3188748,0.745096 -0.1411424,0.35626 -0.2729461,0.716052 -0.1318037,0.359792 -0.1906606,0.752308 -0.058857,0.392516 0.056715,0.706187 0.1155717,0.313671 0.294248,0.481818 0.1786763,0.168148 0.4935435,0.457349 0.314867,0.289201 0.610694,0.429639 0.295828,0.140439 0.620299,0.338933 0.32447,0.198494 0.727452,0.433937 0.402982,0.235443 0.699219,0.421913 0.296238,0.18647 0.618954,0.358115 0.322716,0.171646 0.556024,0.248433 0.233308,0.07679 0.657952,0.180017 0.424644,0.103231 0.992508,0.118789 0.567864,0.01556 0.948359,0.0189 m -1.667251,-3.255045 q 0.0474,0.0661 0.498383,-0.09822 0.450979,-0.16432 0.486203,-0.234953 0.03522,-0.07063 0.204776,-0.443117 0.169551,-0.372484 0.302511,-0.723853 0.132959,-0.35137 0.236482,-0.77225 0.103522,-0.420881 0.08322,-0.785516 -0.0203,-0.364635 -0.07523,-0.632079 -0.05493,-0.267443 -0.129841,-0.670461 -0.07491,-0.403018 -0.02525,-0.760868 0.04966,-0.3578507 0.105598,-0.7410468 0.05594,-0.3831962 0.155305,-0.7834636 0.09937,-0.4002674 0.05569,-0.6608726 -0.04368,-0.2606052 -0.153083,-0.4174035 -0.109399,-0.1567984 -0.27477,-0.1812304 -0.16537,-0.024432 -0.281989,0.1035856 -0.116619,0.1280175 -0.296853,0.4478591 -0.180235,0.3198416 -0.260186,0.5874737 -0.07995,0.267632 -0.147358,0.8399342 -0.06741,0.5723023 -0.0431,1.0353233 0.02431,0.463021 0.08922,0.81011 0.06492,0.347089 0.131483,0.571224 0.06656,0.224136 0.0101,0.409154 -0.05647,0.185019 -0.147882,0.458743 -0.09141,0.273725 -0.253418,0.747566 -0.162003,0.473842 -0.309652,0.932776 -0.147648,0.458933 -0.154939,0.630115 -0.0073,0.171183 0.06994,0.218273 0.07723,0.04709 0.124634,0.113193"
         style="fill:#ffffff;fill-opacity:1" />
      <path
         id="path3476"
         d="M 0,0.5 V 0 H 0.5 1 1.5 2 2.5 3 3.5 4 4.5 5 5.5 6 6.5 7 7.5 8 8.5 9 9.5 10 10.5 11 11.5 12 12.5 13 13.5 14 14.5 15 15.5 16 16.5 17 17.5 18 18.5 19 19.5 20 20.5 21 21.5 22 22.5 23 23.5 24 24.5 25 25.5 26 26.5 27 27.5 28 28.5 29 29.5 30 30.5 31 31.5 32 V 0.5 1 1.5 2 2.5 3 3.5 4 4.5 5 5.5 6 6.5 7 7.5 8 8.5 9 9.5 10 10.5 11 11.5 12 12.5 13 13.5 14 14.5 15 15.5 16 16.5 17 17.5 18 18.5 19 19.5 20 20.5 21 21.5 22 22.5 23 23.5 24 24.5 25 25.5 26 26.5 27 27.5 28 28.5 29 29.5 30 30.5 31 31.5 32 H 31.5 31 30.5 30 29.5 29 28.5 28 27.5 27 26.5 26 25.5 25 24.5 24 23.5 23 22.5 22 21.5 21 l -0.01667,-0.510634 q -0.01667,-0.510634 -0.0625,-1.0625 L 20.875,29.875 20.8125,29.9375 20.75,30 20.79656,29.843528 q 0.04656,-0.156472 0.125,-0.375 L 21,29.25 V 29.625 30 l -0.181183,-0.431431 q -0.181182,-0.43143 -0.401536,-0.706999 -0.220353,-0.275569 -0.421054,-0.386595 -0.200701,-0.111027 -0.676586,-0.204175 -0.475884,-0.09315 -0.933382,-0.125118 -0.457497,-0.03197 -0.907775,-0.06976 -0.450277,-0.03779 -0.93119,-0.04082 -0.480912,-0.003 -1.000601,0.01129 -0.519688,0.01432 -0.987993,0.03278 -0.468304,0.01846 -0.998596,0.04217 -0.530291,0.02371 -1.034879,0.08362 -0.504587,0.05991 -0.749561,0.09652 -0.244974,0.03661 -0.317232,0.290593 -0.07226,0.253985 -0.265345,0.830964 L 11,30 V 29.625 29.25 l 0.04072,0.136364 q 0.04072,0.136365 0.125,0.375 L 11.25,30 11.1875,29.9375 11.125,29.875 11.08944,30.437162 q -0.03556,0.562163 -0.0625,1.0625 L 11,32 H 10.5 10 9.5 9 8.5 8 7.5 7 6.5 6 5.5 5 4.5 4 3.5 3 2.5 2 1.5 1 0.5 0 V 31.5 31 30.5 30 29.5 29 28.5 28 27.5 27 26.5 26 25.5 25 24.5 24 23.5 23 22.5 22 21.5 21 20.5 20 19.5 19 18.5 18 17.5 17 16.5 16 15.5 15 14.5 14 13.5 13 12.5 12 11.5 11 10.5 10 9.5 9 8.5 8 7.5 7 6.5 6 5.5 5 4.5 4 3.5 3 2.5 2 1.5 1 0.5 m 28.226434,29.123621 q 0.312016,-0.03859 0.72244,-0.09726 0.410424,-0.05867 0.534121,-0.465478 0.123698,-0.406806 0.205195,-0.896202 0.0815,-0.489397 0.124123,-0.850505 0.04263,-0.361109 0.07963,-0.881371 0.037,-0.520263 0.05115,-0.927761 0.01415,-0.407498 0.03553,-0.956273 Q 30,24 30,23.5 q 0,-0.5 0,-1 0,-0.5 0,-1 0,-0.5 0,-1 0,-0.5 0,-1 0,-0.5 0,-1 0,-0.5 0,-1 0,-0.5 0,-1 0,-0.5 0,-1 0,-0.5 0,-1 0,-0.5 0,-1 0,-0.5 0,-1 0,-0.5 0,-1 0,-0.5 0,-1 0,-0.5 0,-1 Q 30,9 30,8.5 30,8 30,7.5 30,7 30,6.5 30,6 30,5.5 30,5 29.957038,4.4784768 29.914075,3.9569536 29.829533,3.4984722 29.744991,3.0399907 29.62957,2.7705161 29.514149,2.5010414 29.075617,2.3710517 28.637085,2.2410619 28.401515,2.2113006 28.165944,2.1815394 27.631979,2.1513318 27.098014,2.1211241 26.592357,2.0907239 26.086699,2.0603236 25.652139,2.0459685 25.217578,2.0316134 24.559206,2.0270699 23.900834,2.0225265 23.450417,2.0112632 23,2 22.5,2 22,2 21.5,2 21,2 20.5,2 20,2 19.5,2 19,2 18.5,2 18,2 17.5,2 17,2 16.5,2 16,2 15.5,2 15,2 14.5,2 14,2 13.5,2 13,2 12.5,2 12,2 11.5,2 11,2 10.5,2 10,2 9.5,2 9,2 8.5,2 8,2 7.5,2 7,2 6.5,2 6,2 5.5402711,2.0216891 5.0805422,2.0433782 4.5427564,2.0904569 4.0049707,2.1375355 3.459357,2.2383648 2.9137432,2.3391942 2.8573107,2.419969 2.8008782,2.5007439 2.6998428,2.7636952 2.5988075,3.0266465 2.4703703,3.5554407 2.3419332,4.0842349 2.2858917,4.4528661 2.2298502,4.8214972 2.1691565,5.4627979 2.1084628,6.1040986 2.0706084,6.5626774 2.032754,7.0212561 2.016377,7.5106281 2,8 2,8.5 q 0,0.5 0,1 0,0.5 0,1 0,0.5 0,1 0,0.5 0,1 0,0.5 0,1 0,0.5 0,1 0,0.5 0,1 0,0.5 0,1 0,0.5 0,1 0,0.5 0,1 0,0.5 0,1 0,0.5 0,1 0,0.5 0,1 0,0.5 0,1 0,0.5 0,1 0,0.5 0,1 0,0.5 0,1 0,0.5 0.00995,0.957287 0.00995,0.457288 0.013647,0.96903 0.0037,0.511742 0.121395,0.972598 0.1176985,0.460856 0.2656694,0.771453 0.1479709,0.310596 0.3356635,0.451515 0.1876927,0.14092 0.6718612,0.174883 0.4841685,0.03396 1.0770249,0.05186 0.5928564,0.0179 1.1033509,0.03089 0.5104946,0.013 0.9132798,-0.04459 0.4027852,-0.05758 0.8600726,-0.100326 0.4572875,-0.04274 0.5944071,-0.166446 0.1371197,-0.123703 0.3609787,-0.510691 0.223859,-0.386988 0.365339,-0.776499 0.14148,-0.389512 0.254551,-0.766263 0.1130711,-0.376751 0.2753895,-0.776305 0.1623184,-0.399554 0.5120415,-0.434208 0.3497239,-0.03465 0.7204599,-0.08266 0.370737,-0.048 0.871907,-0.07509 0.501169,-0.02709 0.975406,-0.0597 0.474236,-0.03261 1.097846,-0.04553 0.623609,-0.01292 1.095084,-0.01698 0.471475,-0.0041 0.988075,-0.01415 Q 16,26 16.5,26 q 0.5,0 1,0 0.5,0 1,0 0.5,0 1.024466,0.02456 0.524467,0.02456 1.043915,0.05296 0.519447,0.0284 0.914801,0.06167 0.395354,0.03327 0.655366,0.282209 0.260012,0.248934 0.455062,0.466357 0.195049,0.217423 0.261328,0.588479 0.06628,0.371055 0.246067,0.899861 0.179788,0.528806 0.276515,0.83281 0.09673,0.304005 0.251722,0.340123 0.154996,0.03612 0.736684,0.131487 0.581689,0.09537 1.169111,0.147775 0.587422,0.05241 1.005583,0.04223 0.418161,-0.01018 0.89598,-0.109243 0.477818,-0.09907 0.789834,-0.137654"
         style="fill:#000000;fill-opacity:1" />
    </g>
  </g>
</svg>
