<?xml version="1.0" encoding="UTF-8" standalone="no"?>
<svg
   xmlns:dc="http://purl.org/dc/elements/1.1/"
   xmlns:cc="http://creativecommons.org/ns#"
   xmlns:rdf="http://www.w3.org/1999/02/22-rdf-syntax-ns#"
   xmlns:svg="http://www.w3.org/2000/svg"
   xmlns="http://www.w3.org/2000/svg"
   xmlns:sodipodi="http://sodipodi.sourceforge.net/DTD/sodipodi-0.dtd"
   xmlns:inkscape="http://www.inkscape.org/namespaces/inkscape"
   inkscape:version="1.0 (4035a4fb49, 2020-05-01)"
   sodipodi:docname="gear_copper.svg"
   viewBox="0 0 16 16"
   height="16"
   width="16"
   id="svg11654"
   version="1.1">
  <metadata
     id="metadata11660">
    <rdf:RDF>
      <cc:Work
         rdf:about="">
        <dc:format>image/svg+xml</dc:format>
        <dc:type
           rdf:resource="http://purl.org/dc/dcmitype/StillImage" />
        <dc:title></dc:title>
      </cc:Work>
    </rdf:RDF>
  </metadata>
  <defs
     id="defs11658" />
  <sodipodi:namedview
     inkscape:current-layer="g12227"
     inkscape:window-maximized="1"
     inkscape:window-y="439"
     inkscape:window-x="-8"
     inkscape:cy="5.8467355"
     inkscape:cx="8.2541061"
     inkscape:zoom="25.544232"
     showgrid="false"
     id="namedview11656"
     inkscape:window-height="745"
     inkscape:window-width="1366"
     inkscape:pageshadow="2"
     inkscape:pageopacity="0"
     guidetolerance="10"
     gridtolerance="10"
     objecttolerance="10"
     borderopacity="1"
     bordercolor="#666666"
     pagecolor="#ffffff" />
  <g
     id="g11662"
     inkscape:label="Image"
     inkscape:groupmode="layer">
    <g
       id="g12227">
      <path
         id="path12597"
         d="M 8,14.4 H 9.6 L 9.2,15.6 8,16"
         style="fill:#ff6400;fill-opacity:1;stroke-width:1.6" />
      <path
         id="path12595"
         d="M 6.4,14.4 H 8 V 16 L 6.8,15.6"
         style="fill:#ff6400;fill-opacity:1;stroke-width:1.6" />
      <path
         id="path12571"
         d="m 12.8,12.8 h 1.6 L 14,14 12.8,14.4"
         style="fill:#ff6400;fill-opacity:1;stroke-width:1.6" />
      <path
         id="path12569"
         d="m 10.8,13.2 0.8,-0.8 1.2,0.4 v 1.6 L 11.6,14"
         style="fill:#ff6400;fill-opacity:1;stroke-width:1.6" />
      <path
         id="path12565"
         d="M 8,12.8 9.2,12.4 10,13.2 9.6,14.4 H 8"
         style="fill:#ff6400;fill-opacity:1;stroke-width:1.6" />
      <path
         id="path12563"
         d="M 6,13.2 6.8,12.4 8,12.8 v 1.6 H 6.4"
         style="fill:#ff6400;fill-opacity:1;stroke-width:1.6" />
      <path
         id="path12559"
         d="M 3.2,12.8 4.4,12.4 5.2,13.2 4.4,14 3.2,14.4"
         style="fill:#ff6400;fill-opacity:1;stroke-width:1.6" />
      <path
         id="path12557"
         d="m 1.6,12.8 h 1.6 v 1.6 L 2,14"
         style="fill:#ff6400;fill-opacity:1;stroke-width:1.6" />
      <path
         id="path12539"
         d="m 12.4,11.6 0.8,-0.8 0.8,0.8 0.4,1.2 h -1.6"
         style="fill:#ff6400;fill-opacity:1;stroke-width:1.6" />
      <path
         id="path12537"
         d="m 11.2,11.2 1.2,0.4 0.4,1.2 -1.2,-0.4"
         style="fill:#ff6400;fill-opacity:1;stroke-width:1.6" />
      <path
         id="path12535"
         d="m 9.6,11.2 h 1.6 l 0.4,1.2 -0.8,0.8 H 10 L 9.2,12.4"
         style="fill:#ff6400;fill-opacity:1;stroke-width:1.6" />
      <path
         id="path12533"
         d="M 8,11.2 H 9.6 L 9.2,12.4 8,12.8"
         style="fill:#ff6400;fill-opacity:1;stroke-width:1.6" />
      <path
         id="path12531"
         d="M 6.4,11.2 H 8 v 1.6 L 6.8,12.4"
         style="fill:#ff6400;fill-opacity:1;stroke-width:1.6" />
      <path
         id="path12529"
         d="M 4.8,11.2 H 6.4 L 6.8,12.4 6,13.2 H 5.2 L 4.4,12.4"
         style="fill:#ff6400;fill-opacity:1;stroke-width:1.6" />
      <path
         id="path12527"
         d="M 3.6,11.6 4.8,11.2 4.4,12.4 3.2,12.8"
         style="fill:#ff6400;fill-opacity:1;stroke-width:1.6" />
      <path
         id="path12525"
         d="m 2,11.6 0.8,-0.8 0.8,0.8 -0.4,1.2 H 1.6"
         style="fill:#ff6400;fill-opacity:1;stroke-width:1.6" />
      <path
         id="path12505"
         d="m 11.2,9.6 1.2,-0.4 0.8,0.8 v 0.8 l -0.8,0.8 -1.2,-0.4"
         style="fill:#ff6400;fill-opacity:1;stroke-width:1.6" />
      <path
         id="path12503"
         d="m 10,10 1.2,-0.4 v 1.6 H 9.6"
         style="fill:#ff6400;fill-opacity:1;stroke-width:1.6" />
      <path
         id="path12501"
         d="M 8,9.6 9.2,9.2 10,10 9.6,11.2 H 8"
         style="fill:#ff6400;fill-opacity:1;stroke-width:1.6" />
      <path
         id="path12499"
         d="M 6,10 6.8,9.2 8,9.6 v 1.6 H 6.4"
         style="fill:#ff6400;fill-opacity:1;stroke-width:1.6" />
      <path
         id="path12497"
         d="M 4.8,9.6 6,10 6.4,11.2 H 4.8"
         style="fill:#ff6400;fill-opacity:1;stroke-width:1.6" />
      <path
         id="path12495"
         d="M 2.8,10 3.6,9.2 4.8,9.6 v 1.6 L 3.6,11.6 2.8,10.8"
         style="fill:#ff6400;fill-opacity:1;stroke-width:1.6" />
      <path
         id="path12477"
         d="M 14.4,8 H 16 l -0.4,1.2 -1.2,0.4"
         style="fill:#ff6400;fill-opacity:1;stroke-width:1.6" />
      <path
         id="path12475"
         d="m 12.8,8 h 1.6 V 9.6 L 13.2,10 12.4,9.2"
         style="fill:#ff6400;fill-opacity:1;stroke-width:1.6" />
      <path
         id="path12473"
         d="m 11.2,8 h 1.6 l -0.4,1.2 -1.2,0.4"
         style="fill:#ff6400;fill-opacity:1;stroke-width:1.6" />
      <path
         id="path12471"
         d="m 9.6,8 h 1.6 V 9.6 L 10,10 9.2,9.2"
         style="fill:#ff6400;fill-opacity:1;stroke-width:1.6" />
      <path
         id="path12465"
         d="M 4.8,8 H 6.4 L 6.8,9.2 6,10 4.8,9.6"
         style="fill:#ff6400;fill-opacity:1;stroke-width:1.6" />
      <path
         id="path12463"
         d="M 3.2,8 H 4.8 V 9.6 L 3.6,9.2"
         style="fill:#ff6400;fill-opacity:1;stroke-width:1.6" />
      <path
         id="path12461"
         d="M 1.6,8 H 3.2 L 3.6,9.2 2.8,10 1.6,9.6"
         style="fill:#ff6400;fill-opacity:1;stroke-width:1.6" />
      <path
         id="path12459"
         d="M 0,8 H 1.6 V 9.6 L 0.4,9.2"
         style="fill:#ff6400;fill-opacity:1;stroke-width:1.6" />
      <path
         id="path12445"
         d="M 14.4,6.4 15.6,6.8 16,8 h -1.6"
         style="fill:#ff6400;fill-opacity:1;stroke-width:1.6" />
      <path
         id="path12443"
         d="M 12.4,6.8 13.2,6 14.4,6.4 V 8 h -1.6"
         style="fill:#ff6400;fill-opacity:1;stroke-width:1.6" />
      <path
         id="path12441"
         d="M 11.2,6.4 12.4,6.8 12.8,8 H 11.2"
         style="fill:#ff6400;fill-opacity:1;stroke-width:1.6" />
      <path
         id="path12439"
         d="M 9.2,6.8 10,6 11.2,6.4 V 8 H 9.6"
         style="fill:#ff6400;fill-opacity:1;stroke-width:1.6" />
      <path
         id="path12433"
         d="M 4.8,6.4 6,6 6.8,6.8 6.4,8 H 4.8"
         style="fill:#ff6400;fill-opacity:1;stroke-width:1.6" />
      <path
         id="path12431"
         d="M 3.6,6.8 4.8,6.4 V 8 H 3.2"
         style="fill:#ff6400;fill-opacity:1;stroke-width:1.6" />
      <path
         id="path12429"
         d="M 1.6,6.4 2.8,6 3.6,6.8 3.2,8 H 1.6"
         style="fill:#ff6400;fill-opacity:1;stroke-width:1.6" />
      <path
         id="path12427"
         d="M 0.4,6.8 1.6,6.4 V 8 H 0"
         style="fill:#ff6400;fill-opacity:1;stroke-width:1.6" />
      <path
         id="path12409"
         d="m 11.2,4.8 1.2,-0.4 0.8,0.8 V 6 L 12.4,6.8 11.2,6.4"
         style="fill:#ff6400;fill-opacity:1;stroke-width:1.6" />
      <path
         id="path12407"
         d="m 9.6,4.8 h 1.6 V 6.4 L 10,6"
         style="fill:#ff6400;fill-opacity:1;stroke-width:1.6" />
      <path
         id="path12405"
         d="M 8,4.8 H 9.6 L 10,6 9.2,6.8 8,6.4"
         style="fill:#ff6400;fill-opacity:1;stroke-width:1.6" />
      <path
         id="path12403"
         d="M 6.4,4.8 H 8 V 6.4 L 6.8,6.8 6,6"
         style="fill:#ff6400;fill-opacity:1;stroke-width:1.6" />
      <path
         id="path12401"
         d="M 4.8,4.8 H 6.4 L 6,6 4.8,6.4"
         style="fill:#ff6400;fill-opacity:1;stroke-width:1.6" />
      <path
         id="path12399"
         d="M 2.8,5.2 3.6,4.4 4.8,4.8 V 6.4 L 3.6,6.8 2.8,6"
         style="fill:#ff6400;fill-opacity:1;stroke-width:1.6" />
      <path
         id="path12379"
         d="m 12.8,3.2 h 1.6 L 14,4.4 13.2,5.2 12.4,4.4"
         style="fill:#ff6400;fill-opacity:1;stroke-width:1.6" />
      <path
         id="path12377"
         d="M 11.6,3.6 12.8,3.2 12.4,4.4 11.2,4.8"
         style="fill:#ff6400;fill-opacity:1;stroke-width:1.6" />
      <path
         id="path12375"
         d="M 9.2,3.6 10,2.8 h 0.8 l 0.8,0.8 -0.4,1.2 H 9.6"
         style="fill:#ff6400;fill-opacity:1;stroke-width:1.6" />
      <path
         id="path12373"
         d="M 8,3.2 9.2,3.6 9.6,4.8 H 8"
         style="fill:#ff6400;fill-opacity:1;stroke-width:1.6" />
      <path
         id="path12371"
         d="M 6.8,3.6 8,3.2 V 4.8 H 6.4"
         style="fill:#ff6400;fill-opacity:1;stroke-width:1.6" />
      <path
         id="path12369"
         d="M 4.4,3.6 5.2,2.8 H 6 L 6.8,3.6 6.4,4.8 H 4.8"
         style="fill:#ff6400;fill-opacity:1;stroke-width:1.6" />
      <path
         id="path12367"
         d="M 3.2,3.2 4.4,3.6 4.8,4.8 3.6,4.4"
         style="fill:#ff6400;fill-opacity:1;stroke-width:1.6" />
      <path
         id="path12365"
         d="M 1.6,3.2 H 3.2 L 3.6,4.4 2.8,5.2 2,4.4"
         style="fill:#ff6400;fill-opacity:1;stroke-width:1.6" />
      <path
         id="path12347"
         d="M 12.8,1.6 14,2 14.4,3.2 h -1.6"
         style="fill:#ff6400;fill-opacity:1;stroke-width:1.6" />
      <path
         id="path12345"
         d="M 11.6,2 12.8,1.6 V 3.2 L 11.6,3.6 10.8,2.8"
         style="fill:#ff6400;fill-opacity:1;stroke-width:1.6" />
      <path
         id="path12341"
         d="M 8,1.6 H 9.6 L 10,2.8 9.2,3.6 8,3.2"
         style="fill:#ff6400;fill-opacity:1;stroke-width:1.6" />
      <path
         id="path12339"
         d="M 6.4,1.6 H 8 V 3.2 L 6.8,3.6 6,2.8"
         style="fill:#ff6400;fill-opacity:1;stroke-width:1.6" />
      <path
         id="path12335"
         d="M 3.2,1.6 4.4,2 5.2,2.8 4.4,3.6 3.2,3.2"
         style="fill:#ff6400;fill-opacity:1;stroke-width:1.6" />
      <path
         id="path12333"
         d="M 2,2 3.2,1.6 V 3.2 H 1.6"
         style="fill:#ff6400;fill-opacity:1;stroke-width:1.6" />
      <path
         id="path12309"
         d="M 8,0 9.2,0.4 9.6,1.6 H 8"
         style="fill:#ff6400;fill-opacity:1;stroke-width:1.6" />
      <path
         id="path12307"
         d="M 6.8,0.4 8,0 V 1.6 H 6.4"
         style="fill:#ff6400;fill-opacity:1;stroke-width:1.6" />
    </g>
  </g>
</svg>
