<?xml version="1.0" encoding="UTF-8"?>
<svg width="16" height="16" version="1.1" viewBox="0 0 16 16" xmlns="http://www.w3.org/2000/svg" xmlns:cc="http://creativecommons.org/ns#" xmlns:dc="http://purl.org/dc/elements/1.1/" xmlns:rdf="http://www.w3.org/1999/02/22-rdf-syntax-ns#">
 <metadata>
  <rdf:RDF>
   <cc:Work rdf:about="">
    <dc:format>image/svg+xml</dc:format>
    <dc:type rdf:resource="http://purl.org/dc/dcmitype/StillImage"/>
    <dc:title/>
   </cc:Work>
  </rdf:RDF>
 </metadata>
 <g fill="#0ff" stroke-width="1.6">
  <path d="m8 14.4h1.6l-0.4 1.2-1.2 0.4"/>
  <path d="m6.4 14.4h1.6v1.6l-1.2-0.4"/>
  <path d="m12.8 12.8h1.6l-0.4 1.2-1.2 0.4"/>
  <path d="m10.8 13.2 0.8-0.8 1.2 0.4v1.6l-1.2-0.4"/>
  <path d="m8 12.8 1.2-0.4 0.8 0.8-0.4 1.2h-1.6"/>
  <path d="m6 13.2 0.8-0.8 1.2 0.4v1.6h-1.6"/>
  <path d="m3.2 12.8 1.2-0.4 0.8 0.8-0.8 0.8-1.2 0.4"/>
  <path d="m1.6 12.8h1.6v1.6l-1.2-0.4"/>
  <path d="m12.4 11.6 0.8-0.8 0.8 0.8 0.4 1.2h-1.6"/>
  <path d="m11.2 11.2 1.2 0.4 0.4 1.2-1.2-0.4"/>
  <path d="m9.6 11.2h1.6l0.4 1.2-0.8 0.8h-0.8l-0.8-0.8"/>
  <path d="m8 11.2h1.6l-0.4 1.2-1.2 0.4"/>
  <path d="m6.4 11.2h1.6v1.6l-1.2-0.4"/>
  <path d="m4.8 11.2h1.6l0.4 1.2-0.8 0.8h-0.8l-0.8-0.8"/>
  <path d="m3.6 11.6 1.2-0.4-0.4 1.2-1.2 0.4"/>
  <path d="m2 11.6 0.8-0.8 0.8 0.8-0.4 1.2h-1.6"/>
  <path d="m11.2 9.6 1.2-0.4 0.8 0.8v0.8l-0.8 0.8-1.2-0.4"/>
  <path d="m10 10 1.2-0.4v1.6h-1.6"/>
  <path d="M 8,9.6 9.2,9.2 10,10 9.6,11.2 H 8"/>
  <path d="m6 10 0.8-0.8 1.2 0.4v1.6h-1.6"/>
  <path d="m4.8 9.6 1.2 0.4 0.4 1.2h-1.6"/>
  <path d="m2.8 10 0.8-0.8 1.2 0.4v1.6l-1.2 0.4-0.8-0.8"/>
  <path d="m14.4 8h1.6l-0.4 1.2-1.2 0.4"/>
  <path d="m12.8 8h1.6v1.6l-1.2 0.4-0.8-0.8"/>
  <path d="m11.2 8h1.6l-0.4 1.2-1.2 0.4"/>
  <path d="m9.6 8h1.6v1.6l-1.2 0.4-0.8-0.8"/>
  <path d="m4.8 8h1.6l0.4 1.2-0.8 0.8-1.2-0.4"/>
  <path d="m3.2 8h1.6v1.6l-1.2-0.4"/>
  <path d="m1.6 8h1.6l0.4 1.2-0.8 0.8-1.2-0.4"/>
  <path d="m0 8h1.6v1.6l-1.2-0.4"/>
  <path d="m14.4 6.4 1.2 0.4 0.4 1.2h-1.6"/>
  <path d="m12.4 6.8 0.8-0.8 1.2 0.4v1.6h-1.6"/>
  <path d="m11.2 6.4 1.2 0.4 0.4 1.2h-1.6"/>
  <path d="m9.2 6.8 0.8-0.8 1.2 0.4v1.6h-1.6"/>
  <path d="M 4.8,6.4 6,6 6.8,6.8 6.4,8 H 4.8"/>
  <path d="m3.6 6.8 1.2-0.4v1.6h-1.6"/>
  <path d="M 1.6,6.4 2.8,6 3.6,6.8 3.2,8 H 1.6"/>
  <path d="m0.4 6.8 1.2-0.4v1.6h-1.6"/>
  <path d="m11.2 4.8 1.2-0.4 0.8 0.8v0.8l-0.8 0.8-1.2-0.4"/>
  <path d="m9.6 4.8h1.6v1.6l-1.2-0.4"/>
  <path d="m8 4.8h1.6l0.4 1.2-0.8 0.8-1.2-0.4"/>
  <path d="m6.4 4.8h1.6v1.6l-1.2 0.4-0.8-0.8"/>
  <path d="m4.8 4.8h1.6l-0.4 1.2-1.2 0.4"/>
  <path d="m2.8 5.2 0.8-0.8 1.2 0.4v1.6l-1.2 0.4-0.8-0.8"/>
  <path d="m12.8 3.2h1.6l-0.4 1.2-0.8 0.8-0.8-0.8"/>
  <path d="m11.6 3.6 1.2-0.4-0.4 1.2-1.2 0.4"/>
  <path d="m9.2 3.6 0.8-0.8h0.8l0.8 0.8-0.4 1.2h-1.6"/>
  <path d="m8 3.2 1.2 0.4 0.4 1.2h-1.6"/>
  <path d="m6.8 3.6 1.2-0.4v1.6h-1.6"/>
  <path d="m4.4 3.6 0.8-0.8h0.8l0.8 0.8-0.4 1.2h-1.6"/>
  <path d="m3.2 3.2 1.2 0.4 0.4 1.2-1.2-0.4"/>
  <path d="m1.6 3.2h1.6l0.4 1.2-0.8 0.8-0.8-0.8"/>
  <path d="m12.8 1.6 1.2 0.4 0.4 1.2h-1.6"/>
  <path d="m11.6 2 1.2-0.4v1.6l-1.2 0.4-0.8-0.8"/>
  <path d="m8 1.6h1.6l0.4 1.2-0.8 0.8-1.2-0.4"/>
  <path d="m6.4 1.6h1.6v1.6l-1.2 0.4-0.8-0.8"/>
  <path d="M 3.2,1.6 4.4,2 5.2,2.8 4.4,3.6 3.2,3.2"/>
  <path d="m2 2 1.2-0.4v1.6h-1.6"/>
  <path d="m8 0 1.2 0.4 0.4 1.2h-1.6"/>
  <path d="m6.8 0.4 1.2-0.4v1.6h-1.6"/>
 </g>
</svg>
