<?xml version="1.0" encoding="UTF-8" standalone="no"?>
<svg
   xmlns:dc="http://purl.org/dc/elements/1.1/"
   xmlns:cc="http://creativecommons.org/ns#"
   xmlns:rdf="http://www.w3.org/1999/02/22-rdf-syntax-ns#"
   xmlns:svg="http://www.w3.org/2000/svg"
   xmlns="http://www.w3.org/2000/svg"
   xmlns:xlink="http://www.w3.org/1999/xlink"
   xmlns:sodipodi="http://sodipodi.sourceforge.net/DTD/sodipodi-0.dtd"
   xmlns:inkscape="http://www.inkscape.org/namespaces/inkscape"
   inkscape:version="1.0 (4035a4fb49, 2020-05-01)"
   sodipodi:docname="cog_gold.svg"
   viewBox="0 0 16 16"
   height="16"
   width="16"
   id="svg34"
   version="1.1">
  <metadata
     id="metadata40">
    <rdf:RDF>
      <cc:Work
         rdf:about="">
        <dc:format>image/svg+xml</dc:format>
        <dc:type
           rdf:resource="http://purl.org/dc/dcmitype/StillImage" />
        <dc:title></dc:title>
      </cc:Work>
    </rdf:RDF>
  </metadata>
  <defs
     id="defs38" />
  <sodipodi:namedview
     inkscape:current-layer="g42"
     inkscape:window-maximized="1"
     inkscape:window-y="296"
     inkscape:window-x="-8"
     inkscape:cy="8.8026284"
     inkscape:cx="6.6813963"
     inkscape:zoom="25.544232"
     showgrid="false"
     id="namedview36"
     inkscape:window-height="745"
     inkscape:window-width="1366"
     inkscape:pageshadow="2"
     inkscape:pageopacity="0"
     guidetolerance="10"
     gridtolerance="10"
     objecttolerance="10"
     borderopacity="1"
     bordercolor="#666666"
     pagecolor="#ffffff" />
  <g
     id="g42"
     inkscape:label="Image"
     inkscape:groupmode="layer">
    <image
       sodipodi:absref="C:\Users\oscar\Desktop\#Oscar\Programmation\website\projects\assembly\images\cog_gold.png"
       xlink:href="cog_gold.png"
       width="16"
       height="16"
       preserveAspectRatio="none"
       id="image44" />
    <g
       id="g1098">
      <path
         id="path1610"
         d="m 15,15 h 1 v 1 h -1"
         style="fill:#000000;fill-opacity:0" />
      <path
         id="path1608"
         d="M 14.25,15.25 15,15 v 1 h -1"
         style="fill:#000000;fill-opacity:0" />
      <path
         id="path1606"
         d="m 13,15 0.75,-0.25 0.5,0.5 L 14,16 h -1"
         style="fill:#000000;fill-opacity:0" />
      <path
         id="path1604"
         d="m 11.75,15.25 0.5,-0.5 L 13,15 v 1 h -1"
         style="fill:#000000;fill-opacity:0" />
      <path
         id="path1602"
         d="M 11,15 11.75,15.25 12,16 h -1"
         style="fill:#000000;fill-opacity:0" />
      <path
         id="path1600"
         d="M 10.25,15.25 11,15 v 1 h -1"
         style="fill:#000000;fill-opacity:0" />
      <path
         id="path1598"
         d="m 9.25,15.25 0.5,-0.5 0.5,0.5 L 10,16 H 9"
         style="fill:#000000;fill-opacity:0" />
      <path
         id="path1596"
         d="m 8,15 0.75,-0.25 0.5,0.5 L 9,16 H 8"
         style="fill:#fff200;fill-opacity:1" />
      <path
         id="path1594"
         d="M 6.75,15.25 7.25,14.75 8,15 v 1 H 7"
         style="fill:#fff200;fill-opacity:1" />
      <path
         id="path1592"
         d="m 5.75,15.25 0.5,-0.5 0.5,0.5 L 7,16 H 6"
         style="fill:#000000;fill-opacity:0" />
      <path
         id="path1590"
         d="M 5,15 5.75,15.25 6,16 H 5"
         style="fill:#000000;fill-opacity:0" />
      <path
         id="path1588"
         d="M 4.25,15.25 5,15 v 1 H 4"
         style="fill:#000000;fill-opacity:0" />
      <path
         id="path1586"
         d="m 3,15 0.75,-0.25 0.5,0.5 L 4,16 H 3"
         style="fill:#000000;fill-opacity:0" />
      <path
         id="path1584"
         d="M 1.75,15.25 2.25,14.75 3,15 v 1 H 2"
         style="fill:#000000;fill-opacity:0" />
      <path
         id="path1582"
         d="M 1,15 1.75,15.25 2,16 H 1"
         style="fill:#000000;fill-opacity:0" />
      <path
         id="path1580"
         d="m 0,15 h 1 v 1 H 0"
         style="fill:#000000;fill-opacity:0" />
      <path
         id="path1578"
         d="M 15.25,14.25 16,14 v 1 h -1"
         style="fill:#000000;fill-opacity:0" />
      <path
         id="path1576"
         d="m 14.25,14.25 0.5,-0.5 0.5,0.5 L 15,15 l -0.75,0.25 -0.5,-0.5"
         style="fill:#000000;fill-opacity:0" />
      <path
         id="path1574"
         d="m 13,14 0.75,-0.25 0.5,0.5 -0.5,0.5 L 13,15"
         style="fill:#fff200;fill-opacity:1" />
      <path
         id="path1572"
         d="m 11.75,14.25 0.5,-0.5 L 13,14 v 1 l -0.75,-0.25"
         style="fill:#fff200;fill-opacity:1" />
      <path
         id="path1570"
         d="m 10.75,14.25 0.5,-0.5 0.5,0.5 0.5,0.5 -0.5,0.5 L 11,15"
         style="fill:#000000;fill-opacity:0" />
      <path
         id="path1568"
         d="M 10,14 10.75,14.25 11,15 10.25,15.25 9.75,14.75"
         style="fill:#000000;fill-opacity:0" />
      <path
         id="path1566"
         d="m 9,14 h 1 l -0.25,0.75 -0.5,0.5 -0.5,-0.5"
         style="fill:#fff200;fill-opacity:1" />
      <path
         id="path1564"
         d="M 8,14 H 9 L 8.75,14.75 8,15"
         style="fill:#fff200;fill-opacity:1" />
      <path
         id="path1562"
         d="m 7,14 h 1 v 1 L 7.25,14.75"
         style="fill:#fff200;fill-opacity:1" />
      <path
         id="path1560"
         d="m 6,14 h 1 l 0.25,0.75 -0.5,0.5 -0.5,-0.5"
         style="fill:#fff200;fill-opacity:1" />
      <path
         id="path1558"
         d="M 5.25,14.25 6,14 6.25,14.75 5.75,15.25 5,15"
         style="fill:#000000;fill-opacity:0" />
      <path
         id="path1556"
         d="m 4.25,14.25 0.5,-0.5 0.5,0.5 L 5,15 4.25,15.25 3.75,14.75"
         style="fill:#000000;fill-opacity:0" />
      <path
         id="path1554"
         d="m 3,14 0.75,-0.25 0.5,0.5 -0.5,0.5 L 3,15"
         style="fill:#fff200;fill-opacity:1" />
      <path
         id="path1552"
         d="M 1.75,14.25 2.25,13.75 3,14 v 1 L 2.25,14.75"
         style="fill:#fff200;fill-opacity:1" />
      <path
         id="path1550"
         d="m 0.75,14.25 0.5,-0.5 0.5,0.5 0.5,0.5 -0.5,0.5 L 1,15"
         style="fill:#000000;fill-opacity:0" />
      <path
         id="path1548"
         d="M 0,14 0.75,14.25 1,15 H 0"
         style="fill:#000000;fill-opacity:0" />
      <path
         id="path1546"
         d="m 15,13 h 1 v 1 l -0.75,0.25 -0.5,-0.5"
         style="fill:#000000;fill-opacity:0" />
      <path
         id="path1544"
         d="m 14,13 h 1 l -0.25,0.75 -0.5,0.5 -0.5,-0.5"
         style="fill:#fff200;fill-opacity:1" />
      <path
         id="path1542"
         d="m 13,13 h 1 L 13.75,13.75 13,14"
         style="fill:#fff200;fill-opacity:1" />
      <path
         id="path1540"
         d="m 12,13 h 1 v 1 l -0.75,-0.25"
         style="fill:#fff200;fill-opacity:1" />
      <path
         id="path1538"
         d="m 10.75,13.25 0.5,-0.5 0.75,0.25 0.25,0.75 -0.5,0.5 -0.5,-0.5"
         style="fill:#fff200;fill-opacity:1" />
      <path
         id="path1536"
         d="m 10.25,13.25 h 0.5 l 0.5,0.5 -0.5,0.5 L 10,14"
         style="fill:#000000;fill-opacity:0" />
      <path
         id="path1534"
         d="m 9,13 0.75,-0.25 0.5,0.5 L 10,14 H 9"
         style="fill:#fff200;fill-opacity:1" />
      <path
         id="path1532"
         d="m 8,13 h 1 v 1 H 8"
         style="fill:#fff200;fill-opacity:1" />
      <path
         id="path1530"
         d="m 7,13 h 1 v 1 H 7"
         style="fill:#fff200;fill-opacity:1" />
      <path
         id="path1528"
         d="M 5.75,13.25 6.25,12.75 7,13 v 1 H 6"
         style="fill:#fff200;fill-opacity:1" />
      <path
         id="path1526"
         d="m 5.25,13.25 h 0.5 L 6,14 5.25,14.25 4.75,13.75"
         style="fill:#000000;fill-opacity:0" />
      <path
         id="path1524"
         d="m 4,13 0.75,-0.25 0.5,0.5 -0.5,0.5 -0.5,0.5 -0.5,-0.5"
         style="fill:#fff200;fill-opacity:1" />
      <path
         id="path1522"
         d="M 3,13 H 4 L 3.75,13.75 3,14"
         style="fill:#fff200;fill-opacity:1" />
      <path
         id="path1520"
         d="m 2,13 h 1 v 1 L 2.25,13.75"
         style="fill:#fff200;fill-opacity:1" />
      <path
         id="path1518"
         d="m 1,13 h 1 l 0.25,0.75 -0.5,0.5 -0.5,-0.5"
         style="fill:#fff200;fill-opacity:1" />
      <path
         id="path1516"
         d="m 0,13 h 1 l 0.25,0.75 -0.5,0.5 L 0,14"
         style="fill:#000000;fill-opacity:0" />
      <path
         id="path1514"
         d="m 14.75,12.25 0.5,-0.5 L 16,12 v 1 h -1"
         style="fill:#000000;fill-opacity:0" />
      <path
         id="path1512"
         d="m 13.75,12.25 0.5,-0.5 0.5,0.5 L 15,13 h -1"
         style="fill:#fff200;fill-opacity:1" />
      <path
         id="path1510"
         d="M 13,12 13.75,12.25 14,13 h -1"
         style="fill:#fff200;fill-opacity:1" />
      <path
         id="path1508"
         d="m 12,12 h 1 v 1 h -1"
         style="fill:#fff200;fill-opacity:1" />
      <path
         id="path1506"
         d="m 11,12 h 1 v 1 l -0.75,-0.25"
         style="fill:#fff200;fill-opacity:1" />
      <path
         id="path1504"
         d="m 10,12 h 1 l 0.25,0.75 -0.5,0.5 h -0.5 l -0.5,-0.5"
         style="fill:#fff200;fill-opacity:1" />
      <path
         id="path1502"
         d="m 9,12 h 1 L 9.75,12.75 9,13"
         style="fill:#fff200;fill-opacity:1" />
      <path
         id="path1500"
         d="m 8,12 h 1 v 1 H 8"
         style="fill:#fff200;fill-opacity:1" />
      <path
         id="path1498"
         d="m 7,12 h 1 v 1 H 7"
         style="fill:#fff200;fill-opacity:1" />
      <path
         id="path1496"
         d="m 6,12 h 1 v 1 L 6.25,12.75"
         style="fill:#fff200;fill-opacity:1" />
      <path
         id="path1494"
         d="m 5,12 h 1 l 0.25,0.75 -0.5,0.5 h -0.5 l -0.5,-0.5"
         style="fill:#fff200;fill-opacity:1" />
      <path
         id="path1492"
         d="M 4,12 H 5 L 4.75,12.75 4,13"
         style="fill:#fff200;fill-opacity:1" />
      <path
         id="path1490"
         d="m 3,12 h 1 v 1 H 3"
         style="fill:#fff200;fill-opacity:1" />
      <path
         id="path1488"
         d="M 2.25,12.25 3,12 v 1 H 2"
         style="fill:#fff200;fill-opacity:1" />
      <path
         id="path1486"
         d="m 1.25,12.25 0.5,-0.5 0.5,0.5 L 2,13 H 1"
         style="fill:#fff200;fill-opacity:1" />
      <path
         id="path1484"
         d="m 0,12 0.75,-0.25 0.5,0.5 L 1,13 H 0"
         style="fill:#000000;fill-opacity:0" />
      <path
         id="path1482"
         d="m 15,11 h 1 v 1 l -0.75,-0.25"
         style="fill:#000000;fill-opacity:0" />
      <path
         id="path1480"
         d="m 13.75,11.25 0.5,-0.5 0.75,0.25 0.25,0.75 -0.5,0.5 -0.5,-0.5"
         style="fill:#000000;fill-opacity:0" />
      <path
         id="path1478"
         d="m 12.75,11.25 0.5,-0.5 0.5,0.5 0.5,0.5 -0.5,0.5 L 13,12"
         style="fill:#fff200;fill-opacity:1" />
      <path
         id="path1476"
         d="M 12,11 12.75,11.25 13,12 h -1"
         style="fill:#fff200;fill-opacity:1" />
      <path
         id="path1474"
         d="m 11,11 h 1 v 1 h -1"
         style="fill:#fff200;fill-opacity:1" />
      <path
         id="path1472"
         d="m 10,11 h 1 v 1 h -1"
         style="fill:#fff200;fill-opacity:1" />
      <path
         id="path1470"
         d="m 9,11 h 1 v 1 H 9"
         style="fill:#fff200;fill-opacity:1" />
      <path
         id="path1468"
         d="m 8,11 h 1 v 1 H 8"
         style="fill:#fff200;fill-opacity:1" />
      <path
         id="path1466"
         d="m 7,11 h 1 v 1 H 7"
         style="fill:#fff200;fill-opacity:1" />
      <path
         id="path1464"
         d="m 6,11 h 1 v 1 H 6"
         style="fill:#fff200;fill-opacity:1" />
      <path
         id="path1462"
         d="m 5,11 h 1 v 1 H 5"
         style="fill:#fff200;fill-opacity:1" />
      <path
         id="path1460"
         d="m 4,11 h 1 v 1 H 4"
         style="fill:#fff200;fill-opacity:1" />
      <path
         id="path1458"
         d="M 3.25,11.25 4,11 v 1 H 3"
         style="fill:#fff200;fill-opacity:1" />
      <path
         id="path1456"
         d="m 2.25,11.25 0.5,-0.5 0.5,0.5 L 3,12 2.25,12.25 1.75,11.75"
         style="fill:#fff200;fill-opacity:1" />
      <path
         id="path1454"
         d="m 1,11 0.75,-0.25 0.5,0.5 -0.5,0.5 -0.5,0.5 -0.5,-0.5"
         style="fill:#000000;fill-opacity:0" />
      <path
         id="path1452"
         d="M 0,11 H 1 L 0.75,11.75 0,12"
         style="fill:#000000;fill-opacity:0" />
      <path
         id="path1450"
         d="M 15.25,10.25 16,10 v 1 h -1"
         style="fill:#000000;fill-opacity:0" />
      <path
         id="path1448"
         d="m 14,10 0.75,-0.25 0.5,0.5 L 15,11 14.25,10.75"
         style="fill:#000000;fill-opacity:0" />
      <path
         id="path1446"
         d="M 13.25,10.25 14,10 l 0.25,0.75 -0.5,0.5 -0.5,-0.5"
         style="fill:#000000;fill-opacity:0" />
      <path
         id="path1444"
         d="m 12,10 0.75,-0.25 0.5,0.5 v 0.5 l -0.5,0.5 L 12,11"
         style="fill:#fff200;fill-opacity:1" />
      <path
         id="path1442"
         d="m 11,10 h 1 v 1 h -1"
         style="fill:#fff200;fill-opacity:1" />
      <path
         id="path1440"
         d="m 10,10 h 1 v 1 h -1"
         style="fill:#fff200;fill-opacity:1" />
      <path
         id="path1438"
         d="M 9.25,10.25 10,10 v 1 H 9"
         style="fill:#fff200;fill-opacity:1" />
      <path
         id="path1436"
         d="M 8,10 8.75,9.75 9.25,10.25 9,11 H 8"
         style="fill:#fff200;fill-opacity:1" />
      <path
         id="path1434"
         d="M 6.75,10.25 7.25,9.75 8,10 v 1 H 7"
         style="fill:#fff200;fill-opacity:1" />
      <path
         id="path1432"
         d="M 6,10 6.75,10.25 7,11 H 6"
         style="fill:#fff200;fill-opacity:1" />
      <path
         id="path1430"
         d="m 5,10 h 1 v 1 H 5"
         style="fill:#fff200;fill-opacity:1" />
      <path
         id="path1428"
         d="m 4,10 h 1 v 1 H 4"
         style="fill:#fff200;fill-opacity:1" />
      <path
         id="path1426"
         d="M 2.75,10.25 3.25,9.75 4,10 v 1 l -0.75,0.25 -0.5,-0.5"
         style="fill:#fff200;fill-opacity:1" />
      <path
         id="path1424"
         d="m 2,10 0.75,0.25 v 0.5 l -0.5,0.5 -0.5,-0.5"
         style="fill:#000000;fill-opacity:0" />
      <path
         id="path1422"
         d="M 0.75,10.25 1.25,9.75 2,10 1.75,10.75 1,11"
         style="fill:#000000;fill-opacity:0" />
      <path
         id="path1420"
         d="M 0,10 0.75,10.25 1,11 H 0"
         style="fill:#000000;fill-opacity:0" />
      <path
         id="path1418"
         d="M 15.25,9.25 16,9 v 1 l -0.75,0.25 -0.5,-0.5"
         style="fill:#000000;fill-opacity:0" />
      <path
         id="path1416"
         d="m 14,9 0.75,-0.25 0.5,0.5 -0.5,0.5 L 14,10"
         style="fill:#fff200;fill-opacity:1" />
      <path
         id="path1414"
         d="m 13,9 h 1 v 1 l -0.75,0.25 -0.5,-0.5"
         style="fill:#fff200;fill-opacity:1" />
      <path
         id="path1412"
         d="m 12,9 h 1 L 12.75,9.75 12,10"
         style="fill:#fff200;fill-opacity:1" />
      <path
         id="path1410"
         d="m 11,9 h 1 v 1 h -1"
         style="fill:#fff200;fill-opacity:1" />
      <path
         id="path1408"
         d="M 10.25,9.25 11,9 v 1 h -1"
         style="fill:#fff200;fill-opacity:1" />
      <path
         id="path1406"
         d="m 9.25,9.25 0.5,-0.5 0.5,0.5 L 10,10 9.25,10.25 8.75,9.75"
         style="fill:#fff200;fill-opacity:1" />
      <path
         id="path1404"
         d="M 8,9 8.75,8.75 9.25,9.25 8.75,9.75 8,10"
         style="fill:#000000;fill-opacity:0" />
      <path
         id="path1402"
         d="M 6.75,9.25 7.25,8.75 8,9 v 1 L 7.25,9.75"
         style="fill:#000000;fill-opacity:0" />
      <path
         id="path1400"
         d="m 5.75,9.25 0.5,-0.5 0.5,0.5 0.5,0.5 -0.5,0.5 L 6,10"
         style="fill:#fff200;fill-opacity:1" />
      <path
         id="path1398"
         d="M 5,9 5.75,9.25 6,10 H 5"
         style="fill:#fff200;fill-opacity:1" />
      <path
         id="path1396"
         d="m 4,9 h 1 v 1 H 4"
         style="fill:#fff200;fill-opacity:1" />
      <path
         id="path1394"
         d="m 3,9 h 1 v 1 L 3.25,9.75"
         style="fill:#fff200;fill-opacity:1" />
      <path
         id="path1392"
         d="M 2,9 H 3 L 3.25,9.75 2.75,10.25 2,10"
         style="fill:#fff200;fill-opacity:1" />
      <path
         id="path1390"
         d="M 0.75,9.25 1.25,8.75 2,9 v 1 L 1.25,9.75"
         style="fill:#fff200;fill-opacity:1" />
      <path
         id="path1388"
         d="m 0,9 0.75,0.25 0.5,0.5 -0.5,0.5 L 0,10"
         style="fill:#000000;fill-opacity:0" />
      <path
         id="path1386"
         d="m 15,8 h 1 v 1 l -0.75,0.25 -0.5,-0.5"
         style="fill:#fff200;fill-opacity:1" />
      <path
         id="path1384"
         d="m 14,8 h 1 L 14.75,8.75 14,9"
         style="fill:#fff200;fill-opacity:1" />
      <path
         id="path1382"
         d="m 13,8 h 1 v 1 h -1"
         style="fill:#fff200;fill-opacity:1" />
      <path
         id="path1380"
         d="m 12,8 h 1 v 1 h -1"
         style="fill:#fff200;fill-opacity:1" />
      <path
         id="path1378"
         d="m 11,8 h 1 v 1 h -1"
         style="fill:#fff200;fill-opacity:1" />
      <path
         id="path1376"
         d="m 10,8 h 1 v 1 l -0.75,0.25 -0.5,-0.5"
         style="fill:#fff200;fill-opacity:1" />
      <path
         id="path1374"
         d="m 9,8 h 1 l -0.25,0.75 -0.5,0.5 -0.5,-0.5"
         style="fill:#000000;fill-opacity:0" />
      <path
         id="path1372"
         d="M 8,8 H 9 L 8.75,8.75 8,9"
         style="fill:#000000;fill-opacity:0" />
      <path
         id="path1370"
         d="M 7,8 H 8 V 9 L 7.25,8.75"
         style="fill:#000000;fill-opacity:0" />
      <path
         id="path1368"
         d="m 6,8 h 1 l 0.25,0.75 -0.5,0.5 -0.5,-0.5"
         style="fill:#000000;fill-opacity:0" />
      <path
         id="path1366"
         d="M 5,8 H 6 L 6.25,8.75 5.75,9.25 5,9"
         style="fill:#fff200;fill-opacity:1" />
      <path
         id="path1364"
         d="M 4,8 H 5 V 9 H 4"
         style="fill:#fff200;fill-opacity:1" />
      <path
         id="path1362"
         d="M 3,8 H 4 V 9 H 3"
         style="fill:#fff200;fill-opacity:1" />
      <path
         id="path1360"
         d="M 2,8 H 3 V 9 H 2"
         style="fill:#fff200;fill-opacity:1" />
      <path
         id="path1358"
         d="M 1,8 H 2 V 9 L 1.25,8.75"
         style="fill:#fff200;fill-opacity:1" />
      <path
         id="path1356"
         d="M 0,8 H 1 L 1.25,8.75 0.75,9.25 0,9"
         style="fill:#fff200;fill-opacity:1" />
      <path
         id="path1354"
         d="M 14.75,7.25 15.25,6.75 16,7 v 1 h -1"
         style="fill:#fff200;fill-opacity:1" />
      <path
         id="path1352"
         d="M 14,7 14.75,7.25 15,8 h -1"
         style="fill:#fff200;fill-opacity:1" />
      <path
         id="path1350"
         d="m 13,7 h 1 v 1 h -1"
         style="fill:#fff200;fill-opacity:1" />
      <path
         id="path1348"
         d="m 12,7 h 1 v 1 h -1"
         style="fill:#fff200;fill-opacity:1" />
      <path
         id="path1346"
         d="m 11,7 h 1 v 1 h -1"
         style="fill:#fff200;fill-opacity:1" />
      <path
         id="path1344"
         d="M 9.75,7.25 10.25,6.75 11,7 v 1 h -1"
         style="fill:#fff200;fill-opacity:1" />
      <path
         id="path1342"
         d="m 8.75,7.25 0.5,-0.5 0.5,0.5 L 10,8 H 9"
         style="fill:#000000;fill-opacity:0" />
      <path
         id="path1340"
         d="M 8,7 8.75,7.25 9,8 H 8"
         style="fill:#000000;fill-opacity:0" />
      <path
         id="path1338"
         d="M 7.25,7.25 8,7 V 8 H 7"
         style="fill:#000000;fill-opacity:0" />
      <path
         id="path1336"
         d="m 6.25,7.25 0.5,-0.5 0.5,0.5 L 7,8 H 6"
         style="fill:#000000;fill-opacity:0" />
      <path
         id="path1334"
         d="M 5,7 5.75,6.75 6.25,7.25 6,8 H 5"
         style="fill:#fff200;fill-opacity:1" />
      <path
         id="path1332"
         d="M 4,7 H 5 V 8 H 4"
         style="fill:#fff200;fill-opacity:1" />
      <path
         id="path1330"
         d="M 3,7 H 4 V 8 H 3"
         style="fill:#fff200;fill-opacity:1" />
      <path
         id="path1328"
         d="M 2,7 H 3 V 8 H 2"
         style="fill:#fff200;fill-opacity:1" />
      <path
         id="path1326"
         d="M 1.25,7.25 2,7 V 8 H 1"
         style="fill:#fff200;fill-opacity:1" />
      <path
         id="path1324"
         d="M 0,7 0.75,6.75 1.25,7.25 1,8 H 0"
         style="fill:#fff200;fill-opacity:1" />
      <path
         id="path1322"
         d="M 14.75,6.25 15.25,5.75 16,6 V 7 L 15.25,6.75"
         style="fill:#000000;fill-opacity:0" />
      <path
         id="path1320"
         d="m 14,6 0.75,0.25 0.5,0.5 -0.5,0.5 L 14,7"
         style="fill:#fff200;fill-opacity:1" />
      <path
         id="path1318"
         d="M 12.75,6.25 13.25,5.75 14,6 v 1 h -1"
         style="fill:#fff200;fill-opacity:1" />
      <path
         id="path1316"
         d="M 12,6 12.75,6.25 13,7 h -1"
         style="fill:#fff200;fill-opacity:1" />
      <path
         id="path1314"
         d="m 11,6 h 1 v 1 h -1"
         style="fill:#fff200;fill-opacity:1" />
      <path
         id="path1312"
         d="m 10,6 h 1 V 7 L 10.25,6.75"
         style="fill:#fff200;fill-opacity:1" />
      <path
         id="path1310"
         d="M 8.75,6.25 9.25,5.75 10,6 l 0.25,0.75 -0.5,0.5 -0.5,-0.5"
         style="fill:#fff200;fill-opacity:1" />
      <path
         id="path1308"
         d="m 8,6 0.75,0.25 0.5,0.5 -0.5,0.5 L 8,7"
         style="fill:#000000;fill-opacity:0" />
      <path
         id="path1306"
         d="M 7.25,6.25 8,6 V 7 L 7.25,7.25 6.75,6.75"
         style="fill:#000000;fill-opacity:0" />
      <path
         id="path1304"
         d="m 6,6 0.75,-0.25 0.5,0.5 -0.5,0.5 -0.5,0.5 -0.5,-0.5"
         style="fill:#fff200;fill-opacity:1" />
      <path
         id="path1302"
         d="M 5,6 H 6 L 5.75,6.75 5,7"
         style="fill:#fff200;fill-opacity:1" />
      <path
         id="path1300"
         d="M 4,6 H 5 V 7 H 4"
         style="fill:#fff200;fill-opacity:1" />
      <path
         id="path1298"
         d="M 3.25,6.25 4,6 V 7 H 3"
         style="fill:#fff200;fill-opacity:1" />
      <path
         id="path1296"
         d="M 2,6 2.75,5.75 3.25,6.25 3,7 H 2"
         style="fill:#fff200;fill-opacity:1" />
      <path
         id="path1294"
         d="M 1.25,6.25 2,6 V 7 L 1.25,7.25 0.75,6.75"
         style="fill:#fff200;fill-opacity:1" />
      <path
         id="path1292"
         d="M 0,6 0.75,5.75 1.25,6.25 0.75,6.75 0,7"
         style="fill:#000000;fill-opacity:0" />
      <path
         id="path1290"
         d="m 15,5 h 1 V 6 L 15.25,5.75"
         style="fill:#000000;fill-opacity:0" />
      <path
         id="path1288"
         d="M 14.25,5.25 15,5 15.25,5.75 14.75,6.25 14,6"
         style="fill:#000000;fill-opacity:0" />
      <path
         id="path1286"
         d="m 13.25,5.25 0.5,-0.5 0.5,0.5 L 14,6 13.25,5.75"
         style="fill:#000000;fill-opacity:0" />
      <path
         id="path1284"
         d="m 12,5 0.75,-0.25 0.5,0.5 v 0.5 L 12.75,6.25 12,6"
         style="fill:#fff200;fill-opacity:1" />
      <path
         id="path1282"
         d="m 11,5 h 1 v 1 h -1"
         style="fill:#fff200;fill-opacity:1" />
      <path
         id="path1280"
         d="m 10,5 h 1 v 1 h -1"
         style="fill:#fff200;fill-opacity:1" />
      <path
         id="path1278"
         d="m 9,5 h 1 V 6 L 9.25,5.75"
         style="fill:#fff200;fill-opacity:1" />
      <path
         id="path1276"
         d="M 8,5 H 9 L 9.25,5.75 8.75,6.25 8,6"
         style="fill:#fff200;fill-opacity:1" />
      <path
         id="path1274"
         d="M 7,5 H 8 V 6 L 7.25,6.25 6.75,5.75"
         style="fill:#fff200;fill-opacity:1" />
      <path
         id="path1272"
         d="M 6,5 H 7 L 6.75,5.75 6,6"
         style="fill:#fff200;fill-opacity:1" />
      <path
         id="path1270"
         d="M 5,5 H 6 V 6 H 5"
         style="fill:#fff200;fill-opacity:1" />
      <path
         id="path1268"
         d="M 4,5 H 5 V 6 H 4"
         style="fill:#fff200;fill-opacity:1" />
      <path
         id="path1266"
         d="M 2.75,5.25 3.25,4.75 4,5 V 6 L 3.25,6.25 2.75,5.75"
         style="fill:#fff200;fill-opacity:1" />
      <path
         id="path1264"
         d="m 1.75,5.25 0.5,-0.5 0.5,0.5 v 0.5 L 2,6"
         style="fill:#000000;fill-opacity:0" />
      <path
         id="path1262"
         d="M 1,5 1.75,5.25 2,6 1.25,6.25 0.75,5.75"
         style="fill:#000000;fill-opacity:0" />
      <path
         id="path1260"
         d="M 0,5 H 1 L 0.75,5.75 0,6"
         style="fill:#000000;fill-opacity:0" />
      <path
         id="path1258"
         d="M 15.25,4.25 16,4 v 1 h -1"
         style="fill:#000000;fill-opacity:0" />
      <path
         id="path1256"
         d="m 14.25,4.25 0.5,-0.5 0.5,0.5 L 15,5 14.25,5.25 13.75,4.75"
         style="fill:#000000;fill-opacity:0" />
      <path
         id="path1254"
         d="m 13,4 0.75,-0.25 0.5,0.5 -0.5,0.5 -0.5,0.5 -0.5,-0.5"
         style="fill:#fff200;fill-opacity:1" />
      <path
         id="path1252"
         d="m 12,4 h 1 L 12.75,4.75 12,5"
         style="fill:#fff200;fill-opacity:1" />
      <path
         id="path1250"
         d="m 11,4 h 1 v 1 h -1"
         style="fill:#fff200;fill-opacity:1" />
      <path
         id="path1248"
         d="m 10,4 h 1 v 1 h -1"
         style="fill:#fff200;fill-opacity:1" />
      <path
         id="path1246"
         d="m 9,4 h 1 V 5 H 9"
         style="fill:#fff200;fill-opacity:1" />
      <path
         id="path1244"
         d="M 8,4 H 9 V 5 H 8"
         style="fill:#fff200;fill-opacity:1" />
      <path
         id="path1242"
         d="M 7,4 H 8 V 5 H 7"
         style="fill:#fff200;fill-opacity:1" />
      <path
         id="path1240"
         d="M 6,4 H 7 V 5 H 6"
         style="fill:#fff200;fill-opacity:1" />
      <path
         id="path1238"
         d="M 5,4 H 6 V 5 H 5"
         style="fill:#fff200;fill-opacity:1" />
      <path
         id="path1236"
         d="M 4,4 H 5 V 5 H 4"
         style="fill:#fff200;fill-opacity:1" />
      <path
         id="path1234"
         d="M 3,4 H 4 V 5 L 3.25,4.75"
         style="fill:#fff200;fill-opacity:1" />
      <path
         id="path1232"
         d="M 1.75,4.25 2.25,3.75 3,4 3.25,4.75 2.75,5.25 2.25,4.75"
         style="fill:#fff200;fill-opacity:1" />
      <path
         id="path1230"
         d="m 0.75,4.25 0.5,-0.5 0.5,0.5 0.5,0.5 -0.5,0.5 L 1,5"
         style="fill:#000000;fill-opacity:0" />
      <path
         id="path1228"
         d="M 0,4 0.75,4.25 1,5 H 0"
         style="fill:#000000;fill-opacity:0" />
      <path
         id="path1226"
         d="m 15,3 h 1 v 1 l -0.75,0.25 -0.5,-0.5"
         style="fill:#000000;fill-opacity:0" />
      <path
         id="path1224"
         d="m 14,3 h 1 l -0.25,0.75 -0.5,0.5 -0.5,-0.5"
         style="fill:#fff200;fill-opacity:1" />
      <path
         id="path1222"
         d="m 13,3 h 1 L 13.75,3.75 13,4"
         style="fill:#fff200;fill-opacity:1" />
      <path
         id="path1220"
         d="m 12,3 h 1 v 1 h -1"
         style="fill:#fff200;fill-opacity:1" />
      <path
         id="path1218"
         d="M 11.25,3.25 12,3 v 1 h -1"
         style="fill:#fff200;fill-opacity:1" />
      <path
         id="path1216"
         d="m 9.75,3.25 0.5,-0.5 h 0.5 l 0.5,0.5 L 11,4 h -1"
         style="fill:#fff200;fill-opacity:1" />
      <path
         id="path1214"
         d="M 9,3 9.75,3.25 10,4 H 9"
         style="fill:#fff200;fill-opacity:1" />
      <path
         id="path1212"
         d="M 8,3 H 9 V 4 H 8"
         style="fill:#fff200;fill-opacity:1" />
      <path
         id="path1210"
         d="M 7,3 H 8 V 4 H 7"
         style="fill:#fff200;fill-opacity:1" />
      <path
         id="path1208"
         d="M 6.25,3.25 7,3 V 4 H 6"
         style="fill:#fff200;fill-opacity:1" />
      <path
         id="path1206"
         d="m 4.75,3.25 0.5,-0.5 h 0.5 L 6.25,3.25 6,4 H 5"
         style="fill:#fff200;fill-opacity:1" />
      <path
         id="path1204"
         d="M 4,3 4.75,3.25 5,4 H 4"
         style="fill:#fff200;fill-opacity:1" />
      <path
         id="path1202"
         d="M 3,3 H 4 V 4 H 3"
         style="fill:#fff200;fill-opacity:1" />
      <path
         id="path1200"
         d="M 2,3 H 3 V 4 L 2.25,3.75"
         style="fill:#fff200;fill-opacity:1" />
      <path
         id="path1198"
         d="m 1,3 h 1 l 0.25,0.75 -0.5,0.5 -0.5,-0.5"
         style="fill:#fff200;fill-opacity:1" />
      <path
         id="path1196"
         d="M 0,3 H 1 L 1.25,3.75 0.75,4.25 0,4"
         style="fill:#000000;fill-opacity:0" />
      <path
         id="path1194"
         d="M 14.75,2.25 15.25,1.75 16,2 v 1 h -1"
         style="fill:#000000;fill-opacity:0" />
      <path
         id="path1192"
         d="m 13.75,2.25 0.5,-0.5 0.5,0.5 L 15,3 h -1"
         style="fill:#fff200;fill-opacity:1" />
      <path
         id="path1190"
         d="M 13,2 13.75,2.25 14,3 h -1"
         style="fill:#fff200;fill-opacity:1" />
      <path
         id="path1188"
         d="M 12.25,2.25 13,2 v 1 h -1"
         style="fill:#fff200;fill-opacity:1" />
      <path
         id="path1186"
         d="m 11.25,2.25 0.5,-0.5 0.5,0.5 L 12,3 11.25,3.25 10.75,2.75"
         style="fill:#fff200;fill-opacity:1" />
      <path
         id="path1184"
         d="m 10,2 0.75,-0.25 0.5,0.5 -0.5,0.5 h -0.5"
         style="fill:#000000;fill-opacity:0" />
      <path
         id="path1182"
         d="m 9,2 h 1 L 10.25,2.75 9.75,3.25 9,3"
         style="fill:#fff200;fill-opacity:1" />
      <path
         id="path1180"
         d="M 8,2 H 9 V 3 H 8"
         style="fill:#fff200;fill-opacity:1" />
      <path
         id="path1178"
         d="M 7,2 H 8 V 3 H 7"
         style="fill:#fff200;fill-opacity:1" />
      <path
         id="path1176"
         d="M 6,2 H 7 V 3 L 6.25,3.25 5.75,2.75"
         style="fill:#fff200;fill-opacity:1" />
      <path
         id="path1174"
         d="M 4.75,2.25 5.25,1.75 6,2 5.75,2.75 h -0.5"
         style="fill:#000000;fill-opacity:0" />
      <path
         id="path1172"
         d="m 3.75,2.25 0.5,-0.5 0.5,0.5 0.5,0.5 -0.5,0.5 L 4,3"
         style="fill:#fff200;fill-opacity:1" />
      <path
         id="path1170"
         d="M 3,2 3.75,2.25 4,3 H 3"
         style="fill:#fff200;fill-opacity:1" />
      <path
         id="path1168"
         d="M 2.25,2.25 3,2 V 3 H 2"
         style="fill:#fff200;fill-opacity:1" />
      <path
         id="path1166"
         d="m 1.25,2.25 0.5,-0.5 0.5,0.5 L 2,3 H 1"
         style="fill:#fff200;fill-opacity:1" />
      <path
         id="path1164"
         d="M 0,2 0.75,1.75 1.25,2.25 1,3 H 0"
         style="fill:#000000;fill-opacity:0" />
      <path
         id="path1162"
         d="m 15,1 h 1 V 2 L 15.25,1.75"
         style="fill:#000000;fill-opacity:0" />
      <path
         id="path1160"
         d="M 13.75,1.25 14.25,0.75 15,1 l 0.25,0.75 -0.5,0.5 -0.5,-0.5"
         style="fill:#000000;fill-opacity:0" />
      <path
         id="path1158"
         d="m 13,1 0.75,0.25 0.5,0.5 -0.5,0.5 L 13,2"
         style="fill:#fff200;fill-opacity:1" />
      <path
         id="path1156"
         d="M 12.25,1.25 13,1 v 1 l -0.75,0.25 -0.5,-0.5"
         style="fill:#fff200;fill-opacity:1" />
      <path
         id="path1154"
         d="m 11,1 0.75,-0.25 0.5,0.5 -0.5,0.5 -0.5,0.5 -0.5,-0.5"
         style="fill:#000000;fill-opacity:0" />
      <path
         id="path1152"
         d="M 9.75,1.25 10.25,0.75 11,1 10.75,1.75 10,2"
         style="fill:#000000;fill-opacity:0" />
      <path
         id="path1150"
         d="m 8.75,1.25 0.5,-0.5 0.5,0.5 L 10,2 H 9"
         style="fill:#fff200;fill-opacity:1" />
      <path
         id="path1148"
         d="M 8,1 8.75,1.25 9,2 H 8"
         style="fill:#fff200;fill-opacity:1" />
      <path
         id="path1146"
         d="M 7.25,1.25 8,1 V 2 H 7"
         style="fill:#fff200;fill-opacity:1" />
      <path
         id="path1144"
         d="m 6.25,1.25 0.5,-0.5 0.5,0.5 L 7,2 H 6"
         style="fill:#fff200;fill-opacity:1" />
      <path
         id="path1142"
         d="M 5,1 5.75,0.75 6.25,1.25 6,2 5.25,1.75"
         style="fill:#000000;fill-opacity:0" />
      <path
         id="path1140"
         d="M 3.75,1.25 4.25,0.75 5,1 5.25,1.75 4.75,2.25 4.25,1.75"
         style="fill:#000000;fill-opacity:0" />
      <path
         id="path1138"
         d="m 3,1 0.75,0.25 0.5,0.5 -0.5,0.5 L 3,2"
         style="fill:#fff200;fill-opacity:1" />
      <path
         id="path1136"
         d="M 2.25,1.25 3,1 V 2 L 2.25,2.25 1.75,1.75"
         style="fill:#fff200;fill-opacity:1" />
      <path
         id="path1134"
         d="m 1,1 0.75,-0.25 0.5,0.5 -0.5,0.5 -0.5,0.5 -0.5,-0.5"
         style="fill:#000000;fill-opacity:0" />
      <path
         id="path1132"
         d="M 0,1 H 1 L 0.75,1.75 0,2"
         style="fill:#000000;fill-opacity:0" />
      <path
         id="path1130"
         d="m 15,0 h 1 v 1 h -1"
         style="fill:#000000;fill-opacity:0" />
      <path
         id="path1128"
         d="m 14,0 h 1 V 1 L 14.25,0.75"
         style="fill:#000000;fill-opacity:0" />
      <path
         id="path1126"
         d="m 13,0 h 1 l 0.25,0.75 -0.5,0.5 L 13,1"
         style="fill:#000000;fill-opacity:0" />
      <path
         id="path1124"
         d="m 12,0 h 1 v 1 l -0.75,0.25 -0.5,-0.5"
         style="fill:#000000;fill-opacity:0" />
      <path
         id="path1122"
         d="m 11,0 h 1 L 11.75,0.75 11,1"
         style="fill:#000000;fill-opacity:0" />
      <path
         id="path1120"
         d="m 10,0 h 1 V 1 L 10.25,0.75"
         style="fill:#000000;fill-opacity:0" />
      <path
         id="path1118"
         d="m 9,0 h 1 l 0.25,0.75 -0.5,0.5 -0.5,-0.5"
         style="fill:#000000;fill-opacity:0" />
      <path
         id="path1116"
         d="M 8,0 H 9 L 9.25,0.75 8.75,1.25 8,1"
         style="fill:#fff200;fill-opacity:1" />
      <path
         id="path1114"
         d="M 7,0 H 8 V 1 L 7.25,1.25 6.75,0.75"
         style="fill:#fff200;fill-opacity:1" />
      <path
         id="path1112"
         d="M 6,0 H 7 L 6.75,0.75 6.25,1.25 5.75,0.75"
         style="fill:#000000;fill-opacity:0" />
      <path
         id="path1110"
         d="M 5,0 H 6 L 5.75,0.75 5,1"
         style="fill:#000000;fill-opacity:0" />
      <path
         id="path1108"
         d="M 4,0 H 5 V 1 L 4.25,0.75"
         style="fill:#000000;fill-opacity:0" />
      <path
         id="path1106"
         d="M 3,0 H 4 L 4.25,0.75 3.75,1.25 3,1"
         style="fill:#000000;fill-opacity:0" />
      <path
         id="path1104"
         d="M 2,0 H 3 V 1 L 2.25,1.25 1.75,0.75"
         style="fill:#000000;fill-opacity:0" />
      <path
         id="path1102"
         d="M 1,0 H 2 L 1.75,0.75 1,1"
         style="fill:#000000;fill-opacity:0" />
      <path
         id="path1100"
         d="M 0,0 H 1 V 1 H 0"
         style="fill:#000000;fill-opacity:0" />
    </g>
    <path
       d=""
       id="path1096"
       style="fill:#000000" />
    <path
       d=""
       id="path1094"
       style="fill:#000000" />
    <path
       d=""
       id="path50"
       style="fill:#000000" />
  </g>
</svg>
