<?xml version="1.0" encoding="UTF-8" standalone="no"?>
<svg
   xmlns:dc="http://purl.org/dc/elements/1.1/"
   xmlns:cc="http://creativecommons.org/ns#"
   xmlns:rdf="http://www.w3.org/1999/02/22-rdf-syntax-ns#"
   xmlns:svg="http://www.w3.org/2000/svg"
   xmlns="http://www.w3.org/2000/svg"
   xmlns:sodipodi="http://sodipodi.sourceforge.net/DTD/sodipodi-0.dtd"
   xmlns:inkscape="http://www.inkscape.org/namespaces/inkscape"
   inkscape:version="1.0 (4035a4fb49, 2020-05-01)"
   sodipodi:docname="roller.svg"
   viewBox="0 0 16 16"
   height="16"
   width="16"
   id="svg833"
   version="1.1">
  <metadata
     id="metadata839">
    <rdf:RDF>
      <cc:Work
         rdf:about="">
        <dc:format>image/svg+xml</dc:format>
        <dc:type
           rdf:resource="http://purl.org/dc/dcmitype/StillImage" />
        <dc:title></dc:title>
      </cc:Work>
    </rdf:RDF>
  </metadata>
  <defs
     id="defs837" />
  <sodipodi:namedview
     inkscape:current-layer="g841"
     inkscape:window-maximized="1"
     inkscape:window-y="439"
     inkscape:window-x="-8"
     inkscape:cy="8"
     inkscape:cx="8"
     inkscape:zoom="36.125"
     showgrid="false"
     id="namedview835"
     inkscape:window-height="745"
     inkscape:window-width="1366"
     inkscape:pageshadow="2"
     inkscape:pageopacity="0"
     guidetolerance="10"
     gridtolerance="10"
     objecttolerance="10"
     borderopacity="1"
     bordercolor="#666666"
     pagecolor="#ffffff" />
  <g
     id="g841"
     inkscape:label="Image"
     inkscape:groupmode="layer">
    <g
       id="g845">
      <path
         id="path1357"
         d="m 15,15 h 1 v 1 h -1"
         style="fill:#585858;fill-opacity:1" />
      <path
         id="path1355"
         d="m 14,15 h 1 v 1 h -1"
         style="fill:#000000;fill-opacity:1" />
      <path
         id="path1353"
         d="m 13,15 h 1 v 1 h -1"
         style="fill:#000000;fill-opacity:1" />
      <path
         id="path1351"
         d="m 12,15 h 1 v 1 h -1"
         style="fill:#000000;fill-opacity:1" />
      <path
         id="path1349"
         d="m 11,15 h 1 v 1 h -1"
         style="fill:#000000;fill-opacity:1" />
      <path
         id="path1347"
         d="m 10,15 h 1 v 1 h -1"
         style="fill:#000000;fill-opacity:1" />
      <path
         id="path1345"
         d="m 9,15 h 1 v 1 H 9"
         style="fill:#000000;fill-opacity:1" />
      <path
         id="path1343"
         d="m 8,15 h 1 v 1 H 8"
         style="fill:#000000;fill-opacity:1" />
      <path
         id="path1341"
         d="m 7,15 h 1 v 1 H 7"
         style="fill:#000000;fill-opacity:1" />
      <path
         id="path1339"
         d="m 6,15 h 1 v 1 H 6"
         style="fill:#000000;fill-opacity:1" />
      <path
         id="path1337"
         d="m 5,15 h 1 v 1 H 5"
         style="fill:#000000;fill-opacity:1" />
      <path
         id="path1335"
         d="m 4,15 h 1 v 1 H 4"
         style="fill:#000000;fill-opacity:1" />
      <path
         id="path1333"
         d="m 3,15 h 1 v 1 H 3"
         style="fill:#000000;fill-opacity:1" />
      <path
         id="path1331"
         d="m 2,15 h 1 v 1 H 2"
         style="fill:#000000;fill-opacity:1" />
      <path
         id="path1329"
         d="m 1,15 h 1 v 1 H 1"
         style="fill:#000000;fill-opacity:1" />
      <path
         id="path1327"
         d="m 0,15 h 1 v 1 H 0"
         style="fill:#585858;fill-opacity:1" />
      <path
         id="path1325"
         d="m 14.75,14.25 0.5,-0.5 L 16,14 v 1 h -1"
         style="fill:#585858;fill-opacity:1" />
      <path
         id="path1323"
         d="M 14,14 14.75,14.25 15,15 h -1"
         style="fill:#000000;fill-opacity:1" />
      <path
         id="path1321"
         d="m 13,14 h 1 v 1 h -1"
         style="fill:#000000;fill-opacity:1" />
      <path
         id="path1319"
         d="m 12,14 h 1 v 1 h -1"
         style="fill:#000000;fill-opacity:1" />
      <path
         id="path1317"
         d="m 11,14 h 1 v 1 h -1"
         style="fill:#000000;fill-opacity:1" />
      <path
         id="path1315"
         d="m 10,14 h 1 v 1 h -1"
         style="fill:#000000;fill-opacity:1" />
      <path
         id="path1313"
         d="m 9,14 h 1 v 1 H 9"
         style="fill:#000000;fill-opacity:1" />
      <path
         id="path1311"
         d="m 8,14 h 1 v 1 H 8"
         style="fill:#000000;fill-opacity:1" />
      <path
         id="path1309"
         d="m 7,14 h 1 v 1 H 7"
         style="fill:#000000;fill-opacity:1" />
      <path
         id="path1307"
         d="m 6,14 h 1 v 1 H 6"
         style="fill:#000000;fill-opacity:1" />
      <path
         id="path1305"
         d="m 5,14 h 1 v 1 H 5"
         style="fill:#000000;fill-opacity:1" />
      <path
         id="path1303"
         d="m 4,14 h 1 v 1 H 4"
         style="fill:#000000;fill-opacity:1" />
      <path
         id="path1301"
         d="m 3,14 h 1 v 1 H 3"
         style="fill:#000000;fill-opacity:1" />
      <path
         id="path1299"
         d="m 2,14 h 1 v 1 H 2"
         style="fill:#000000;fill-opacity:1" />
      <path
         id="path1297"
         d="M 1.25,14.25 2,14 v 1 H 1"
         style="fill:#000000;fill-opacity:1" />
      <path
         id="path1295"
         d="m 0,14 0.75,-0.25 0.5,0.5 L 1,15 H 0"
         style="fill:#585858;fill-opacity:1" />
      <path
         id="path1293"
         d="m 15,13 h 1 v 1 l -0.75,-0.25"
         style="fill:#585858;fill-opacity:1" />
      <path
         id="path1291"
         d="m 14,13 h 1 l 0.25,0.75 -0.5,0.5 L 14,14"
         style="fill:#373737;fill-opacity:1" />
      <path
         id="path1289"
         d="m 13,13 h 1 v 1 h -1"
         style="fill:#373737;fill-opacity:1" />
      <path
         id="path1287"
         d="m 12,13 h 1 v 1 h -1"
         style="fill:#373737;fill-opacity:1" />
      <path
         id="path1285"
         d="m 11,13 h 1 v 1 h -1"
         style="fill:#373737;fill-opacity:1" />
      <path
         id="path1283"
         d="m 10,13 h 1 v 1 h -1"
         style="fill:#373737;fill-opacity:1" />
      <path
         id="path1281"
         d="m 9,13 h 1 v 1 H 9"
         style="fill:#373737;fill-opacity:1" />
      <path
         id="path1279"
         d="m 8,13 h 1 v 1 H 8"
         style="fill:#373737;fill-opacity:1" />
      <path
         id="path1277"
         d="m 7,13 h 1 v 1 H 7"
         style="fill:#373737;fill-opacity:1" />
      <path
         id="path1275"
         d="m 6,13 h 1 v 1 H 6"
         style="fill:#373737;fill-opacity:1" />
      <path
         id="path1273"
         d="m 5,13 h 1 v 1 H 5"
         style="fill:#373737;fill-opacity:1" />
      <path
         id="path1271"
         d="m 4,13 h 1 v 1 H 4"
         style="fill:#373737;fill-opacity:1" />
      <path
         id="path1269"
         d="m 3,13 h 1 v 1 H 3"
         style="fill:#373737;fill-opacity:1" />
      <path
         id="path1267"
         d="m 2,13 h 1 v 1 H 2"
         style="fill:#373737;fill-opacity:1" />
      <path
         id="path1265"
         d="m 1,13 h 1 v 1 l -0.75,0.25 -0.5,-0.5"
         style="fill:#373737;fill-opacity:1" />
      <path
         id="path1263"
         d="M 0,13 H 1 L 0.75,13.75 0,14"
         style="fill:#585858;fill-opacity:1" />
      <path
         id="path1261"
         d="M 15.25,12.25 16,12 v 1 h -1"
         style="fill:#585858;fill-opacity:1" />
      <path
         id="path1259"
         d="m 14,12 0.75,-0.25 0.5,0.5 L 15,13 h -1"
         style="fill:#373737;fill-opacity:1" />
      <path
         id="path1257"
         d="m 13,12 h 1 v 1 h -1"
         style="fill:#373737;fill-opacity:1" />
      <path
         id="path1255"
         d="m 12,12 h 1 v 1 h -1"
         style="fill:#373737;fill-opacity:1" />
      <path
         id="path1253"
         d="m 11,12 h 1 v 1 h -1"
         style="fill:#373737;fill-opacity:1" />
      <path
         id="path1251"
         d="m 10,12 h 1 v 1 h -1"
         style="fill:#373737;fill-opacity:1" />
      <path
         id="path1249"
         d="M 8.75,12.25 9.25,11.75 10,12 v 1 H 9"
         style="fill:#373737;fill-opacity:1" />
      <path
         id="path1247"
         d="M 8,12 8.75,12.25 9,13 H 8"
         style="fill:#373737;fill-opacity:1" />
      <path
         id="path1245"
         d="M 7.25,12.25 8,12 v 1 H 7"
         style="fill:#373737;fill-opacity:1" />
      <path
         id="path1243"
         d="m 6,12 0.75,-0.25 0.5,0.5 L 7,13 H 6"
         style="fill:#373737;fill-opacity:1" />
      <path
         id="path1241"
         d="m 5,12 h 1 v 1 H 5"
         style="fill:#373737;fill-opacity:1" />
      <path
         id="path1239"
         d="m 4,12 h 1 v 1 H 4"
         style="fill:#373737;fill-opacity:1" />
      <path
         id="path1237"
         d="m 3,12 h 1 v 1 H 3"
         style="fill:#373737;fill-opacity:1" />
      <path
         id="path1235"
         d="m 2,12 h 1 v 1 H 2"
         style="fill:#373737;fill-opacity:1" />
      <path
         id="path1233"
         d="M 0.75,12.25 1.25,11.75 2,12 v 1 H 1"
         style="fill:#373737;fill-opacity:1" />
      <path
         id="path1231"
         d="M 0,12 0.75,12.25 1,13 H 0"
         style="fill:#585858;fill-opacity:1" />
      <path
         id="path1229"
         d="m 15,11 h 1 v 1 l -0.75,0.25 -0.5,-0.5"
         style="fill:#585858;fill-opacity:1" />
      <path
         id="path1227"
         d="m 14,11 h 1 L 14.75,11.75 14,12"
         style="fill:#000000;fill-opacity:1" />
      <path
         id="path1225"
         d="m 13,11 h 1 v 1 h -1"
         style="fill:#000000;fill-opacity:1" />
      <path
         id="path1223"
         d="m 12,11 h 1 v 1 h -1"
         style="fill:#000000;fill-opacity:1" />
      <path
         id="path1221"
         d="m 11,11 h 1 v 1 h -1"
         style="fill:#000000;fill-opacity:1" />
      <path
         id="path1219"
         d="M 10.25,11.25 11,11 v 1 h -1"
         style="fill:#000000;fill-opacity:1" />
      <path
         id="path1217"
         d="m 9.25,11.25 0.5,-0.5 0.5,0.5 L 10,12 9.25,11.75"
         style="fill:#000000;fill-opacity:1" />
      <path
         id="path1215"
         d="m 8,11 0.75,-0.25 0.5,0.5 v 0.5 L 8.75,12.25 8,12"
         style="fill:#585858;fill-opacity:1" />
      <path
         id="path1213"
         d="M 6.75,11.25 7.25,10.75 8,11 v 1 l -0.75,0.25 -0.5,-0.5"
         style="fill:#585858;fill-opacity:1" />
      <path
         id="path1211"
         d="m 5.75,11.25 0.5,-0.5 0.5,0.5 v 0.5 L 6,12"
         style="fill:#000000;fill-opacity:1" />
      <path
         id="path1209"
         d="M 5,11 5.75,11.25 6,12 H 5"
         style="fill:#000000;fill-opacity:1" />
      <path
         id="path1207"
         d="m 4,11 h 1 v 1 H 4"
         style="fill:#000000;fill-opacity:1" />
      <path
         id="path1205"
         d="m 3,11 h 1 v 1 H 3"
         style="fill:#000000;fill-opacity:1" />
      <path
         id="path1203"
         d="m 2,11 h 1 v 1 H 2"
         style="fill:#000000;fill-opacity:1" />
      <path
         id="path1201"
         d="m 1,11 h 1 v 1 L 1.25,11.75"
         style="fill:#000000;fill-opacity:1" />
      <path
         id="path1199"
         d="m 0,11 h 1 l 0.25,0.75 -0.5,0.5 L 0,12"
         style="fill:#585858;fill-opacity:1" />
      <path
         id="path1197"
         d="m 15,10 h 1 v 1 h -1"
         style="fill:#585858;fill-opacity:1" />
      <path
         id="path1195"
         d="m 14,10 h 1 v 1 h -1"
         style="fill:#000000;fill-opacity:1" />
      <path
         id="path1193"
         d="m 13,10 h 1 v 1 h -1"
         style="fill:#000000;fill-opacity:1" />
      <path
         id="path1191"
         d="m 12,10 h 1 v 1 h -1"
         style="fill:#000000;fill-opacity:1" />
      <path
         id="path1189"
         d="M 11.25,10.25 12,10 v 1 h -1"
         style="fill:#000000;fill-opacity:1" />
      <path
         id="path1187"
         d="m 10.25,10.25 0.5,-0.5 0.5,0.5 L 11,11 l -0.75,0.25 -0.5,-0.5"
         style="fill:#000000;fill-opacity:1" />
      <path
         id="path1185"
         d="m 9,10 0.75,-0.25 0.5,0.5 -0.5,0.5 -0.5,0.5 -0.5,-0.5"
         style="fill:#585858;fill-opacity:1" />
      <path
         id="path1183"
         d="M 8,10 H 9 L 8.75,10.75 8,11"
         style="fill:#585858;fill-opacity:1" />
      <path
         id="path1181"
         d="m 7,10 h 1 v 1 L 7.25,10.75"
         style="fill:#585858;fill-opacity:1" />
      <path
         id="path1179"
         d="M 5.75,10.25 6.25,9.75 7,10 l 0.25,0.75 -0.5,0.5 -0.5,-0.5"
         style="fill:#585858;fill-opacity:1" />
      <path
         id="path1177"
         d="m 4.75,10.25 0.5,-0.5 0.5,0.5 0.5,0.5 -0.5,0.5 L 5,11"
         style="fill:#000000;fill-opacity:1" />
      <path
         id="path1175"
         d="M 4,10 4.75,10.25 5,11 H 4"
         style="fill:#000000;fill-opacity:1" />
      <path
         id="path1173"
         d="m 3,10 h 1 v 1 H 3"
         style="fill:#000000;fill-opacity:1" />
      <path
         id="path1171"
         d="m 2,10 h 1 v 1 H 2"
         style="fill:#000000;fill-opacity:1" />
      <path
         id="path1169"
         d="m 1,10 h 1 v 1 H 1"
         style="fill:#000000;fill-opacity:1" />
      <path
         id="path1167"
         d="m 0,10 h 1 v 1 H 0"
         style="fill:#585858;fill-opacity:1" />
      <path
         id="path1165"
         d="M 14.75,9.25 15.25,8.75 16,9 v 1 h -1"
         style="fill:#585858;fill-opacity:1" />
      <path
         id="path1163"
         d="M 14,9 14.75,9.25 15,10 h -1"
         style="fill:#000000;fill-opacity:1" />
      <path
         id="path1161"
         d="m 13,9 h 1 v 1 h -1"
         style="fill:#000000;fill-opacity:1" />
      <path
         id="path1159"
         d="m 12,9 h 1 v 1 h -1"
         style="fill:#000000;fill-opacity:1" />
      <path
         id="path1157"
         d="M 11.25,9.25 12,9 v 1 l -0.75,0.25 -0.5,-0.5"
         style="fill:#000000;fill-opacity:1" />
      <path
         id="path1155"
         d="m 10,9 0.75,-0.25 0.5,0.5 -0.5,0.5 -0.5,0.5 -0.5,-0.5"
         style="fill:#585858;fill-opacity:1" />
      <path
         id="path1153"
         d="m 9,9 h 1 L 9.75,9.75 9,10"
         style="fill:#585858;fill-opacity:1" />
      <path
         id="path1151"
         d="m 8,9 h 1 v 1 H 8"
         style="fill:#585858;fill-opacity:1" />
      <path
         id="path1149"
         d="m 7,9 h 1 v 1 H 7"
         style="fill:#585858;fill-opacity:1" />
      <path
         id="path1147"
         d="m 6,9 h 1 v 1 L 6.25,9.75"
         style="fill:#585858;fill-opacity:1" />
      <path
         id="path1145"
         d="M 4.75,9.25 5.25,8.75 6,9 l 0.25,0.75 -0.5,0.5 -0.5,-0.5"
         style="fill:#585858;fill-opacity:1" />
      <path
         id="path1143"
         d="m 4,9 0.75,0.25 0.5,0.5 -0.5,0.5 L 4,10"
         style="fill:#000000;fill-opacity:1" />
      <path
         id="path1141"
         d="m 3,9 h 1 v 1 H 3"
         style="fill:#000000;fill-opacity:1" />
      <path
         id="path1139"
         d="m 2,9 h 1 v 1 H 2"
         style="fill:#000000;fill-opacity:1" />
      <path
         id="path1137"
         d="M 1.25,9.25 2,9 v 1 H 1"
         style="fill:#000000;fill-opacity:1" />
      <path
         id="path1135"
         d="M 0,9 0.75,8.75 1.25,9.25 1,10 H 0"
         style="fill:#585858;fill-opacity:1" />
      <path
         id="path1133"
         d="m 15,8 h 1 V 9 L 15.25,8.75"
         style="fill:#585858;fill-opacity:1" />
      <path
         id="path1131"
         d="m 14,8 h 1 l 0.25,0.75 -0.5,0.5 L 14,9"
         style="fill:#373737;fill-opacity:1" />
      <path
         id="path1129"
         d="m 13,8 h 1 v 1 h -1"
         style="fill:#373737;fill-opacity:1" />
      <path
         id="path1127"
         d="m 12,8 h 1 v 1 h -1"
         style="fill:#373737;fill-opacity:1" />
      <path
         id="path1125"
         d="m 11,8 h 1 v 1 l -0.75,0.25 -0.5,-0.5"
         style="fill:#585858;fill-opacity:1" />
      <path
         id="path1123"
         d="m 10,8 h 1 L 10.75,8.75 10,9"
         style="fill:#585858;fill-opacity:1" />
      <path
         id="path1121"
         d="m 9,8 h 1 V 9 H 9"
         style="fill:#585858;fill-opacity:1" />
      <path
         id="path1119"
         d="M 8,8 H 9 V 9 H 8"
         style="fill:#585858;fill-opacity:1" />
      <path
         id="path1117"
         d="M 7,8 H 8 V 9 H 7"
         style="fill:#585858;fill-opacity:1" />
      <path
         id="path1115"
         d="M 6,8 H 7 V 9 H 6"
         style="fill:#585858;fill-opacity:1" />
      <path
         id="path1113"
         d="M 5,8 H 6 V 9 L 5.25,8.75"
         style="fill:#585858;fill-opacity:1" />
      <path
         id="path1111"
         d="M 4,8 H 5 L 5.25,8.75 4.75,9.25 4,9"
         style="fill:#585858;fill-opacity:1" />
      <path
         id="path1109"
         d="M 3,8 H 4 V 9 H 3"
         style="fill:#373737;fill-opacity:1" />
      <path
         id="path1107"
         d="M 2,8 H 3 V 9 H 2"
         style="fill:#373737;fill-opacity:1" />
      <path
         id="path1105"
         d="M 1,8 H 2 V 9 L 1.25,9.25 0.75,8.75"
         style="fill:#373737;fill-opacity:1" />
      <path
         id="path1103"
         d="M 0,8 H 1 L 0.75,8.75 0,9"
         style="fill:#585858;fill-opacity:1" />
      <path
         id="path1101"
         d="M 15.25,7.25 16,7 v 1 h -1"
         style="fill:#585858;fill-opacity:1" />
      <path
         id="path1099"
         d="m 14,7 0.75,-0.25 0.5,0.5 L 15,8 h -1"
         style="fill:#373737;fill-opacity:1" />
      <path
         id="path1097"
         d="m 13,7 h 1 v 1 h -1"
         style="fill:#373737;fill-opacity:1" />
      <path
         id="path1095"
         d="m 12,7 h 1 v 1 h -1"
         style="fill:#373737;fill-opacity:1" />
      <path
         id="path1093"
         d="m 11,7 h 1 v 1 h -1"
         style="fill:#373737;fill-opacity:1" />
      <path
         id="path1091"
         d="m 10,7 h 1 v 1 h -1"
         style="fill:#373737;fill-opacity:1" />
      <path
         id="path1089"
         d="M 8.75,7.25 9.25,6.75 10,7 V 8 H 9"
         style="fill:#373737;fill-opacity:1" />
      <path
         id="path1087"
         d="M 8,7 8.75,7.25 9,8 H 8"
         style="fill:#585858;fill-opacity:1" />
      <path
         id="path1085"
         d="M 7.25,7.25 8,7 V 8 H 7"
         style="fill:#585858;fill-opacity:1" />
      <path
         id="path1083"
         d="M 6,7 6.75,6.75 7.25,7.25 7,8 H 6"
         style="fill:#373737;fill-opacity:1" />
      <path
         id="path1081"
         d="M 5,7 H 6 V 8 H 5"
         style="fill:#373737;fill-opacity:1" />
      <path
         id="path1079"
         d="M 4,7 H 5 V 8 H 4"
         style="fill:#373737;fill-opacity:1" />
      <path
         id="path1077"
         d="M 3,7 H 4 V 8 H 3"
         style="fill:#373737;fill-opacity:1" />
      <path
         id="path1075"
         d="M 2,7 H 3 V 8 H 2"
         style="fill:#373737;fill-opacity:1" />
      <path
         id="path1073"
         d="M 0.75,7.25 1.25,6.75 2,7 V 8 H 1"
         style="fill:#373737;fill-opacity:1" />
      <path
         id="path1071"
         d="M 0,7 0.75,7.25 1,8 H 0"
         style="fill:#585858;fill-opacity:1" />
      <path
         id="path1069"
         d="m 15,6 h 1 v 1 l -0.75,0.25 -0.5,-0.5"
         style="fill:#585858;fill-opacity:1" />
      <path
         id="path1067"
         d="m 14,6 h 1 L 14.75,6.75 14,7"
         style="fill:#000000;fill-opacity:1" />
      <path
         id="path1065"
         d="m 13,6 h 1 v 1 h -1"
         style="fill:#000000;fill-opacity:1" />
      <path
         id="path1063"
         d="m 12,6 h 1 v 1 h -1"
         style="fill:#000000;fill-opacity:1" />
      <path
         id="path1061"
         d="m 11,6 h 1 v 1 h -1"
         style="fill:#000000;fill-opacity:1" />
      <path
         id="path1059"
         d="m 10,6 h 1 v 1 h -1"
         style="fill:#000000;fill-opacity:1" />
      <path
         id="path1057"
         d="m 9,6 h 1 V 7 L 9.25,6.75"
         style="fill:#000000;fill-opacity:1" />
      <path
         id="path1055"
         d="M 8,6 H 9 L 9.25,6.75 8.75,7.25 8,7"
         style="fill:#585858;fill-opacity:1" />
      <path
         id="path1053"
         d="M 7,6 H 8 V 7 L 7.25,7.25 6.75,6.75"
         style="fill:#585858;fill-opacity:1" />
      <path
         id="path1051"
         d="M 6,6 H 7 L 6.75,6.75 6,7"
         style="fill:#000000;fill-opacity:1" />
      <path
         id="path1049"
         d="M 5,6 H 6 V 7 H 5"
         style="fill:#000000;fill-opacity:1" />
      <path
         id="path1047"
         d="M 4,6 H 5 V 7 H 4"
         style="fill:#000000;fill-opacity:1" />
      <path
         id="path1045"
         d="M 3,6 H 4 V 7 H 3"
         style="fill:#000000;fill-opacity:1" />
      <path
         id="path1043"
         d="M 2,6 H 3 V 7 H 2"
         style="fill:#000000;fill-opacity:1" />
      <path
         id="path1041"
         d="M 1,6 H 2 V 7 L 1.25,6.75"
         style="fill:#000000;fill-opacity:1" />
      <path
         id="path1039"
         d="M 0,6 H 1 L 1.25,6.75 0.75,7.25 0,7"
         style="fill:#585858;fill-opacity:1" />
      <path
         id="path1037"
         d="m 15,5 h 1 v 1 h -1"
         style="fill:#585858;fill-opacity:1" />
      <path
         id="path1035"
         d="m 14,5 h 1 v 1 h -1"
         style="fill:#000000;fill-opacity:1" />
      <path
         id="path1033"
         d="m 13,5 h 1 v 1 h -1"
         style="fill:#000000;fill-opacity:1" />
      <path
         id="path1031"
         d="m 12,5 h 1 v 1 h -1"
         style="fill:#000000;fill-opacity:1" />
      <path
         id="path1029"
         d="m 11,5 h 1 v 1 h -1"
         style="fill:#000000;fill-opacity:1" />
      <path
         id="path1027"
         d="m 10,5 h 1 v 1 h -1"
         style="fill:#000000;fill-opacity:1" />
      <path
         id="path1025"
         d="m 9,5 h 1 V 6 H 9"
         style="fill:#000000;fill-opacity:1" />
      <path
         id="path1023"
         d="M 8,5 H 9 V 6 H 8"
         style="fill:#585858;fill-opacity:1" />
      <path
         id="path1021"
         d="M 7,5 H 8 V 6 H 7"
         style="fill:#585858;fill-opacity:1" />
      <path
         id="path1019"
         d="M 6,5 H 7 V 6 H 6"
         style="fill:#000000;fill-opacity:1" />
      <path
         id="path1017"
         d="M 5,5 H 6 V 6 H 5"
         style="fill:#000000;fill-opacity:1" />
      <path
         id="path1015"
         d="M 4,5 H 5 V 6 H 4"
         style="fill:#000000;fill-opacity:1" />
      <path
         id="path1013"
         d="M 3,5 H 4 V 6 H 3"
         style="fill:#000000;fill-opacity:1" />
      <path
         id="path1011"
         d="M 2,5 H 3 V 6 H 2"
         style="fill:#000000;fill-opacity:1" />
      <path
         id="path1009"
         d="M 1,5 H 2 V 6 H 1"
         style="fill:#000000;fill-opacity:1" />
      <path
         id="path1007"
         d="M 0,5 H 1 V 6 H 0"
         style="fill:#585858;fill-opacity:1" />
      <path
         id="path1005"
         d="M 14.75,4.25 15.25,3.75 16,4 v 1 h -1"
         style="fill:#585858;fill-opacity:1" />
      <path
         id="path1003"
         d="M 14,4 14.75,4.25 15,5 h -1"
         style="fill:#000000;fill-opacity:1" />
      <path
         id="path1001"
         d="m 13,4 h 1 v 1 h -1"
         style="fill:#000000;fill-opacity:1" />
      <path
         id="path999"
         d="m 12,4 h 1 v 1 h -1"
         style="fill:#000000;fill-opacity:1" />
      <path
         id="path997"
         d="m 11,4 h 1 v 1 h -1"
         style="fill:#000000;fill-opacity:1" />
      <path
         id="path995"
         d="m 10,4 h 1 v 1 h -1"
         style="fill:#000000;fill-opacity:1" />
      <path
         id="path993"
         d="M 9.25,4.25 10,4 V 5 H 9"
         style="fill:#000000;fill-opacity:1" />
      <path
         id="path991"
         d="M 8,4 8.75,3.75 9.25,4.25 9,5 H 8"
         style="fill:#585858;fill-opacity:1" />
      <path
         id="path989"
         d="M 6.75,4.25 7.25,3.75 8,4 V 5 H 7"
         style="fill:#585858;fill-opacity:1" />
      <path
         id="path987"
         d="M 6,4 6.75,4.25 7,5 H 6"
         style="fill:#000000;fill-opacity:1" />
      <path
         id="path985"
         d="M 5,4 H 6 V 5 H 5"
         style="fill:#000000;fill-opacity:1" />
      <path
         id="path983"
         d="M 4,4 H 5 V 5 H 4"
         style="fill:#000000;fill-opacity:1" />
      <path
         id="path981"
         d="M 3,4 H 4 V 5 H 3"
         style="fill:#000000;fill-opacity:1" />
      <path
         id="path979"
         d="M 2,4 H 3 V 5 H 2"
         style="fill:#000000;fill-opacity:1" />
      <path
         id="path977"
         d="M 1.25,4.25 2,4 V 5 H 1"
         style="fill:#000000;fill-opacity:1" />
      <path
         id="path975"
         d="M 0,4 0.75,3.75 1.25,4.25 1,5 H 0"
         style="fill:#585858;fill-opacity:1" />
      <path
         id="path973"
         d="m 15,3 h 1 V 4 L 15.25,3.75"
         style="fill:#585858;fill-opacity:1" />
      <path
         id="path971"
         d="m 14,3 h 1 l 0.25,0.75 -0.5,0.5 L 14,4"
         style="fill:#373737;fill-opacity:1" />
      <path
         id="path969"
         d="m 13,3 h 1 v 1 h -1"
         style="fill:#373737;fill-opacity:1" />
      <path
         id="path967"
         d="m 12,3 h 1 v 1 h -1"
         style="fill:#373737;fill-opacity:1" />
      <path
         id="path965"
         d="m 11,3 h 1 v 1 h -1"
         style="fill:#373737;fill-opacity:1" />
      <path
         id="path963"
         d="m 10,3 h 1 v 1 h -1"
         style="fill:#373737;fill-opacity:1" />
      <path
         id="path961"
         d="m 9,3 h 1 V 4 L 9.25,4.25 8.75,3.75"
         style="fill:#373737;fill-opacity:1" />
      <path
         id="path959"
         d="M 8,3 H 9 L 8.75,3.75 8,4"
         style="fill:#585858;fill-opacity:1" />
      <path
         id="path957"
         d="M 7,3 H 8 V 4 L 7.25,3.75"
         style="fill:#585858;fill-opacity:1" />
      <path
         id="path955"
         d="M 6,3 H 7 L 7.25,3.75 6.75,4.25 6,4"
         style="fill:#373737;fill-opacity:1" />
      <path
         id="path953"
         d="M 5,3 H 6 V 4 H 5"
         style="fill:#373737;fill-opacity:1" />
      <path
         id="path951"
         d="M 4,3 H 5 V 4 H 4"
         style="fill:#373737;fill-opacity:1" />
      <path
         id="path949"
         d="M 3,3 H 4 V 4 H 3"
         style="fill:#373737;fill-opacity:1" />
      <path
         id="path947"
         d="M 2,3 H 3 V 4 H 2"
         style="fill:#373737;fill-opacity:1" />
      <path
         id="path945"
         d="M 1,3 H 2 V 4 L 1.25,4.25 0.75,3.75"
         style="fill:#373737;fill-opacity:1" />
      <path
         id="path943"
         d="M 0,3 H 1 L 0.75,3.75 0,4"
         style="fill:#585858;fill-opacity:1" />
      <path
         id="path941"
         d="M 15.25,2.25 16,2 v 1 h -1"
         style="fill:#585858;fill-opacity:1" />
      <path
         id="path939"
         d="m 14,2 0.75,-0.25 0.5,0.5 L 15,3 h -1"
         style="fill:#373737;fill-opacity:1" />
      <path
         id="path937"
         d="m 13,2 h 1 v 1 h -1"
         style="fill:#373737;fill-opacity:1" />
      <path
         id="path935"
         d="m 12,2 h 1 v 1 h -1"
         style="fill:#373737;fill-opacity:1" />
      <path
         id="path933"
         d="m 11,2 h 1 v 1 h -1"
         style="fill:#373737;fill-opacity:1" />
      <path
         id="path931"
         d="m 10,2 h 1 v 1 h -1"
         style="fill:#373737;fill-opacity:1" />
      <path
         id="path929"
         d="m 9,2 h 1 V 3 H 9"
         style="fill:#373737;fill-opacity:1" />
      <path
         id="path927"
         d="M 8,2 H 9 V 3 H 8"
         style="fill:#373737;fill-opacity:1" />
      <path
         id="path925"
         d="M 7,2 H 8 V 3 H 7"
         style="fill:#373737;fill-opacity:1" />
      <path
         id="path923"
         d="M 6,2 H 7 V 3 H 6"
         style="fill:#373737;fill-opacity:1" />
      <path
         id="path921"
         d="M 5,2 H 6 V 3 H 5"
         style="fill:#373737;fill-opacity:1" />
      <path
         id="path919"
         d="M 4,2 H 5 V 3 H 4"
         style="fill:#373737;fill-opacity:1" />
      <path
         id="path917"
         d="M 3,2 H 4 V 3 H 3"
         style="fill:#373737;fill-opacity:1" />
      <path
         id="path915"
         d="M 2,2 H 3 V 3 H 2"
         style="fill:#373737;fill-opacity:1" />
      <path
         id="path913"
         d="M 0.75,2.25 1.25,1.75 2,2 V 3 H 1"
         style="fill:#373737;fill-opacity:1" />
      <path
         id="path911"
         d="M 0,2 0.75,2.25 1,3 H 0"
         style="fill:#585858;fill-opacity:1" />
      <path
         id="path909"
         d="m 15,1 h 1 v 1 l -0.75,0.25 -0.5,-0.5"
         style="fill:#585858;fill-opacity:1" />
      <path
         id="path907"
         d="m 14,1 h 1 L 14.75,1.75 14,2"
         style="fill:#000000;fill-opacity:1" />
      <path
         id="path905"
         d="m 13,1 h 1 v 1 h -1"
         style="fill:#000000;fill-opacity:1" />
      <path
         id="path903"
         d="m 12,1 h 1 v 1 h -1"
         style="fill:#000000;fill-opacity:1" />
      <path
         id="path901"
         d="m 11,1 h 1 v 1 h -1"
         style="fill:#000000;fill-opacity:1" />
      <path
         id="path899"
         d="m 10,1 h 1 v 1 h -1"
         style="fill:#000000;fill-opacity:1" />
      <path
         id="path897"
         d="m 9,1 h 1 V 2 H 9"
         style="fill:#000000;fill-opacity:1" />
      <path
         id="path895"
         d="M 8,1 H 9 V 2 H 8"
         style="fill:#000000;fill-opacity:1" />
      <path
         id="path893"
         d="M 7,1 H 8 V 2 H 7"
         style="fill:#000000;fill-opacity:1" />
      <path
         id="path891"
         d="M 6,1 H 7 V 2 H 6"
         style="fill:#000000;fill-opacity:1" />
      <path
         id="path889"
         d="M 5,1 H 6 V 2 H 5"
         style="fill:#000000;fill-opacity:1" />
      <path
         id="path887"
         d="M 4,1 H 5 V 2 H 4"
         style="fill:#000000;fill-opacity:1" />
      <path
         id="path885"
         d="M 3,1 H 4 V 2 H 3"
         style="fill:#000000;fill-opacity:1" />
      <path
         id="path883"
         d="M 2,1 H 3 V 2 H 2"
         style="fill:#000000;fill-opacity:1" />
      <path
         id="path881"
         d="M 1,1 H 2 V 2 L 1.25,1.75"
         style="fill:#000000;fill-opacity:1" />
      <path
         id="path879"
         d="M 0,1 H 1 L 1.25,1.75 0.75,2.25 0,2"
         style="fill:#585858;fill-opacity:1" />
      <path
         id="path877"
         d="m 15,0 h 1 v 1 h -1"
         style="fill:#585858;fill-opacity:1" />
      <path
         id="path875"
         d="m 14,0 h 1 v 1 h -1"
         style="fill:#000000;fill-opacity:1" />
      <path
         id="path873"
         d="m 13,0 h 1 v 1 h -1"
         style="fill:#000000;fill-opacity:1" />
      <path
         id="path871"
         d="m 12,0 h 1 v 1 h -1"
         style="fill:#000000;fill-opacity:1" />
      <path
         id="path869"
         d="m 11,0 h 1 v 1 h -1"
         style="fill:#000000;fill-opacity:1" />
      <path
         id="path867"
         d="m 10,0 h 1 v 1 h -1"
         style="fill:#000000;fill-opacity:1" />
      <path
         id="path865"
         d="m 9,0 h 1 V 1 H 9"
         style="fill:#000000;fill-opacity:1" />
      <path
         id="path863"
         d="M 8,0 H 9 V 1 H 8"
         style="fill:#000000;fill-opacity:1" />
      <path
         id="path861"
         d="M 7,0 H 8 V 1 H 7"
         style="fill:#000000;fill-opacity:1" />
      <path
         id="path859"
         d="M 6,0 H 7 V 1 H 6"
         style="fill:#000000;fill-opacity:1" />
      <path
         id="path857"
         d="M 5,0 H 6 V 1 H 5"
         style="fill:#000000;fill-opacity:1" />
      <path
         id="path855"
         d="M 4,0 H 5 V 1 H 4"
         style="fill:#000000;fill-opacity:1" />
      <path
         id="path853"
         d="M 3,0 H 4 V 1 H 3"
         style="fill:#000000;fill-opacity:1" />
      <path
         id="path851"
         d="M 2,0 H 3 V 1 H 2"
         style="fill:#000000;fill-opacity:1" />
      <path
         id="path849"
         d="M 1,0 H 2 V 1 H 1"
         style="fill:#000000;fill-opacity:1" />
      <path
         id="path847"
         d="M 0,0 H 1 V 1 H 0"
         style="fill:#585858;fill-opacity:1" />
    </g>
  </g>
</svg>
