<?xml version="1.0" encoding="UTF-8" standalone="no"?>
<svg
   xmlns:dc="http://purl.org/dc/elements/1.1/"
   xmlns:cc="http://creativecommons.org/ns#"
   xmlns:rdf="http://www.w3.org/1999/02/22-rdf-syntax-ns#"
   xmlns:svg="http://www.w3.org/2000/svg"
   xmlns="http://www.w3.org/2000/svg"
   xmlns:xlink="http://www.w3.org/1999/xlink"
   xmlns:sodipodi="http://sodipodi.sourceforge.net/DTD/sodipodi-0.dtd"
   xmlns:inkscape="http://www.inkscape.org/namespaces/inkscape"
   inkscape:version="1.0 (4035a4fb49, 2020-05-01)"
   sodipodi:docname="roller.svg"
   viewBox="0 0 16 16"
   height="16"
   width="16"
   id="svg10"
   version="1.1">
  <metadata
     id="metadata16">
    <rdf:RDF>
      <cc:Work
         rdf:about="">
        <dc:format>image/svg+xml</dc:format>
        <dc:type
           rdf:resource="http://purl.org/dc/dcmitype/StillImage" />
        <dc:title></dc:title>
      </cc:Work>
    </rdf:RDF>
  </metadata>
  <defs
     id="defs14" />
  <sodipodi:namedview
     inkscape:current-layer="g18"
     inkscape:window-maximized="1"
     inkscape:window-y="524"
     inkscape:window-x="-8"
     inkscape:cy="-1.04931"
     inkscape:cx="8.3497465"
     inkscape:zoom="51.088465"
     showgrid="false"
     id="namedview12"
     inkscape:window-height="745"
     inkscape:window-width="1366"
     inkscape:pageshadow="2"
     inkscape:pageopacity="0"
     guidetolerance="10"
     gridtolerance="10"
     objecttolerance="10"
     borderopacity="1"
     bordercolor="#666666"
     pagecolor="#ffffff" />
  <g
     id="g18"
     inkscape:label="Image"
     inkscape:groupmode="layer">
    <image
       sodipodi:absref="C:\Users\oscar\Desktop\#Oscar\Programmation\website\projects\assembly\images\roller.png"
       xlink:href="roller.png"
       id="image20"
       preserveAspectRatio="none"
       height="16"
       width="16"
       x="1.0012712e-07"
       y="4.9149779e-08" />
    <path
       style="fill:#000000;fill-opacity:1"
       d="m 11,15 h 1 v 1 h -1"
       id="path1042" />
    <path
       style="fill:#000000;fill-opacity:1"
       d="m 10,15 h 1 v 1 h -1"
       id="path1040" />
    <path
       style="fill:#000000;fill-opacity:1"
       d="m 9,15 h 1 v 1 H 9"
       id="path1038" />
    <path
       style="fill:#000000;fill-opacity:1"
       d="m 8,15 h 1 v 1 H 8"
       id="path1036" />
    <path
       style="fill:#000000;fill-opacity:1"
       d="m 7,15 h 1 v 1 H 7"
       id="path1034" />
    <path
       style="fill:#000000;fill-opacity:1"
       d="m 6,15 h 1 v 1 H 6"
       id="path1032" />
    <path
       style="fill:#000000;fill-opacity:1"
       d="m 5,15 h 1 v 1 H 5"
       id="path1030" />
    <path
       style="fill:#000000;fill-opacity:1"
       d="m 4,15 h 1 v 1 H 4"
       id="path1028" />
    <path
       style="fill:#000000;fill-opacity:1"
       d="m 3,15 h 1 v 1 H 3"
       id="path1026" />
    <path
       style="fill:#000000;fill-opacity:1"
       d="m 2,15 h 1 v 1 H 2"
       id="path1024" />
    <path
       style="fill:#000000;fill-opacity:1"
       d="m 11,14 h 1 v 1 h -1"
       id="path1010" />
    <path
       style="fill:#000000;fill-opacity:1"
       d="m 10,14 h 1 v 1 h -1"
       id="path1008" />
    <path
       style="fill:#000000;fill-opacity:1"
       d="m 9,14 h 1 v 1 H 9"
       id="path1006" />
    <path
       style="fill:#000000;fill-opacity:1"
       d="m 8,14 h 1 v 1 H 8"
       id="path1004" />
    <path
       style="fill:#000000;fill-opacity:1"
       d="m 7,14 h 1 v 1 H 7"
       id="path1002" />
    <path
       style="fill:#000000;fill-opacity:1"
       d="m 6,14 h 1 v 1 H 6"
       id="path1000" />
    <path
       style="fill:#000000;fill-opacity:1"
       d="m 5,14 h 1 v 1 H 5"
       id="path998" />
    <path
       style="fill:#000000;fill-opacity:1"
       d="m 4,14 h 1 v 1 H 4"
       id="path996" />
    <path
       style="fill:#000000;fill-opacity:1"
       d="m 3,14 h 1 v 1 H 3"
       id="path994" />
    <path
       style="fill:#000000;fill-opacity:1"
       d="m 2,14 h 1 v 1 H 2"
       id="path992" />
    <path
       style="fill:#373737;fill-opacity:1"
       d="m 11,13 h 1 v 1 h -1"
       id="path978" />
    <path
       style="fill:#373737;fill-opacity:1"
       d="m 10,13 h 1 v 1 h -1"
       id="path976" />
    <path
       style="fill:#373737;fill-opacity:1"
       d="m 9,13 h 1 v 1 H 9"
       id="path974" />
    <path
       style="fill:#373737;fill-opacity:1"
       d="m 8,13 h 1 v 1 H 8"
       id="path972" />
    <path
       style="fill:#373737;fill-opacity:1"
       d="m 7,13 h 1 v 1 H 7"
       id="path970" />
    <path
       style="fill:#373737;fill-opacity:1"
       d="m 6,13 h 1 v 1 H 6"
       id="path968" />
    <path
       style="fill:#373737;fill-opacity:1"
       d="m 5,13 h 1 v 1 H 5"
       id="path966" />
    <path
       style="fill:#373737;fill-opacity:1"
       d="m 4,13 h 1 v 1 H 4"
       id="path964" />
    <path
       style="fill:#373737;fill-opacity:1"
       d="m 3,13 h 1 v 1 H 3"
       id="path962" />
    <path
       style="fill:#373737;fill-opacity:1"
       d="m 2,13 h 1 v 1 H 2"
       id="path960" />
    <path
       style="fill:#373737;fill-opacity:1"
       d="m 11,12 h 1 v 1 h -1"
       id="path946" />
    <path
       style="fill:#373737;fill-opacity:1"
       d="m 10,12 h 1 v 1 h -1"
       id="path944" />
    <path
       style="fill:#373737;fill-opacity:1"
       d="m 9,12 h 1 v 1 H 9"
       id="path942" />
    <path
       style="fill:#373737;fill-opacity:1"
       d="m 8,12 h 1 v 1 H 8"
       id="path940" />
    <path
       style="fill:#373737;fill-opacity:1"
       d="m 7,12 h 1 v 1 H 7"
       id="path938" />
    <path
       style="fill:#373737;fill-opacity:1"
       d="m 6,12 h 1 v 1 H 6"
       id="path936" />
    <path
       style="fill:#373737;fill-opacity:1"
       d="m 5,12 h 1 v 1 H 5"
       id="path934" />
    <path
       style="fill:#373737;fill-opacity:1"
       d="m 4,12 h 1 v 1 H 4"
       id="path932" />
    <path
       style="fill:#373737;fill-opacity:1"
       d="m 3,12 h 1 v 1 H 3"
       id="path930" />
    <path
       style="fill:#373737;fill-opacity:1"
       d="m 2,12 h 1 v 1 H 2"
       id="path928" />
    <path
       style="fill:#000000;fill-opacity:1"
       d="m 11,11 h 1 v 1 h -1"
       id="path914" />
    <path
       style="fill:#000000;fill-opacity:1"
       d="m 10,11 h 1 v 1 h -1"
       id="path912" />
    <path
       style="fill:#000000;fill-opacity:1"
       d="m 9,11 h 1 v 1 H 9"
       id="path910" />
    <path
       style="fill:#000000;fill-opacity:1"
       d="m 8,11 h 1 v 1 H 8"
       id="path908" />
    <path
       style="fill:#000000;fill-opacity:1"
       d="m 7,11 h 1 v 1 H 7"
       id="path906" />
    <path
       style="fill:#000000;fill-opacity:1"
       d="m 6,11 h 1 v 1 H 6"
       id="path904" />
    <path
       style="fill:#000000;fill-opacity:1"
       d="m 5,11 h 1 v 1 H 5"
       id="path902" />
    <path
       style="fill:#000000;fill-opacity:1"
       d="m 4,11 h 1 v 1 H 4"
       id="path900" />
    <path
       style="fill:#000000;fill-opacity:1"
       d="m 3,11 h 1 v 1 H 3"
       id="path898" />
    <path
       style="fill:#000000;fill-opacity:1"
       d="m 2,11 h 1 v 1 H 2"
       id="path896" />
    <path
       style="fill:#000000;fill-opacity:1"
       d="m 11,10 h 1 v 1 h -1"
       id="path882" />
    <path
       style="fill:#000000;fill-opacity:1"
       d="m 10,10 h 1 v 1 h -1"
       id="path880" />
    <path
       style="fill:#000000;fill-opacity:1"
       d="m 9,10 h 1 v 1 H 9"
       id="path878" />
    <path
       style="fill:#000000;fill-opacity:1"
       d="m 8,10 h 1 v 1 H 8"
       id="path876" />
    <path
       style="fill:#000000;fill-opacity:1"
       d="m 7,10 h 1 v 1 H 7"
       id="path874" />
    <path
       style="fill:#000000;fill-opacity:1"
       d="m 6,10 h 1 v 1 H 6"
       id="path872" />
    <path
       style="fill:#000000;fill-opacity:1"
       d="m 5,10 h 1 v 1 H 5"
       id="path870" />
    <path
       style="fill:#000000;fill-opacity:1"
       d="m 4,10 h 1 v 1 H 4"
       id="path868" />
    <path
       style="fill:#000000;fill-opacity:1"
       d="m 3,10 h 1 v 1 H 3"
       id="path866" />
    <path
       style="fill:#000000;fill-opacity:1"
       d="m 2,10 h 1 v 1 H 2"
       id="path864" />
    <path
       style="fill:#000000;fill-opacity:1"
       d="m 12,9 h 1 v 1 h -1"
       id="path852" />
    <path
       style="fill:#000000;fill-opacity:1"
       d="m 11,9 h 1 v 1 h -1"
       id="path850" />
    <path
       style="fill:#000000;fill-opacity:1"
       d="m 10,9 h 1 v 1 h -1"
       id="path848" />
    <path
       style="fill:#000000;fill-opacity:1"
       d="m 9,9 h 1 v 1 H 9"
       id="path846" />
    <path
       style="fill:#000000;fill-opacity:1"
       d="m 8,9 h 1 v 1 H 8"
       id="path844" />
    <path
       style="fill:#000000;fill-opacity:1"
       d="m 7,9 h 1 v 1 H 7"
       id="path842" />
    <path
       style="fill:#000000;fill-opacity:1"
       d="m 6,9 h 1 v 1 H 6"
       id="path840" />
    <path
       style="fill:#000000;fill-opacity:1"
       d="m 5,9 h 1 v 1 H 5"
       id="path838" />
    <path
       style="fill:#000000;fill-opacity:1"
       d="m 4,9 h 1 v 1 H 4"
       id="path836" />
    <path
       style="fill:#000000;fill-opacity:1"
       d="m 3,9 h 1 v 1 H 3"
       id="path834" />
    <path
       style="fill:#000000;fill-opacity:1"
       d="m 2,9 h 1 v 1 H 2"
       id="path832" />
    <path
       style="fill:#373737;fill-opacity:1"
       d="m 11,8 h 1 v 1 h -1"
       id="path818" />
    <path
       style="fill:#373737;fill-opacity:1"
       d="m 10,8 h 1 v 1 h -1"
       id="path816" />
    <path
       style="fill:#373737;fill-opacity:1"
       d="m 9,8 h 1 V 9 H 9"
       id="path814" />
    <path
       style="fill:#373737;fill-opacity:1"
       d="M 8,8 H 9 V 9 H 8"
       id="path812" />
    <path
       style="fill:#373737;fill-opacity:1"
       d="M 7,8 H 8 V 9 H 7"
       id="path810" />
    <path
       style="fill:#373737;fill-opacity:1"
       d="M 6,8 H 7 V 9 H 6"
       id="path808" />
    <path
       style="fill:#373737;fill-opacity:1"
       d="M 5,8 H 6 V 9 H 5"
       id="path806" />
    <path
       style="fill:#373737;fill-opacity:1"
       d="M 4,8 H 5 V 9 H 4"
       id="path804" />
    <path
       style="fill:#373737;fill-opacity:1"
       d="M 3,8 H 4 V 9 H 3"
       id="path802" />
    <path
       style="fill:#373737;fill-opacity:1"
       d="M 2,8 H 3 V 9 H 2"
       id="path800" />
    <path
       style="fill:#373737;fill-opacity:1"
       d="m 11,7 h 1 v 1 h -1"
       id="path786" />
    <path
       style="fill:#373737;fill-opacity:1"
       d="m 10,7 h 1 v 1 h -1"
       id="path784" />
    <path
       style="fill:#373737;fill-opacity:1"
       d="m 9,7 h 1 V 8 H 9"
       id="path782" />
    <path
       style="fill:#373737;fill-opacity:1"
       d="M 8,7 H 9 V 8 H 8"
       id="path780" />
    <path
       style="fill:#373737;fill-opacity:1"
       d="M 7,7 H 8 V 8 H 7"
       id="path778" />
    <path
       style="fill:#373737;fill-opacity:1"
       d="M 6,7 H 7 V 8 H 6"
       id="path776" />
    <path
       style="fill:#373737;fill-opacity:1"
       d="M 5,7 H 6 V 8 H 5"
       id="path774" />
    <path
       style="fill:#373737;fill-opacity:1"
       d="M 4,7 H 5 V 8 H 4"
       id="path772" />
    <path
       style="fill:#373737;fill-opacity:1"
       d="M 3,7 H 4 V 8 H 3"
       id="path770" />
    <path
       style="fill:#373737;fill-opacity:1"
       d="M 2,7 H 3 V 8 H 2"
       id="path768" />
    <path
       style="fill:#000000;fill-opacity:1"
       d="m 11,6 h 1 v 1 h -1"
       id="path754" />
    <path
       style="fill:#000000;fill-opacity:1"
       d="m 10,6 h 1 v 1 h -1"
       id="path752" />
    <path
       style="fill:#000000;fill-opacity:1"
       d="m 9,6 h 1 V 7 H 9"
       id="path750" />
    <path
       style="fill:#000000;fill-opacity:1"
       d="M 8,6 H 9 V 7 H 8"
       id="path748" />
    <path
       style="fill:#000000;fill-opacity:1"
       d="M 7,6 H 8 V 7 H 7"
       id="path746" />
    <path
       style="fill:#000000;fill-opacity:1"
       d="M 6,6 H 7 V 7 H 6"
       id="path744" />
    <path
       style="fill:#000000;fill-opacity:1"
       d="M 5,6 H 6 V 7 H 5"
       id="path742" />
    <path
       style="fill:#000000;fill-opacity:1"
       d="M 4,6 H 5 V 7 H 4"
       id="path740" />
    <path
       style="fill:#000000;fill-opacity:1"
       d="M 3,6 H 4 V 7 H 3"
       id="path738" />
    <path
       style="fill:#000000;fill-opacity:1"
       d="M 2,6 H 3 V 7 H 2"
       id="path736" />
    <path
       style="fill:#000000;fill-opacity:1"
       d="m 12,5 h 1 v 1 h -1"
       id="path724" />
    <path
       style="fill:#000000;fill-opacity:1"
       d="m 11,5 h 1 v 1 h -1"
       id="path722" />
    <path
       style="fill:#000000;fill-opacity:1"
       d="m 10,5 h 1 v 1 h -1"
       id="path720" />
    <path
       style="fill:#000000;fill-opacity:1"
       d="m 9,5 h 1 V 6 H 9"
       id="path718" />
    <path
       style="fill:#000000;fill-opacity:1"
       d="M 8,5 H 9 V 6 H 8"
       id="path716" />
    <path
       style="fill:#000000;fill-opacity:1"
       d="M 7,5 H 8 V 6 H 7"
       id="path714" />
    <path
       style="fill:#000000;fill-opacity:1"
       d="M 6,5 H 7 V 6 H 6"
       id="path712" />
    <path
       style="fill:#000000;fill-opacity:1"
       d="M 5,5 H 6 V 6 H 5"
       id="path710" />
    <path
       style="fill:#000000;fill-opacity:1"
       d="M 4,5 H 5 V 6 H 4"
       id="path708" />
    <path
       style="fill:#000000;fill-opacity:1"
       d="M 3,5 H 4 V 6 H 3"
       id="path706" />
    <path
       style="fill:#000000;fill-opacity:1"
       d="M 2,5 H 3 V 6 H 2"
       id="path704" />
    <path
       style="fill:#000000;fill-opacity:1"
       d="m 13,4 h 1 v 1 h -1"
       id="path694" />
    <path
       style="fill:#000000;fill-opacity:1"
       d="m 12,4 h 1 v 1 h -1"
       id="path692" />
    <path
       style="fill:#000000;fill-opacity:1"
       d="m 11,4 h 1 v 1 h -1"
       id="path690" />
    <path
       style="fill:#000000;fill-opacity:1"
       d="m 10,4 h 1 v 1 h -1"
       id="path688" />
    <path
       style="fill:#000000;fill-opacity:1"
       d="m 9,4 h 1 V 5 H 9"
       id="path686" />
    <path
       style="fill:#000000;fill-opacity:1"
       d="M 8,4 H 9 V 5 H 8"
       id="path684" />
    <path
       style="fill:#000000;fill-opacity:1"
       d="M 7,4 H 8 V 5 H 7"
       id="path682" />
    <path
       style="fill:#000000;fill-opacity:1"
       d="M 6,4 H 7 V 5 H 6"
       id="path680" />
    <path
       style="fill:#000000;fill-opacity:1"
       d="M 5,4 H 6 V 5 H 5"
       id="path678" />
    <path
       style="fill:#000000;fill-opacity:1"
       d="M 4,4 H 5 V 5 H 4"
       id="path676" />
    <path
       style="fill:#000000;fill-opacity:1"
       d="M 3,4 H 4 V 5 H 3"
       id="path674" />
    <path
       style="fill:#000000;fill-opacity:1"
       d="M 2,4 H 3 V 5 H 2"
       id="path672" />
    <path
       style="fill:#373737;fill-opacity:1"
       d="m 13,3 h 1 v 1 h -1"
       id="path662" />
    <path
       style="fill:#373737;fill-opacity:1"
       d="m 12,3 h 1 v 1 h -1"
       id="path660" />
    <path
       style="fill:#373737;fill-opacity:1"
       d="m 11,3 h 1 v 1 h -1"
       id="path658" />
    <path
       style="fill:#373737;fill-opacity:1"
       d="m 10,3 h 1 v 1 h -1"
       id="path656" />
    <path
       style="fill:#373737;fill-opacity:1"
       d="m 9,3 h 1 V 4 H 9"
       id="path654" />
    <path
       style="fill:#373737;fill-opacity:1"
       d="M 8,3 H 9 V 4 H 8"
       id="path652" />
    <path
       style="fill:#373737;fill-opacity:1"
       d="M 7,3 H 8 V 4 H 7"
       id="path650" />
    <path
       style="fill:#373737;fill-opacity:1"
       d="M 6,3 H 7 V 4 H 6"
       id="path648" />
    <path
       style="fill:#373737;fill-opacity:1"
       d="M 5,3 H 6 V 4 H 5"
       id="path646" />
    <path
       style="fill:#373737;fill-opacity:1"
       d="M 4,3 H 5 V 4 H 4"
       id="path644" />
    <path
       style="fill:#373737;fill-opacity:1"
       d="M 3,3 H 4 V 4 H 3"
       id="path642" />
    <path
       style="fill:#373737;fill-opacity:1"
       d="M 2,3 H 3 V 4 H 2"
       id="path640" />
    <path
       style="fill:#585858;fill-opacity:1"
       d="m 15,2 h 1 v 1 h -1"
       id="path634"
       sodipodi:nodetypes="cccc" />
    <path
       style="fill:#373737;fill-opacity:1"
       d="m 14,2 h 1 v 1 0 h -1"
       id="path632"
       sodipodi:nodetypes="ccccc" />
    <path
       style="fill:#373737;fill-opacity:1"
       d="m 13,2 h 1 v 1 h -1"
       id="path630" />
    <path
       style="fill:#373737;fill-opacity:1"
       d="m 12,2 h 1 v 1 h -1"
       id="path628" />
    <path
       style="fill:#373737;fill-opacity:1"
       d="m 11,2 h 1 v 1 h -1"
       id="path626" />
    <path
       style="fill:#373737;fill-opacity:1"
       d="m 10,2 h 1 v 1 h -1"
       id="path624" />
    <path
       style="fill:#373737;fill-opacity:1"
       d="m 9,2 h 1 V 3 H 9"
       id="path622" />
    <path
       style="fill:#373737;fill-opacity:1"
       d="M 8,2 H 9 V 3 H 8"
       id="path620" />
    <path
       style="fill:#373737;fill-opacity:1"
       d="M 7,2 H 8 V 3 H 7"
       id="path618" />
    <path
       style="fill:#373737;fill-opacity:1"
       d="M 6,2 H 7 V 3 H 6"
       id="path616" />
    <path
       style="fill:#373737;fill-opacity:1"
       d="M 5,2 H 6 V 3 H 5"
       id="path614" />
    <path
       style="fill:#373737;fill-opacity:1"
       d="M 4,2 H 5 V 3 H 4"
       id="path612" />
    <path
       style="fill:#373737;fill-opacity:1"
       d="M 3,2 H 4 V 3 H 3"
       id="path610" />
    <path
       style="fill:#373737;fill-opacity:1"
       d="M 2,2 H 3 V 3 H 2"
       id="path608" />
    <path
       style="fill:#000000;fill-opacity:1"
       d="m 14,1 h 1 v 1 h -1"
       id="path600"
       sodipodi:nodetypes="cccc" />
    <path
       style="fill:#000000;fill-opacity:1"
       d="m 13,1 h 1 v 1 h -1"
       id="path598" />
    <path
       style="fill:#000000;fill-opacity:1"
       d="m 12,1 h 1 v 1 h -1"
       id="path596" />
    <path
       style="fill:#000000;fill-opacity:1"
       d="m 11,1 h 1 v 1 h -1"
       id="path594" />
    <path
       style="fill:#000000;fill-opacity:1"
       d="m 10,1 h 1 v 1 h -1"
       id="path592" />
    <path
       style="fill:#000000;fill-opacity:1"
       d="m 9,1 h 1 V 2 H 9"
       id="path590" />
    <path
       style="fill:#000000;fill-opacity:1"
       d="M 8,1 H 9 V 2 H 8"
       id="path588" />
    <path
       style="fill:#000000;fill-opacity:1"
       d="M 7,1 H 8 V 2 H 7"
       id="path586" />
    <path
       style="fill:#000000;fill-opacity:1"
       d="M 6,1 H 7 V 2 H 6"
       id="path584" />
    <path
       style="fill:#000000;fill-opacity:1"
       d="M 5,1 H 6 V 2 H 5"
       id="path582" />
    <path
       style="fill:#000000;fill-opacity:1"
       d="M 4,1 H 5 V 2 H 4"
       id="path580" />
    <path
       style="fill:#000000;fill-opacity:1"
       d="M 3,1 H 4 V 2 H 3"
       id="path578" />
    <path
       style="fill:#000000;fill-opacity:1"
       d="M 2,1 H 3 V 2 H 2"
       id="path576" />
    <path
       style="fill:#585858;fill-opacity:1"
       d="m 15,0 h 1 v 1 h -1"
       id="path570" />
    <path
       style="fill:#000000;fill-opacity:1"
       d="m 14,0 h 1 v 1 h -1"
       id="path568" />
    <path
       style="fill:#000000;fill-opacity:1"
       d="m 13,0 h 1 v 1 h -1"
       id="path566" />
    <path
       style="fill:#000000;fill-opacity:1"
       d="m 12,0 h 1 v 1 h -1"
       id="path564" />
    <path
       style="fill:#000000;fill-opacity:1"
       d="m 11,0 h 1 v 1 h -1"
       id="path562" />
    <path
       style="fill:#000000;fill-opacity:1"
       d="m 10,0 h 1 v 1 h -1"
       id="path560" />
    <path
       style="fill:#000000;fill-opacity:1"
       d="m 9,0 h 1 V 1 H 9"
       id="path558" />
    <path
       style="fill:#000000;fill-opacity:1"
       d="M 8,0 H 9 V 1 H 8"
       id="path556" />
    <path
       style="fill:#000000;fill-opacity:1"
       d="M 7,0 H 8 V 1 H 7"
       id="path554" />
    <path
       style="fill:#000000;fill-opacity:1"
       d="M 6,0 H 7 V 1 H 6"
       id="path552" />
    <path
       style="fill:#000000;fill-opacity:1"
       d="M 5,0 H 6 V 1 H 5"
       id="path550" />
    <path
       style="fill:#000000;fill-opacity:1"
       d="M 4,0 H 5 V 1 H 4"
       id="path548" />
    <path
       style="fill:#000000;fill-opacity:1"
       d="M 3,0 H 4 V 1 H 3"
       id="path546" />
    <path
       style="fill:#000000;fill-opacity:1"
       d="M 2,0 H 3 V 1 H 2"
       id="path544" />
    <path
       sodipodi:nodetypes="cccc"
       id="path600-9"
       d="m 14,4 h 1 v 1 h -1"
       style="fill:#000000;fill-opacity:1" />
    <path
       sodipodi:nodetypes="cccc"
       id="path634-1"
       d="m 15,3 h 1 v 1 h -1"
       style="fill:#585858;fill-opacity:1" />
    <path
       sodipodi:nodetypes="ccccc"
       id="path632-2"
       d="m 14,3 h 1 v 1 0 h -1"
       style="fill:#373737;fill-opacity:1" />
    <path
       style="fill:#585858;fill-opacity:1"
       d="m 15,4 h 1 v 1 h -1"
       id="path634-1-9"
       sodipodi:nodetypes="cccc" />
    <path
       sodipodi:nodetypes="cccc"
       id="path634-7"
       d="m 15,1 h 1 v 1 h -1"
       style="fill:#585858;fill-opacity:1" />
    <path
       id="path694-5"
       d="m 13,9 h 1 v 1 h -1"
       style="fill:#000000;fill-opacity:1" />
    <path
       id="path692-2"
       d="m 12,9 h 1 v 1 h -1"
       style="fill:#000000;fill-opacity:1" />
    <path
       id="path662-5"
       d="m 13,8 h 1 v 1 h -1"
       style="fill:#373737;fill-opacity:1" />
    <path
       id="path660-7"
       d="m 12,8 h 1 v 1 h -1"
       style="fill:#373737;fill-opacity:1" />
    <path
       sodipodi:nodetypes="cccc"
       id="path634-8"
       d="m 15,7 h 1 v 1 h -1"
       style="fill:#585858;fill-opacity:1" />
    <path
       sodipodi:nodetypes="ccccc"
       id="path632-1"
       d="m 14,7 h 1 v 1 0 h -1"
       style="fill:#373737;fill-opacity:1" />
    <path
       id="path630-2"
       d="m 13,7 h 1 v 1 h -1"
       style="fill:#373737;fill-opacity:1" />
    <path
       id="path628-0"
       d="m 12,7 h 1 v 1 h -1"
       style="fill:#373737;fill-opacity:1" />
    <path
       sodipodi:nodetypes="cccc"
       id="path600-3"
       d="m 14,6 h 1 v 1 h -1"
       style="fill:#000000;fill-opacity:1" />
    <path
       id="path598-3"
       d="m 13,6 h 1 v 1 h -1"
       style="fill:#000000;fill-opacity:1" />
    <path
       id="path596-9"
       d="m 12,6 h 1 v 1 h -1"
       style="fill:#000000;fill-opacity:1" />
    <path
       id="path570-7"
       d="m 15,5 h 1 v 1 h -1"
       style="fill:#585858;fill-opacity:1" />
    <path
       id="path568-2"
       d="m 14,5 h 1 v 1 h -1"
       style="fill:#000000;fill-opacity:1" />
    <path
       id="path566-5"
       d="m 13,5 h 1 v 1 h -1"
       style="fill:#000000;fill-opacity:1" />
    <path
       id="path564-5"
       d="m 12,5 h 1 v 1 h -1"
       style="fill:#000000;fill-opacity:1" />
    <path
       style="fill:#000000;fill-opacity:1"
       d="m 14,9 h 1 v 1 h -1"
       id="path600-9-2"
       sodipodi:nodetypes="cccc" />
    <path
       style="fill:#585858;fill-opacity:1"
       d="m 15,8 h 1 v 1 h -1"
       id="path634-1-4"
       sodipodi:nodetypes="cccc" />
    <path
       style="fill:#373737;fill-opacity:1"
       d="m 14,8 h 1 v 1 0 h -1"
       id="path632-2-1"
       sodipodi:nodetypes="ccccc" />
    <path
       sodipodi:nodetypes="cccc"
       id="path634-1-9-5"
       d="m 15,9 h 1 v 1 h -1"
       style="fill:#585858;fill-opacity:1" />
    <path
       style="fill:#585858;fill-opacity:1"
       d="m 15,6 h 1 v 1 h -1"
       id="path634-7-8"
       sodipodi:nodetypes="cccc" />
    <path
       id="path694-57"
       d="m 13,14 h 1 v 1 h -1"
       style="fill:#000000;fill-opacity:1" />
    <path
       id="path692-6"
       d="m 12,14 h 1 v 1 h -1"
       style="fill:#000000;fill-opacity:1" />
    <path
       id="path662-1"
       d="m 13,13 h 1 v 1 h -1"
       style="fill:#373737;fill-opacity:1" />
    <path
       id="path660-5"
       d="m 12,13 h 1 v 1 h -1"
       style="fill:#373737;fill-opacity:1" />
    <path
       sodipodi:nodetypes="cccc"
       id="path634-2"
       d="m 15,12 h 1 v 1 h -1"
       style="fill:#585858;fill-opacity:1" />
    <path
       sodipodi:nodetypes="ccccc"
       id="path632-7"
       d="m 14,12 h 1 v 1 0 h -1"
       style="fill:#373737;fill-opacity:1" />
    <path
       id="path630-3"
       d="m 13,12 h 1 v 1 h -1"
       style="fill:#373737;fill-opacity:1" />
    <path
       id="path628-4"
       d="m 12,12 h 1 v 1 h -1"
       style="fill:#373737;fill-opacity:1" />
    <path
       sodipodi:nodetypes="cccc"
       id="path600-91"
       d="m 14,11 h 1 v 1 h -1"
       style="fill:#000000;fill-opacity:1" />
    <path
       id="path598-8"
       d="m 13,11 h 1 v 1 h -1"
       style="fill:#000000;fill-opacity:1" />
    <path
       id="path596-8"
       d="m 12,11 h 1 v 1 h -1"
       style="fill:#000000;fill-opacity:1" />
    <path
       id="path570-4"
       d="m 15,10 h 1 v 1 h -1"
       style="fill:#585858;fill-opacity:1" />
    <path
       id="path568-24"
       d="m 14,10 h 1 v 1 h -1"
       style="fill:#000000;fill-opacity:1" />
    <path
       id="path566-1"
       d="m 13,10 h 1 v 1 h -1"
       style="fill:#000000;fill-opacity:1" />
    <path
       id="path564-3"
       d="m 12,10 h 1 v 1 h -1"
       style="fill:#000000;fill-opacity:1" />
    <path
       style="fill:#000000;fill-opacity:1"
       d="m 14,14 h 1 v 1 h -1"
       id="path600-9-5"
       sodipodi:nodetypes="cccc" />
    <path
       style="fill:#585858;fill-opacity:1"
       d="m 15,13 h 1 v 1 h -1"
       id="path634-1-96"
       sodipodi:nodetypes="cccc" />
    <path
       style="fill:#373737;fill-opacity:1"
       d="m 14,13 h 1 v 1 0 h -1"
       id="path632-2-7"
       sodipodi:nodetypes="ccccc" />
    <path
       sodipodi:nodetypes="cccc"
       id="path634-1-9-0"
       d="m 15,14 h 1 v 1 h -1"
       style="fill:#585858;fill-opacity:1" />
    <path
       style="fill:#585858;fill-opacity:1"
       d="m 15,11 h 1 v 1 h -1"
       id="path634-7-6"
       sodipodi:nodetypes="cccc" />
    <path
       style="fill:#000000;fill-opacity:1"
       d="m 13,15 h 1 v 1 h -1"
       id="path694-57-7" />
    <path
       style="fill:#000000;fill-opacity:1"
       d="m 12,15 h 1 v 1 h -1"
       id="path692-6-4" />
    <path
       sodipodi:nodetypes="cccc"
       id="path600-9-5-0"
       d="m 14,15 h 1 v 1 h -1"
       style="fill:#000000;fill-opacity:1" />
    <path
       style="fill:#585858;fill-opacity:1"
       d="m 15,15 h 1 v 1 h -1"
       id="path634-1-9-0-3"
       sodipodi:nodetypes="cccc" />
    <path
       sodipodi:nodetypes="ccccc"
       id="path632-0"
       d="M 1,2 H 2 V 3 3 H 1"
       style="fill:#373737;fill-opacity:1" />
    <path
       sodipodi:nodetypes="cccc"
       id="path600-2"
       d="M 1,1 H 2 V 2 H 1"
       style="fill:#000000;fill-opacity:1" />
    <path
       id="path568-0"
       d="M 1,0 H 2 V 1 H 1"
       style="fill:#000000;fill-opacity:1" />
    <path
       style="fill:#000000;fill-opacity:1"
       d="M 1,4 H 2 V 5 H 1"
       id="path600-9-4"
       sodipodi:nodetypes="cccc" />
    <path
       style="fill:#373737;fill-opacity:1"
       d="M 1,3 H 2 V 4 4 H 1"
       id="path632-2-17"
       sodipodi:nodetypes="ccccc" />
    <path
       style="fill:#373737;fill-opacity:1"
       d="M 1,7 H 2 V 8 8 H 1"
       id="path632-1-3"
       sodipodi:nodetypes="ccccc" />
    <path
       style="fill:#000000;fill-opacity:1"
       d="M 1,6 H 2 V 7 H 1"
       id="path600-3-2"
       sodipodi:nodetypes="cccc" />
    <path
       style="fill:#000000;fill-opacity:1"
       d="M 1,5 H 2 V 6 H 1"
       id="path568-2-3" />
    <path
       sodipodi:nodetypes="cccc"
       id="path600-9-2-0"
       d="m 1,9 h 1 v 1 H 1"
       style="fill:#000000;fill-opacity:1" />
    <path
       sodipodi:nodetypes="ccccc"
       id="path632-2-1-0"
       d="M 1,8 H 2 V 9 9 H 1"
       style="fill:#373737;fill-opacity:1" />
    <path
       style="fill:#373737;fill-opacity:1"
       d="m 1,12 h 1 v 1 0 H 1"
       id="path632-7-0"
       sodipodi:nodetypes="ccccc" />
    <path
       style="fill:#000000;fill-opacity:1"
       d="m 1,11 h 1 v 1 H 1"
       id="path600-91-9"
       sodipodi:nodetypes="cccc" />
    <path
       style="fill:#000000;fill-opacity:1"
       d="m 1,10 h 1 v 1 H 1"
       id="path568-24-3" />
    <path
       sodipodi:nodetypes="cccc"
       id="path600-9-5-6"
       d="m 1,14 h 1 v 1 H 1"
       style="fill:#000000;fill-opacity:1" />
    <path
       sodipodi:nodetypes="ccccc"
       id="path632-2-7-2"
       d="m 1,13 h 1 v 1 0 H 1"
       style="fill:#373737;fill-opacity:1" />
    <path
       style="fill:#000000;fill-opacity:1"
       d="m 1,15 h 1 v 1 H 1"
       id="path600-9-5-0-4"
       sodipodi:nodetypes="cccc" />
    <path
       sodipodi:nodetypes="cccc"
       id="path634-9"
       d="m 0,1.9999997 h 1 v 1 H 0"
       style="fill:#585858;fill-opacity:1" />
    <path
       id="path570-3"
       d="M 0,0 H 1 V 1 H 0"
       style="fill:#585858;fill-opacity:1" />
    <path
       style="fill:#585858;fill-opacity:1"
       d="m 0,2.9999997 h 1 v 1 H 0"
       id="path634-1-0"
       sodipodi:nodetypes="cccc" />
    <path
       sodipodi:nodetypes="cccc"
       id="path634-1-9-1"
       d="m 0,3.9999997 h 1 v 1 H 0"
       style="fill:#585858;fill-opacity:1" />
    <path
       style="fill:#585858;fill-opacity:1"
       d="M 0,1 H 1 V 1.9999997 H 0"
       id="path634-7-2"
       sodipodi:nodetypes="cccc" />
    <path
       style="fill:#585858;fill-opacity:1"
       d="m 0,6.9999997 h 1 v 1 H 0"
       id="path634-8-6"
       sodipodi:nodetypes="cccc" />
    <path
       style="fill:#585858;fill-opacity:1"
       d="m 0,4.9999997 h 1 v 1 H 0"
       id="path570-7-4" />
    <path
       sodipodi:nodetypes="cccc"
       id="path634-1-4-2"
       d="m 0,7.9999997 h 1 v 1 H 0"
       style="fill:#585858;fill-opacity:1" />
    <path
       style="fill:#585858;fill-opacity:1"
       d="M 0,8.9999997 H 1 V 10 H 0"
       id="path634-1-9-5-7"
       sodipodi:nodetypes="cccc" />
    <path
       sodipodi:nodetypes="cccc"
       id="path634-7-8-9"
       d="m 0,5.9999997 h 1 v 1 H 0"
       style="fill:#585858;fill-opacity:1" />
    <path
       style="fill:#585858;fill-opacity:1"
       d="m 0,12 h 1 v 1 H 0"
       id="path634-2-6"
       sodipodi:nodetypes="cccc" />
    <path
       style="fill:#585858;fill-opacity:1"
       d="m 0,10 h 1 v 1 H 0"
       id="path570-4-7" />
    <path
       sodipodi:nodetypes="cccc"
       id="path634-1-96-7"
       d="m 0,13 h 1 v 1 H 0"
       style="fill:#585858;fill-opacity:1" />
    <path
       style="fill:#585858;fill-opacity:1"
       d="m 0,14 h 1 v 1 H 0"
       id="path634-1-9-0-5"
       sodipodi:nodetypes="cccc" />
    <path
       sodipodi:nodetypes="cccc"
       id="path634-7-6-6"
       d="m 0,11 h 1 v 1 H 0"
       style="fill:#585858;fill-opacity:1" />
    <path
       sodipodi:nodetypes="cccc"
       id="path634-1-9-0-3-6"
       d="m 0,15 h 1 v 1 H 0"
       style="fill:#585858;fill-opacity:1" />
  </g>
</svg>
