<?xml version="1.0" encoding="UTF-8"?>
<svg width="16" height="16" version="1.1" viewBox="0 0 16 16" xmlns="http://www.w3.org/2000/svg" xmlns:cc="http://creativecommons.org/ns#" xmlns:dc="http://purl.org/dc/elements/1.1/" xmlns:rdf="http://www.w3.org/1999/02/22-rdf-syntax-ns#">
 <metadata>
  <rdf:RDF>
   <cc:Work rdf:about="">
    <dc:format>image/svg+xml</dc:format>
    <dc:type rdf:resource="http://purl.org/dc/dcmitype/StillImage"/>
    <dc:title/>
   </cc:Work>
  </rdf:RDF>
 </metadata>
 <path d="m2.6198 13.195c-1.4409-1.5429-2.6198-3.8805-2.6198-5.1948 0-2.9425 4.5424-8 7.1852-8 2.6599 0 6.6899 3.1778 6.6899 5.2751 0 0.94431 0.4803 1.3991 1.0673 1.0106 1.6885-1.1174 1.2406 1.2804-0.53366 2.8571-1.2773 1.1351-1.9247 1.1351-3.202 0-1.7743-1.5767-2.2221-3.9745-0.53366-2.8571 0.58703 0.38848 1.0673-0.0608 1.0673-0.99839 0-2.0687-3.498-3.4178-6.3493-2.4487-4.7087 1.6003-3.8895 9.4259 1.0986 10.494 3.554 0.7611 4.2207 2.6673 0.93296 2.6673-1.2007 0-3.3621-1.2623-4.8029-2.8052z" stroke-width="1.1044"/>
</svg>
