<?xml version="1.0" encoding="UTF-8"?>
<svg width="16" height="16" version="1.1" viewBox="0 0 16 16" xmlns="http://www.w3.org/2000/svg" xmlns:cc="http://creativecommons.org/ns#" xmlns:dc="http://purl.org/dc/elements/1.1/" xmlns:rdf="http://www.w3.org/1999/02/22-rdf-syntax-ns#">
 <metadata>
  <rdf:RDF>
   <cc:Work rdf:about="">
    <dc:format>image/svg+xml</dc:format>
    <dc:type rdf:resource="http://purl.org/dc/dcmitype/StillImage"/>
    <dc:title/>
   </cc:Work>
  </rdf:RDF>
 </metadata>
 <g>
  <path d="m15.25 15.25 0.75-0.25v1h-1"/>
  <path d="m14 15 0.75-0.25 0.5 0.5-0.25 0.75h-1"/>
  <path d="m13 15h1v1h-1"/>
  <path d="m12 15h1v1h-1"/>
  <path d="m10.75 15.25 0.5-0.5 0.75 0.25v1h-1"/>
  <path d="m10 15 0.75 0.25 0.25 0.75h-1"/>
 </g>
 <g fill="#585858">
  <path d="m9 15h1v1h-1"/>
  <path d="m8 15h1v1h-1"/>
  <path d="m7 15h1v1h-1"/>
  <path d="m6 15h1v1h-1"/>
 </g>
 <g>
  <path d="M 5.25,15.25 6,15 v 1 H 5"/>
  <path d="m4 15 0.75-0.25 0.5 0.5-0.25 0.75h-1"/>
  <path d="m3 15h1v1h-1"/>
  <path d="m2 15h1v1h-1"/>
  <path d="m0.75 15.25 0.5-0.5 0.75 0.25v1h-1"/>
  <path d="M 0,15 0.75,15.25 1,16 H 0"/>
  <path d="m15 14h1v1l-0.75 0.25-0.5-0.5"/>
 </g>
 <g fill="#fff">
  <path d="m14 14h1l-0.25 0.75-0.75 0.25"/>
  <path d="m13 14h1v1h-1"/>
  <path d="m12 14h1v1h-1"/>
  <path d="m11 14h1v1l-0.75-0.25"/>
 </g>
 <path d="m9.75 14.25 0.5-0.5 0.75 0.25 0.25 0.75-0.5 0.5-0.75-0.25"/>
 <g fill="#c3c3c3">
  <path d="M 9,14 9.75,14.25 10,15 H 9"/>
  <path d="m8 14h1v1h-1"/>
  <path d="m7 14h1v1h-1"/>
  <path d="M 6.25,14.25 7,14 v 1 H 6"/>
 </g>
 <path d="m5 14 0.75-0.25 0.5 0.5-0.25 0.75-0.75 0.25-0.5-0.5"/>
 <g fill="#fff">
  <path d="m4 14h1l-0.25 0.75-0.75 0.25"/>
  <path d="m3 14h1v1h-1"/>
  <path d="m2 14h1v1h-1"/>
  <path d="m1 14h1v1l-0.75-0.25"/>
 </g>
 <path d="m0 14h1l0.25 0.75-0.5 0.5-0.75-0.25"/>
 <path d="m15 13h1v1h-1"/>
 <g fill="#fff">
  <path d="m14 13h1v1h-1"/>
  <path d="m13 13h1v1h-1"/>
  <path d="m12 13h1v1h-1"/>
  <path d="m10.75 13.25 0.5-0.5 0.75 0.25v1h-1"/>
 </g>
 <g>
  <path d="m10 13 0.75 0.25 0.25 0.75-0.75-0.25"/>
  <path d="m9 13h1l0.25 0.75-0.5 0.5-0.75-0.25"/>
  <path d="m8 13h1v1h-1"/>
  <path d="m7 13h1v1h-1"/>
  <path d="m6 13h1v1l-0.75 0.25-0.5-0.5"/>
  <path d="M 5.25,13.25 6,13 5.75,13.75 5,14"/>
 </g>
 <g fill="#fff">
  <path d="m4 13 0.75-0.25 0.5 0.5-0.25 0.75h-1"/>
  <path d="m3 13h1v1h-1"/>
  <path d="m2 13h1v1h-1"/>
  <path d="m1 13h1v1h-1"/>
 </g>
 <path d="m0 13h1v1h-1"/>
 <path d="m15 12h1v1h-1"/>
 <g fill="#fff">
  <path d="m14 12h1v1h-1"/>
  <path d="m13.25 12.25 0.75-0.25v1h-1"/>
  <path d="m12 12 0.75-0.25 0.5 0.5-0.25 0.75h-1"/>
  <path d="m11 12h1v1l-0.75-0.25"/>
  <path d="m10 12h1l0.25 0.75-0.5 0.5-0.75-0.25"/>
  <path d="m9 12h1v1h-1"/>
  <path d="m8 12h1v1h-1"/>
  <path d="m7 12h1v1h-1"/>
  <path d="m6 12h1v1h-1"/>
  <path d="m5 12h1v1l-0.75 0.25-0.5-0.5"/>
  <path d="m4 12h1l-0.25 0.75-0.75 0.25"/>
  <path d="m2.75 12.25 0.5-0.5 0.75 0.25v1h-1"/>
  <path d="M 2,12 2.75,12.25 3,13 H 2"/>
  <path d="m1 12h1v1h-1"/>
 </g>
 <g>
  <path d="m0 12h1v1h-1"/>
  <path d="m15 11h1v1h-1"/>
  <path d="m14 11h1v1h-1" fill="#fff"/>
  <path d="m12.75 11.25 0.5-0.5 0.75 0.25v1l-0.75 0.25-0.5-0.5" fill="#fff"/>
 </g>
 <g>
  <path d="m12 11 0.75 0.25v0.5l-0.75 0.25"/>
  <path d="m11 11h1v1h-1"/>
  <path d="m10 11h1v1h-1"/>
  <path d="m9 11h1v1h-1"/>
  <path d="m8 11h1v1h-1"/>
  <path d="m7 11h1v1h-1"/>
  <path d="m6 11h1v1h-1"/>
  <path d="m5 11h1v1h-1"/>
  <path d="m4 11h1v1h-1"/>
  <path d="m3.25 11.25 0.75-0.25v1l-0.75-0.25"/>
 </g>
 <g>
  <path d="m2 11 0.75-0.25 0.5 0.5v0.5l-0.5 0.5-0.75-0.25" fill="#fff"/>
  <path d="m1 11h1v1h-1" fill="#fff"/>
  <path d="m0 11h1v1h-1"/>
  <path d="m15 10h1v1h-1"/>
 </g>
 <g fill="#fff">
  <path d="m14 10h1v1h-1"/>
  <path d="m13 10h1v1l-0.75-0.25"/>
  <path d="m12 10h1l0.25 0.75-0.5 0.5-0.75-0.25"/>
  <path d="m11 10h1v1h-1"/>
 </g>
 <path d="m9.75 10.25 0.5-0.5 0.75 0.25v1h-1" fill="#ff8825" fill-opacity=".72157"/>
 <g>
  <path d="M 9,10 9.75,10.25 10,11 H 9" fill="#ffb51c"/>
  <path d="m8 10h1v1h-1" fill="#ffca18"/>
  <path d="m7 10h1v1h-1" fill="#ffca18"/>
  <path d="M 6.25,10.25 7,10 v 1 H 6" fill="#ffbd1a"/>
  <path d="m5 10 0.75-0.25 0.5 0.5-0.25 0.75h-1" fill="#ff8725"/>
 </g>
 <g fill="#fff">
  <path d="m4 10h1v1h-1"/>
  <path d="m3 10h1v1l-0.75 0.25-0.5-0.5"/>
  <path d="m2 10h1l-0.25 0.75-0.75 0.25"/>
  <path d="m1 10h1v1h-1"/>
 </g>
 <path d="m0 10h1v1h-1"/>
 <path d="m15 9h1v1h-1"/>
 <g fill="#fff">
  <path d="m14 9h1v1h-1"/>
  <path d="m13 9h1v1h-1"/>
  <path d="m12 9h1v1h-1"/>
  <path d="m11 9h1v1h-1"/>
 </g>
 <path d="m9.75 9.25 0.5-0.5 0.75 0.25v1l-0.75-0.25" fill="#ffc319" fill-opacity=".72157"/>
 <path d="m 9,9 0.75,0.25 0.5,0.5 -0.5,0.5 L 9,10" fill="#ff9423"/>
 <g fill="#ff7f27">
  <path d="m8 9h1v1h-1"/>
  <path d="m7 9h1v1h-1"/>
  <path d="m6 9h1v1l-0.75 0.25-0.5-0.5"/>
  <path d="M 5,9 H 6 L 5.75,9.75 5,10"/>
 </g>
 <g fill="#fff">
  <path d="m4 9h1v1h-1"/>
  <path d="m3 9h1v1h-1"/>
  <path d="m2 9h1v1h-1"/>
  <path d="m1 9h1v1h-1"/>
 </g>
 <path d="m0 9h1v1h-1"/>
 <path d="m15 8h1v1h-1"/>
 <g fill="#fff">
  <path d="m14 8h1v1h-1"/>
  <path d="m13 8h1v1h-1"/>
  <path d="m12 8h1v1h-1"/>
  <path d="m11 8h1v1h-1"/>
 </g>
 <g fill="#ffca18">
  <path d="m10 8h1v1l-0.75-0.25" fill-opacity=".72157"/>
  <g>
   <path d="m9 8h1l0.25 0.75-0.5 0.5-0.75-0.25"/>
   <path d="m8 8h1v1h-1"/>
   <path d="m7 8h1v1h-1"/>
   <path d="m6 8h1v1h-1"/>
   <path d="m5 8h1v1h-1"/>
  </g>
 </g>
 <g fill="#fff">
  <path d="m4 8h1v1h-1"/>
  <path d="m3 8h1v1h-1"/>
  <path d="m2 8h1v1h-1"/>
  <path d="m1 8h1v1h-1"/>
 </g>
 <path d="m0 8h1v1h-1"/>
 <path d="m15 7h1v1h-1"/>
 <g fill="#fff">
  <path d="m14 7h1v1h-1"/>
  <path d="m13 7h1v1h-1"/>
  <path d="m12 7h1v1h-1"/>
  <path d="m11 7h1v1h-1"/>
 </g>
 <path d="m10.25 7.25 0.75-0.25v1h-1" fill="#ff8027" fill-opacity=".72157"/>
 <g fill="#ff7f27">
  <path d="m9 7 0.75-0.25 0.5 0.5-0.25 0.75h-1"/>
  <path d="m8 7h1v1h-1"/>
  <path d="m7 7h1v1h-1"/>
  <path d="m6 7h1v1h-1"/>
  <path d="m5 7h1v1h-1"/>
 </g>
 <g fill="#fff">
  <path d="m4 7h1v1h-1"/>
  <path d="m3 7h1v1h-1"/>
  <path d="m2 7h1v1h-1"/>
  <path d="m1 7h1v1h-1"/>
 </g>
 <path d="m0 7h1v1h-1"/>
 <path d="m15 6h1v1h-1"/>
 <g fill="#fff">
  <path d="m14 6h1v1h-1"/>
  <path d="m13 6h1v1h-1"/>
  <path d="m12 6h1v1h-1"/>
  <path d="m11 6h1v1h-1"/>
 </g>
 <path d="m10.25 6.25 0.75-0.25v1l-0.75 0.25-0.5-0.5" fill="#ff8825" fill-opacity=".72157"/>
 <path d="m 9,6 0.75,-0.25 0.5,0.5 -0.5,0.5 L 9,7" fill="#ffb51c"/>
 <g fill="#ffca18">
  <path d="m8 6h1v1h-1"/>
  <path d="m7 6h1v1h-1"/>
  <path d="m5.75 6.25 0.5-0.5 0.75 0.25v1h-1"/>
  <path d="M 5,6 5.75,6.25 6,7 H 5"/>
 </g>
 <g fill="#fff">
  <path d="m4 6h1v1h-1"/>
  <path d="m3 6h1v1h-1"/>
  <path d="m2 6h1v1h-1"/>
  <path d="m1 6h1v1h-1"/>
 </g>
 <path d="m0 6h1v1h-1"/>
 <path d="m15 5h1v1h-1"/>
 <g fill="#fff">
  <path d="m14 5h1v1h-1"/>
  <path d="m13 5h1v1h-1"/>
  <path d="m12 5h1v1h-1"/>
  <path d="m11 5h1v1h-1"/>
 </g>
 <path d="m9.75 5.25 0.5-0.5 0.75 0.25v1l-0.75 0.25-0.5-0.5" fill="#ffc319" fill-opacity=".72157"/>
 <g>
  <path d="m 9,5 0.75,0.25 v 0.5 L 9,6" fill="#ff9423"/>
  <path d="m8 5h1v1h-1" fill="#ff7f27"/>
  <path d="m7 5h1v1h-1" fill="#ff7f27"/>
  <path d="M 6.25,5.25 7,5 V 6 L 6.25,5.75" fill="#ff8b24"/>
  <path d="m5 5 0.75-0.25 0.5 0.5v0.5l-0.5 0.5-0.75-0.25" fill="#ffc21a"/>
 </g>
 <g fill="#fff">
  <path d="m4 5h1v1h-1"/>
  <path d="m3 5h1v1h-1"/>
  <path d="m2 5h1v1h-1"/>
  <path d="m1 5h1v1h-1"/>
 </g>
 <path d="m0 5h1v1h-1"/>
 <path d="m15 4h1v1h-1"/>
 <g fill="#fff">
  <path d="m14 4h1v1h-1"/>
  <path d="m13 4h1v1h-1"/>
  <path d="m12 4h1v1h-1"/>
  <path d="m11 4h1v1h-1"/>
 </g>
 <g fill="#ffca18">
  <path d="m10 4h1v1l-0.75-0.25" fill-opacity=".72157"/>
  <g>
   <path d="m9 4h1l0.25 0.75-0.5 0.5-0.75-0.25"/>
   <path d="m8 4h1v1h-1"/>
   <path d="m7 4h1v1h-1"/>
  </g>
 </g>
 <path d="m6.25 4.25 0.75-0.25v1l-0.75 0.25-0.5-0.5" fill="#ffbd1a"/>
 <path d="M 5,4 5.75,3.75 6.25,4.25 5.75,4.75 5,5" fill="#ff8725"/>
 <g fill="#fff">
  <path d="m4 4h1v1h-1"/>
  <path d="m3 4h1v1h-1"/>
  <path d="m2 4h1v1h-1"/>
  <path d="m1 4h1v1h-1"/>
 </g>
 <path d="m0 4h1v1h-1"/>
 <path d="m15 3h1v1h-1"/>
 <g fill="#fff">
  <path d="m14 3h1v1h-1"/>
  <path d="m13.25 3.25 0.75-0.25v1h-1"/>
  <path d="m12 3 0.75-0.25 0.5 0.5-0.25 0.75h-1"/>
  <path d="m11 3h1v1h-1"/>
 </g>
 <path d="m10 3h1v1h-1" fill="#ff8027" fill-opacity=".72157"/>
 <g fill="#ff7f27">
  <path d="m9 3h1v1h-1"/>
  <path d="m8 3h1v1h-1"/>
  <path d="m7 3h1v1h-1"/>
  <path d="m6 3h1v1l-0.75 0.25-0.5-0.5"/>
  <path d="M 5,3 H 6 L 5.75,3.75 5,4"/>
 </g>
 <g fill="#fff">
  <path d="m4 3h1v1h-1"/>
  <path d="m2.75 3.25 0.5-0.5 0.75 0.25v1h-1"/>
  <path d="M 2,3 2.75,3.25 3,4 H 2"/>
  <path d="m1 3h1v1h-1"/>
 </g>
 <g>
  <path d="m0 3h1v1h-1"/>
  <path d="m15 2h1v1h-1"/>
  <path d="m14 2h1v1h-1" fill="#fff"/>
  <path d="m12.75 2.25 0.5-0.5 0.75 0.25v1l-0.75 0.25-0.5-0.5" fill="#fff"/>
 </g>
 <g>
  <path d="m 12,2 0.75,0.25 v 0.5 L 12,3"/>
  <path d="m11 2h1v1h-1"/>
  <path d="m10 2h1v1h-1"/>
  <path d="m9 2h1v1h-1"/>
  <path d="m8 2h1v1h-1"/>
  <path d="m7 2h1v1h-1"/>
  <path d="m6 2h1v1h-1"/>
  <path d="m5 2h1v1h-1"/>
  <path d="m4 2h1v1h-1"/>
  <path d="M 3.25,2.25 4,2 V 3 L 3.25,2.75"/>
 </g>
 <g>
  <path d="m2 2 0.75-0.25 0.5 0.5v0.5l-0.5 0.5-0.75-0.25" fill="#fff"/>
  <path d="m1 2h1v1h-1" fill="#fff"/>
  <path d="m0 2h1v1h-1"/>
  <path d="m14.75 1.25 0.5-0.5 0.75 0.25v1h-1"/>
 </g>
 <g fill="#fff">
  <path d="M 14,1 14.75,1.25 15,2 h -1"/>
  <path d="m13 1h1v1l-0.75-0.25"/>
  <path d="m12 1h1l0.25 0.75-0.5 0.5-0.75-0.25"/>
  <path d="m11 1h1v1h-1"/>
  <path d="m10 1h1v1h-1"/>
  <path d="m9 1h1v1h-1"/>
  <path d="m8 1h1v1h-1"/>
  <path d="m7 1h1v1h-1"/>
  <path d="m6 1h1v1h-1"/>
  <path d="m5 1h1v1h-1"/>
  <path d="m4 1h1v1h-1"/>
  <path d="m3 1h1v1l-0.75 0.25-0.5-0.5"/>
  <path d="M 2,1 H 3 L 2.75,1.75 2,2"/>
  <path d="M 1.25,1.25 2,1 V 2 H 1"/>
 </g>
 <g>
  <path d="M 0,1 0.75,0.75 1.25,1.25 1,2 H 0"/>
  <path d="m15 0h1v1l-0.75-0.25"/>
  <path d="m14 0h1l0.25 0.75-0.5 0.5-0.75-0.25"/>
  <path d="m13 0h1v1h-1"/>
  <path d="m12 0h1v1h-1"/>
  <path d="m11 0h1v1h-1"/>
  <path d="m10 0h1v1h-1"/>
  <path d="m9 0h1v1h-1"/>
  <path d="m8 0h1v1h-1"/>
  <path d="m7 0h1v1h-1"/>
  <path d="m6 0h1v1h-1"/>
  <path d="m5 0h1v1h-1"/>
  <path d="m4 0h1v1h-1"/>
  <path d="m3 0h1v1h-1"/>
  <path d="m2 0h1v1h-1"/>
  <path d="m1 0h1v1l-0.75 0.25-0.5-0.5"/>
  <path d="M 0,0 H 1 L 0.75,0.75 0,1"/>
 </g>
</svg>
