<?xml version="1.0" encoding="UTF-8"?>
<svg width="16" height="16" version="1.1" viewBox="0 0 16 16" xmlns="http://www.w3.org/2000/svg" xmlns:cc="http://creativecommons.org/ns#" xmlns:dc="http://purl.org/dc/elements/1.1/" xmlns:osb="http://www.openswatchbook.org/uri/2009/osb" xmlns:rdf="http://www.w3.org/1999/02/22-rdf-syntax-ns#">
 <metadata>
  <rdf:RDF>
   <cc:Work rdf:about="">
    <dc:format>image/svg+xml</dc:format>
    <dc:type rdf:resource="http://purl.org/dc/dcmitype/StillImage"/>
    <dc:title/>
   </cc:Work>
  </rdf:RDF>
 </metadata>
 <path transform="matrix(1.3332 0 0 1.4538 -3.604e-5 3.9242e-5)" d="m5.4848 6.0005c0.2598 0.17263-0.10452 0.43537-0.28692 0.4318-0.49428-0.009675-0.69249-0.60033-0.57668-1.0056 0.20715-0.725 1.0733-0.97964 1.7244-0.72156 0.9555 0.37874 1.2736 1.552 0.86644 2.4431-0.54273 1.1876-2.0328 1.5705-3.1618 1.0113-1.4208-0.70363-1.8687-2.5145-1.1562-3.8805 0.86298-1.6545 2.9966-2.1678 4.5992-1.3011 1.8886 1.0214 2.4675 3.4792 1.446 5.318-1.1794 2.123-3.9619 2.7674-6.0367 1.5908-2.3575-1.3369-3.0676-4.4448-1.7357-6.7554 1.4942-2.5922 4.9278-3.368 7.4741-1.8806 2.8269 1.6513 3.6685 5.4108 2.0255 8.1928" fill="none" stroke="#ff0"/>
</svg>
