<?xml version="1.0" encoding="UTF-8" standalone="no"?>
<svg
   xmlns:dc="http://purl.org/dc/elements/1.1/"
   xmlns:cc="http://creativecommons.org/ns#"
   xmlns:rdf="http://www.w3.org/1999/02/22-rdf-syntax-ns#"
   xmlns:svg="http://www.w3.org/2000/svg"
   xmlns="http://www.w3.org/2000/svg"
   xmlns:sodipodi="http://sodipodi.sourceforge.net/DTD/sodipodi-0.dtd"
   xmlns:inkscape="http://www.inkscape.org/namespaces/inkscape"
   width="12mm"
   height="11mm"
   viewBox="0 0 12 11"
   version="1.1"
   id="svg8"
   inkscape:version="1.0.2-2 (e86c870879, 2021-01-15)"
   sodipodi:docname="dessin-1.svg">
  <defs
     id="defs2" />
  <sodipodi:namedview
     id="base"
     pagecolor="#ffffff"
     bordercolor="#666666"
     borderopacity="1.0"
     inkscape:pageopacity="0.0"
     inkscape:pageshadow="2"
     inkscape:zoom="0.7"
     inkscape:cx="165.67945"
     inkscape:cy="327.08339"
     inkscape:document-units="mm"
     inkscape:current-layer="layer1"
     inkscape:document-rotation="0"
     showgrid="false"
     inkscape:window-width="1647"
     inkscape:window-height="1030"
     inkscape:window-x="96"
     inkscape:window-y="0"
     inkscape:window-maximized="0" />
  <metadata
     id="metadata5">
    <rdf:RDF>
      <cc:Work
         rdf:about="">
        <dc:format>image/svg+xml</dc:format>
        <dc:type
           rdf:resource="http://purl.org/dc/dcmitype/StillImage" />
        <dc:title></dc:title>
      </cc:Work>
    </rdf:RDF>
  </metadata>
  <g
     inkscape:label="Calque 1"
     inkscape:groupmode="layer"
     id="layer1">
    <path
       style="fill:#000000;stroke-width:0.264583"
       d="m 4.7436026,10.881934 c 0,-0.848508 -0.526359,-1.1252886 -1.244784,-0.654559 -0.617275,0.404455 -0.678947,0.387526 -1.469962,-0.4034876 -0.767401,-0.767401 -0.800074,-0.873452 -0.463092,-1.503109 0.39402,-0.736233 0.209626,-1.083401 -0.65862099,-1.240015 -0.291041,-0.0525 -0.499401,-0.183117 -0.46302,-0.290265 0.03638,-0.107148 0.06614,-0.671064 0.06614,-1.253147 0,-0.871218 0.0908,-1.058334 0.51355199,-1.058334 0.726569,0 0.929074,-0.472569 0.52558,-1.226503 -0.315802,-0.590082 -0.275041,-0.718036 0.464252,-1.457328 0.685774,-0.685775 0.894363,-0.765541 1.355931,-0.518518 0.904182,0.483904 1.374019,0.357547 1.374019,-0.36952503 0,-0.617362 0.08819,-0.661459 1.322917,-0.661459 1.234722,0 1.322916,0.0441 1.322916,0.661459 0,0.51382803 0.13582,0.66145803 0.608542,0.66145803 0.334698,0 0.737954,-0.129413 0.896125,-0.287584 0.207056,-0.207056 0.534884,-0.06662 1.1707524,0.501527 0.834741,0.74584 0.862789,0.827189 0.511513,1.483555 -0.402744,0.752532 -0.223435,1.099541 0.649527,1.257006 0.436064,0.07866 0.529166,0.303657 0.529166,1.278829 0,0.975172 -0.0931,1.200172 -0.529166,1.278829 -0.868247,0.156614 -1.052641,0.503782 -0.658621,1.240015 0.337539,0.630698 0.304191,0.735826 -0.483188,1.523205 C 9.3476946,10.580368 9.1705716,10.647419 8.7143456,10.3625 7.8746896,9.8381274 7.3894306,9.9605394 7.3894306,10.696725 c 0,0.617361 -0.08819,0.661459 -1.322916,0.661459 -1.097531,0 -1.322917,-0.08114 -1.322917,-0.47625 z m 2.38125,-0.418933 c 0,-0.7812956 0.971696,-1.1173196 1.596333,-0.5520316 0.376798,0.3409976 0.505683,0.3008366 1.131776,-0.352663 0.6455104,-0.673767 0.6702464,-0.773791 0.2863104,-1.157727 -0.5351024,-0.535102 -0.0789,-1.540312 0.699057,-1.540312 0.430111,0 0.519857,-0.182706 0.519857,-1.058333 0,-0.938689 -0.07129,-1.058333 -0.630599,-1.058333 -0.7812964,0 -1.1173204,-0.971697 -0.552032,-1.596333 0.340998,-0.376798 0.300837,-0.505684 -0.3526634,-1.131776 -0.646771,-0.619645 -0.785028,-0.659009 -1.124016,-0.320022 -0.576758,0.576758 -1.574023,0.225374 -1.574023,-0.554603 0,-0.55931103 -0.119644,-0.63059903 -1.058333,-0.63059903 -0.93869,0 -1.058334,0.07129 -1.058334,0.63059903 0,0.781295 -0.971696,1.11732 -1.596333,0.552032 -0.376798,-0.340998 -0.505683,-0.300837 -1.131776,0.352663 -0.619645,0.64677 -0.659009,0.785028 -0.320021,1.124015 0.576757,0.576758 0.225373,1.574024 -0.554604,1.574024 -0.55930999,0 -0.63059899,0.119644 -0.63059899,1.058333 0,0.938689 0.07129,1.058333 0.63059899,1.058333 0.782498,0 1.117196,0.971834 0.550397,1.59814 -0.342736,0.378719 -0.310403,0.498477 0.285812,1.058591 0.552351,0.5189066 0.759223,0.5772586 1.159743,0.32713 0.739849,-0.462043 1.606782,-0.128133 1.606782,0.6188726 0,0.55931 0.119644,0.630599 1.058334,0.630599 0.938689,0 1.058333,-0.07129 1.058333,-0.630599 z M 4.8638676,7.0045854 c -0.357188,-0.357187 -0.649432,-0.89838 -0.649432,-1.202651 0,-0.681223 1.12604,-1.852083 1.781185,-1.852083 0.976522,0 1.658399,0.761513 1.658399,1.852083 0,1.744249 -1.571279,2.421524 -2.790152,1.202651 z m 1.93753,-0.02703 c 0.647832,-0.453759 0.796806,-1.65477 0.270538,-2.181038 -0.486069,-0.486069 -1.662476,-0.377917 -2.186393,0.201005 -0.593922,0.656276 -0.374262,1.670327 0.447621,2.066423 0.800645,0.38586 0.793394,0.386286 1.468234,-0.08639 z"
       id="path24" />
  </g>
</svg>
